G04*
G04 #@! TF.GenerationSoftware,Altium Limited,Altium Designer,21.2.1 (34)*
G04*
G04 Layer_Physical_Order=1*
G04 Layer_Color=255*
%FSTAX24Y24*%
%MOIN*%
G70*
G04*
G04 #@! TF.SameCoordinates,A0B086A8-5AB1-40D3-A59C-F662E0C94A6C*
G04*
G04*
G04 #@! TF.FilePolarity,Positive*
G04*
G01*
G75*
%ADD21C,0.0780*%
%ADD29C,0.0300*%
%ADD30C,0.0500*%
%ADD31C,0.0630*%
%ADD32R,0.0630X0.0630*%
%ADD33C,0.0602*%
%ADD34R,0.0602X0.0602*%
%ADD35C,0.0700*%
%ADD36C,0.0669*%
%ADD37R,0.1100X0.0600*%
%ADD38O,0.1100X0.0600*%
%ADD39C,0.1575*%
%ADD40C,0.0598*%
%ADD41R,0.0598X0.0598*%
G36*
X022885Y022273D02*
X022871D01*
Y022274D01*
X02287Y022277D01*
X022869Y022281D01*
X022866Y022286D01*
X022864Y022292D01*
X02286Y0223D01*
X022851Y022317D01*
X02284Y022336D01*
X022826Y022356D01*
X02281Y022374D01*
X022801Y022383D01*
X022791Y022391D01*
X02279Y022391D01*
X022789Y022392D01*
X022786Y022395D01*
X022782Y022397D01*
X022777Y0224D01*
X022771Y022404D01*
X022765Y022407D01*
X022757Y022411D01*
X02274Y022419D01*
X02272Y022425D01*
X022699Y02243D01*
X022687Y022431D01*
X022675Y022431D01*
X02267D01*
X022665Y022431D01*
X02266D01*
X022654Y02243D01*
X02264Y022427D01*
X022624Y022423D01*
X022607Y022417D01*
X02259Y022409D01*
X022575Y022397D01*
X022574D01*
X022573Y022396D01*
X022568Y022391D01*
X022561Y022383D01*
X022553Y022372D01*
X022543Y022359D01*
X022534Y022343D01*
X022526Y022324D01*
X022518Y022302D01*
Y022302D01*
X022517Y0223D01*
X022516Y022297D01*
X022516Y022292D01*
X022514Y022287D01*
X022513Y02228D01*
X022511Y022272D01*
X02251Y022264D01*
X022506Y022246D01*
X022504Y022225D01*
X022502Y022202D01*
X022501Y022178D01*
Y022177D01*
Y022175D01*
Y022171D01*
Y022165D01*
X022502Y022158D01*
Y022151D01*
X022503Y022142D01*
X022504Y022132D01*
X022506Y022111D01*
X022509Y022088D01*
X022514Y022065D01*
X02252Y022042D01*
Y022042D01*
X022521Y02204D01*
X022521Y022037D01*
X022523Y022033D01*
X022526Y022028D01*
X022528Y022022D01*
X022534Y02201D01*
X022542Y021996D01*
X022552Y021982D01*
X022564Y021968D01*
X022578Y021957D01*
X022579D01*
X02258Y021956D01*
X022582Y021954D01*
X022585Y021952D01*
X022594Y021948D01*
X022605Y021943D01*
X02262Y021938D01*
X022636Y021934D01*
X022655Y021931D01*
X022675Y02193D01*
X022682D01*
X022687Y021931D01*
X022693D01*
X0227Y021932D01*
X022714Y021934D01*
X022715D01*
X022717Y021935D01*
X022721Y021936D01*
X022727Y021937D01*
X022733Y021939D01*
X02274Y021941D01*
X022756Y021946D01*
Y022058D01*
Y02206D01*
Y022063D01*
Y022069D01*
X022755Y022075D01*
Y022082D01*
X022755Y022089D01*
X022753Y022095D01*
X022751Y022099D01*
Y0221D01*
X02275Y022101D01*
X022747Y022105D01*
X022742Y02211D01*
X022738Y022113D01*
X022733Y022116D01*
X022732D01*
X02273Y022117D01*
X022728Y022118D01*
X022724Y02212D01*
X022719Y022122D01*
X022714Y022122D01*
X0227Y022124D01*
X022687D01*
Y022138D01*
X022949D01*
Y022124D01*
X022947D01*
X022944Y022123D01*
X022939D01*
X022932Y022122D01*
X022918Y022119D01*
X022912Y022117D01*
X022906Y022115D01*
X022905D01*
X022905Y022114D01*
X0229Y02211D01*
X022894Y022104D01*
X022889Y022095D01*
X022888Y022093D01*
Y022091D01*
X022887Y022087D01*
X022886Y022082D01*
Y022077D01*
X022885Y022068D01*
Y022058D01*
Y021946D01*
X022885D01*
X022883Y021945D01*
X02288Y021943D01*
X022876Y021942D01*
X022872Y02194D01*
X022866Y021938D01*
X022853Y021933D01*
X022836Y021927D01*
X022818Y021922D01*
X022799Y021917D01*
X022778Y021912D01*
X022777D01*
X022775Y021911D01*
X022772D01*
X022768Y02191D01*
X022763Y021909D01*
X022757Y021908D01*
X02275Y021907D01*
X022743Y021906D01*
X022725Y021903D01*
X022705Y021902D01*
X022685Y021901D01*
X022662Y0219D01*
X02265D01*
X022643Y021901D01*
X022635D01*
X022627Y021902D01*
X022618Y021902D01*
X022598Y021905D01*
X022577Y021908D01*
X022555Y021913D01*
X022536Y02192D01*
X022535D01*
X022533Y021921D01*
X022531Y021922D01*
X022527Y021924D01*
X022517Y021928D01*
X022506Y021935D01*
X022491Y021942D01*
X022476Y021952D01*
X022461Y021962D01*
X022446Y021975D01*
Y021976D01*
X022445Y021977D01*
X02244Y021981D01*
X022433Y021988D01*
X022425Y021997D01*
X022415Y022009D01*
X022405Y022022D01*
X022395Y022036D01*
X022386Y022052D01*
Y022052D01*
X022385Y022054D01*
X022383Y022057D01*
X022381Y022062D01*
X022379Y022067D01*
X022377Y022072D01*
X022375Y02208D01*
X022372Y022087D01*
X022366Y022106D01*
X022362Y022127D01*
X022359Y022149D01*
X022358Y022174D01*
Y022176D01*
Y02218D01*
X022359Y022186D01*
X02236Y022194D01*
X022361Y022205D01*
X022362Y022217D01*
X022366Y022231D01*
X022369Y022246D01*
X022373Y022261D01*
X022379Y022277D01*
X022386Y022295D01*
X022394Y022311D01*
X022404Y022329D01*
X022415Y022346D01*
X022428Y022363D01*
X022443Y022379D01*
X022444Y02238D01*
X022447Y022382D01*
X022452Y022386D01*
X022459Y022392D01*
X022467Y022398D01*
X022477Y022406D01*
X022489Y022413D01*
X022502Y022421D01*
X022517Y022429D01*
X022533Y022436D01*
X022551Y022444D01*
X02257Y02245D01*
X02259Y022456D01*
X022611Y02246D01*
X022635Y022462D01*
X022658Y022463D01*
X022672D01*
X022682Y022462D01*
X022693Y022461D01*
X022705Y022461D01*
X02273Y022456D01*
X022731D01*
X022734Y022456D01*
X022738Y022455D01*
X022744Y022453D01*
X022752Y022451D01*
X022761Y022447D01*
X022773Y022443D01*
X022786Y022438D01*
X022787D01*
X022788Y022437D01*
X022793Y022436D01*
X022799Y022434D01*
X022807Y022431D01*
X022815Y022428D01*
X022822Y022426D01*
X022829Y022425D01*
X022833Y022424D01*
X022835D01*
X02284Y022425D01*
X022846Y022427D01*
X022853Y022431D01*
X022854Y022432D01*
X022855Y022433D01*
X022856Y022436D01*
X022859Y022439D01*
X022862Y022443D01*
X022865Y022448D01*
X022868Y022455D01*
X022871Y022463D01*
X022885D01*
Y022273D01*
D02*
G37*
G36*
X023673Y022305D02*
X023658D01*
Y022306D01*
X023658Y022307D01*
X023657Y02231D01*
X023656Y022313D01*
X023653Y022322D01*
X02365Y022332D01*
X023645Y022344D01*
X023641Y022356D01*
X023635Y022367D01*
X023629Y022376D01*
X023628Y022377D01*
X023627Y022381D01*
X023623Y022384D01*
X023618Y02239D01*
X023613Y022395D01*
X023605Y022401D01*
X023597Y022407D01*
X023588Y022412D01*
X023587D01*
X023585Y022413D01*
X023581Y022415D01*
X023575Y022416D01*
X023568Y022417D01*
X023559Y022419D01*
X023548Y02242D01*
X023495D01*
Y022004D01*
Y022003D01*
Y022002D01*
Y021997D01*
Y021991D01*
X023496Y021982D01*
Y021973D01*
X023497Y021964D01*
X023498Y021957D01*
X023499Y021952D01*
Y021951D01*
X0235Y02195D01*
X023503Y021946D01*
X023508Y02194D01*
X023513Y021937D01*
X023517Y021934D01*
X023518D01*
X023519Y021933D01*
X023523Y021932D01*
X023526Y021931D01*
X023532Y021929D01*
X023538Y021927D01*
X023544Y021927D01*
X023571D01*
Y021913D01*
X02329D01*
Y021927D01*
X023312D01*
X023316Y021927D01*
X023321D01*
X023334Y02193D01*
X023339Y021932D01*
X023345Y021935D01*
X023346D01*
X023347Y021936D01*
X023351Y021939D01*
X023356Y021945D01*
X023361Y021953D01*
Y021954D01*
X023362Y021956D01*
X023363Y021958D01*
X023364Y021963D01*
X023364Y02197D01*
X023365Y021979D01*
X023366Y02199D01*
Y022004D01*
Y02242D01*
X023318D01*
X023309Y022419D01*
X023296Y022417D01*
X023284Y022414D01*
X02327Y02241D01*
X023258Y022404D01*
X023248Y022396D01*
X023246Y022395D01*
X023242Y022391D01*
X023236Y022383D01*
X023229Y022373D01*
X023222Y02236D01*
X023214Y022344D01*
X023209Y022326D01*
X023204Y022305D01*
X023189D01*
Y022451D01*
X023673D01*
Y022305D01*
D02*
G37*
G36*
X020537D02*
X020523D01*
Y022306D01*
X020522Y022307D01*
X020521Y02231D01*
X02052Y022313D01*
X020518Y022322D01*
X020515Y022332D01*
X02051Y022344D01*
X020505Y022356D01*
X0205Y022367D01*
X020494Y022376D01*
X020493Y022377D01*
X020491Y022381D01*
X020488Y022384D01*
X020483Y02239D01*
X020477Y022395D01*
X02047Y022401D01*
X020461Y022407D01*
X020452Y022412D01*
X020451D01*
X02045Y022413D01*
X020446Y022415D01*
X02044Y022416D01*
X020433Y022417D01*
X020424Y022419D01*
X020413Y02242D01*
X02036Y02242D01*
Y022004D01*
Y022003D01*
Y022002D01*
Y021997D01*
Y021991D01*
X020361Y021982D01*
Y021973D01*
X020361Y021964D01*
X020362Y021957D01*
X020364Y021952D01*
Y021951D01*
X020365Y02195D01*
X020368Y021946D01*
X020373Y02194D01*
X020377Y021937D01*
X020381Y021934D01*
X020382D01*
X020384Y021933D01*
X020387Y021932D01*
X020391Y021931D01*
X020396Y021929D01*
X020402Y021927D01*
X020409Y021927D01*
X020436Y021927D01*
Y021913D01*
X020155Y021912D01*
Y021927D01*
X020176D01*
X020181Y021927D01*
X020186D01*
X020198Y02193D01*
X020204Y021932D01*
X02021Y021935D01*
X020211D01*
X020211Y021936D01*
X020216Y021939D01*
X020221Y021945D01*
X020226Y021953D01*
Y021954D01*
X020226Y021956D01*
X020227Y021958D01*
X020228Y021963D01*
X020229Y02197D01*
X02023Y021979D01*
X020231Y02199D01*
Y022004D01*
Y02242D01*
X020182D01*
X020173Y022419D01*
X020161Y022417D01*
X020148Y022414D01*
X020135Y02241D01*
X020122Y022404D01*
X020112Y022396D01*
X020111Y022395D01*
X020106Y022391D01*
X020101Y022383D01*
X020094Y022373D01*
X020086Y02236D01*
X020079Y022344D01*
X020073Y022326D01*
X020069Y022305D01*
X020054D01*
Y022451D01*
X020537Y022451D01*
Y022305D01*
D02*
G37*
G36*
X018033Y022305D02*
X018019D01*
Y022306D01*
X018018Y022307D01*
X018017Y02231D01*
X018016Y022313D01*
X018014Y022322D01*
X018011Y022332D01*
X018006Y022344D01*
X018001Y022356D01*
X017996Y022367D01*
X01799Y022376D01*
X017989Y022377D01*
X017987Y022381D01*
X017984Y022384D01*
X017979Y02239D01*
X017973Y022395D01*
X017966Y022401D01*
X017957Y022407D01*
X017948Y022412D01*
X017947D01*
X017946Y022413D01*
X017942Y022415D01*
X017936Y022416D01*
X017929Y022417D01*
X01792Y022419D01*
X017909Y02242D01*
X017856D01*
Y022004D01*
Y022003D01*
Y022002D01*
Y021997D01*
Y021991D01*
X017857Y021982D01*
Y021973D01*
X017857Y021964D01*
X017858Y021957D01*
X01786Y021952D01*
Y021951D01*
X017861Y02195D01*
X017864Y021946D01*
X017869Y02194D01*
X017873Y021937D01*
X017877Y021934D01*
X017878D01*
X01788Y021933D01*
X017883Y021932D01*
X017887Y021931D01*
X017892Y021929D01*
X017898Y021927D01*
X017905Y021927D01*
X017932D01*
Y021912D01*
X017651D01*
Y021927D01*
X017672D01*
X017677Y021927D01*
X017682D01*
X017694Y02193D01*
X0177Y021932D01*
X017706Y021935D01*
X017707D01*
X017707Y021936D01*
X017712Y021939D01*
X017717Y021945D01*
X017722Y021953D01*
Y021954D01*
X017722Y021956D01*
X017723Y021958D01*
X017724Y021963D01*
X017725Y02197D01*
X017726Y021979D01*
X017727Y02199D01*
Y022004D01*
Y02242D01*
X017678D01*
X017669Y022419D01*
X017657Y022417D01*
X017644Y022414D01*
X017631Y02241D01*
X017618Y022404D01*
X017608Y022396D01*
X017607Y022395D01*
X017602Y022391D01*
X017597Y022383D01*
X01759Y022373D01*
X017582Y02236D01*
X017575Y022344D01*
X017569Y022326D01*
X017565Y022305D01*
X01755D01*
Y022451D01*
X018033D01*
Y022305D01*
D02*
G37*
G36*
X024584Y022436D02*
X024582D01*
X024578Y022436D01*
X024572Y022435D01*
X024565Y022433D01*
X02455Y022429D01*
X024542Y022426D01*
X024537Y022424D01*
X024536D01*
X024536Y022422D01*
X024531Y022419D01*
X024525Y022411D01*
X024521Y022407D01*
X024519Y022401D01*
Y022401D01*
X024518Y022399D01*
X024517Y022395D01*
X024516Y022389D01*
X024515Y022381D01*
X024514Y022372D01*
X024513Y022361D01*
Y022348D01*
Y0219D01*
X024499D01*
X024137Y022348D01*
Y022006D01*
Y022005D01*
Y022004D01*
Y022002D01*
Y021998D01*
X024138Y02199D01*
X02414Y021981D01*
X024142Y02197D01*
X024147Y021959D01*
X024152Y02195D01*
X024158Y021942D01*
X024159Y021942D01*
X024162Y02194D01*
X024167Y021937D01*
X024172Y021935D01*
X024179Y021932D01*
X024187Y021929D01*
X024197Y021927D01*
X024207Y021927D01*
X02422D01*
Y021913D01*
X024029D01*
Y021927D01*
X024037D01*
X024044Y021927D01*
X024053Y021929D01*
X024063Y021931D01*
X024074Y021934D01*
X024083Y021938D01*
X024091Y021944D01*
X024092Y021945D01*
X024093Y021947D01*
X024097Y021952D01*
X0241Y021959D01*
X024102Y021967D01*
X024106Y021978D01*
X024107Y021991D01*
X024108Y022006D01*
Y022386D01*
X024097Y0224D01*
X024096Y022401D01*
X024094Y022403D01*
X024091Y022407D01*
X024087Y022411D01*
X024077Y022421D01*
X024071Y022425D01*
X024066Y022428D01*
X024065D01*
X024063Y022429D01*
X024061Y022431D01*
X024057Y022432D01*
X024051Y022433D01*
X024045Y022435D01*
X024037Y022436D01*
X024028Y022436D01*
Y022451D01*
X024219D01*
X024484Y022117D01*
Y022348D01*
Y022349D01*
Y022351D01*
Y022353D01*
Y022356D01*
X024483Y022364D01*
X024482Y022375D01*
X024481Y022386D01*
X024478Y022396D01*
X024475Y022406D01*
X02447Y022414D01*
X024469Y022415D01*
X024466Y022417D01*
X024461Y022421D01*
X024455Y022426D01*
X024446Y022429D01*
X024435Y022433D01*
X024422Y022436D01*
X024406Y022436D01*
Y022451D01*
X024584D01*
Y022436D01*
D02*
G37*
G36*
X022306D02*
X022304D01*
X0223Y022436D01*
X022294Y022435D01*
X022286Y022433D01*
X022271Y022429D01*
X022264Y022426D01*
X022259Y022424D01*
X022258D01*
X022257Y022422D01*
X022252Y022419D01*
X022246Y022411D01*
X022243Y022407D01*
X022241Y022401D01*
Y022401D01*
X02224Y022399D01*
X022239Y022395D01*
X022238Y022389D01*
X022236Y022381D01*
X022236Y022372D01*
X022235Y022361D01*
Y022348D01*
Y0219D01*
X022221D01*
X021859Y022348D01*
Y022006D01*
Y022005D01*
Y022004D01*
Y022002D01*
Y021998D01*
X02186Y02199D01*
X021862Y021981D01*
X021864Y02197D01*
X021868Y021959D01*
X021873Y02195D01*
X02188Y021942D01*
X021881Y021942D01*
X021883Y02194D01*
X021888Y021937D01*
X021894Y021935D01*
X021901Y021932D01*
X021909Y021929D01*
X021918Y021927D01*
X021928Y021927D01*
X021942D01*
Y021913D01*
X021751D01*
Y021927D01*
X021758D01*
X021766Y021927D01*
X021775Y021929D01*
X021785Y021931D01*
X021796Y021934D01*
X021805Y021938D01*
X021812Y021944D01*
X021813Y021945D01*
X021815Y021947D01*
X021818Y021952D01*
X021822Y021959D01*
X021824Y021967D01*
X021827Y021978D01*
X021829Y021991D01*
X02183Y022006D01*
Y022386D01*
X021818Y0224D01*
X021817Y022401D01*
X021816Y022403D01*
X021812Y022407D01*
X021808Y022411D01*
X021798Y022421D01*
X021792Y022425D01*
X021787Y022428D01*
X021787D01*
X021785Y022429D01*
X021782Y022431D01*
X021778Y022432D01*
X021772Y022433D01*
X021767Y022435D01*
X021759Y022436D01*
X02175Y022436D01*
Y022451D01*
X021941D01*
X022206Y022117D01*
Y022348D01*
Y022349D01*
Y022351D01*
Y022353D01*
Y022356D01*
X022205Y022364D01*
X022204Y022375D01*
X022202Y022386D01*
X0222Y022396D01*
X022196Y022406D01*
X022191Y022414D01*
X022191Y022415D01*
X022188Y022417D01*
X022183Y022421D01*
X022176Y022426D01*
X022167Y022429D01*
X022156Y022433D01*
X022144Y022436D01*
X022128Y022436D01*
Y022451D01*
X022306D01*
Y022436D01*
D02*
G37*
G36*
X019802Y022436D02*
X0198D01*
X019796Y022436D01*
X01979Y022435D01*
X019782Y022433D01*
X019767Y022429D01*
X01976Y022426D01*
X019755Y022424D01*
X019754D01*
X019753Y022422D01*
X019748Y022419D01*
X019742Y022411D01*
X019739Y022407D01*
X019737Y022401D01*
Y022401D01*
X019736Y022399D01*
X019735Y022395D01*
X019734Y022389D01*
X019732Y022381D01*
X019732Y022372D01*
X019731Y022361D01*
Y022348D01*
Y0219D01*
X019717D01*
X019355Y022348D01*
Y022006D01*
Y022005D01*
Y022004D01*
Y022002D01*
Y021998D01*
X019356Y02199D01*
X019358Y021981D01*
X01936Y02197D01*
X019364Y021959D01*
X019369Y02195D01*
X019376Y021942D01*
X019377Y021942D01*
X019379Y02194D01*
X019384Y021937D01*
X01939Y021935D01*
X019397Y021932D01*
X019405Y021929D01*
X019414Y021927D01*
X019424Y021927D01*
X019438D01*
Y021912D01*
X019247D01*
Y021927D01*
X019254D01*
X019262Y021927D01*
X019271Y021929D01*
X019281Y021931D01*
X019292Y021934D01*
X019301Y021938D01*
X019308Y021944D01*
X019309Y021945D01*
X019311Y021947D01*
X019314Y021952D01*
X019318Y021959D01*
X01932Y021967D01*
X019323Y021978D01*
X019325Y021991D01*
X019326Y022006D01*
Y022386D01*
X019314Y0224D01*
X019313Y022401D01*
X019312Y022403D01*
X019308Y022407D01*
X019304Y022411D01*
X019294Y022421D01*
X019288Y022425D01*
X019283Y022428D01*
X019283D01*
X019281Y022429D01*
X019278Y022431D01*
X019274Y022432D01*
X019268Y022433D01*
X019263Y022435D01*
X019255Y022436D01*
X019246Y022436D01*
Y022451D01*
X019437D01*
X019702Y022117D01*
Y022348D01*
Y022349D01*
Y022351D01*
Y022353D01*
Y022356D01*
X019701Y022364D01*
X0197Y022375D01*
X019698Y022386D01*
X019696Y022396D01*
X019692Y022406D01*
X019687Y022414D01*
X019687Y022415D01*
X019684Y022417D01*
X019679Y022421D01*
X019672Y022426D01*
X019663Y022429D01*
X019652Y022433D01*
X01964Y022436D01*
X019624Y022436D01*
Y022451D01*
X019802D01*
Y022436D01*
D02*
G37*
G36*
X021724Y022436D02*
X021709D01*
X021705Y022436D01*
X021699D01*
X021688Y022432D01*
X021681Y022431D01*
X021675Y022427D01*
X021674D01*
X021673Y022426D01*
X02167Y022423D01*
X021667Y022421D01*
X021663Y022416D01*
X021659Y022411D01*
X021656Y022406D01*
X021653Y0224D01*
Y022399D01*
X021653Y022397D01*
X021652Y022394D01*
X021651Y022389D01*
X02165Y022383D01*
X021649Y022375D01*
X021648Y022366D01*
Y022354D01*
Y022149D01*
Y022148D01*
Y022145D01*
Y02214D01*
Y022133D01*
Y022126D01*
X021648Y022117D01*
Y022107D01*
X021647Y022097D01*
X021645Y022074D01*
X021643Y022051D01*
X02164Y02203D01*
X021638Y02202D01*
X021636Y022012D01*
Y022011D01*
X021635Y02201D01*
X021634Y022007D01*
X021633Y022005D01*
X021629Y021997D01*
X021623Y021987D01*
X021616Y021975D01*
X021605Y021962D01*
X021592Y021948D01*
X021583Y021942D01*
X021575Y021935D01*
X021574D01*
X021573Y021933D01*
X02157Y021932D01*
X021566Y021929D01*
X021562Y021927D01*
X021555Y021924D01*
X021548Y021921D01*
X021541Y021917D01*
X021532Y021914D01*
X021522Y021911D01*
X021511Y021908D01*
X021499Y021906D01*
X021487Y021903D01*
X021473Y021902D01*
X021458Y021901D01*
X021443Y0219D01*
X021432D01*
X021426Y021901D01*
X021419D01*
X021403Y021902D01*
X021387Y021904D01*
X021368Y021907D01*
X021351Y021913D01*
X021336Y021918D01*
X021335D01*
X021333Y021919D01*
X021331Y021921D01*
X021328Y021922D01*
X021318Y021928D01*
X021308Y021936D01*
X021295Y021945D01*
X021284Y021957D01*
X021272Y021969D01*
X021263Y021983D01*
Y021984D01*
X021262Y021985D01*
X021261Y021987D01*
X021259Y021991D01*
X021258Y021995D01*
X021256Y021999D01*
X021253Y022012D01*
X021249Y022027D01*
X021245Y022045D01*
X021243Y022067D01*
X021242Y02209D01*
Y022354D01*
Y022355D01*
Y022356D01*
Y022358D01*
Y022361D01*
Y022369D01*
X021241Y022378D01*
X02124Y022388D01*
X021239Y022397D01*
X021238Y022406D01*
X021236Y022411D01*
Y022412D01*
X021235Y022413D01*
X021232Y022418D01*
X021227Y022424D01*
X021219Y02243D01*
X021218D01*
X021216Y022431D01*
X021213Y022432D01*
X021208Y022433D01*
X021202Y022435D01*
X021194Y022436D01*
X021184Y022436D01*
X021172D01*
Y022451D01*
X021449D01*
Y022436D01*
X021424D01*
X021418Y022436D01*
X021403Y022434D01*
X021397Y022432D01*
X021392Y02243D01*
X021391D01*
X02139Y022429D01*
X021385Y022425D01*
X02138Y022419D01*
X021375Y022411D01*
Y022411D01*
X021374Y022409D01*
X021373Y022406D01*
Y0224D01*
X021373Y022392D01*
X021372Y022382D01*
X021371Y02237D01*
Y022354D01*
Y02209D01*
Y022089D01*
Y022087D01*
Y022083D01*
Y022078D01*
Y022072D01*
X021372Y022066D01*
X021373Y022052D01*
X021373Y022035D01*
X021376Y02202D01*
X021378Y022006D01*
X02138Y022D01*
X021382Y021995D01*
X021383Y021994D01*
X021384Y021991D01*
X021387Y021987D01*
X02139Y021982D01*
X021395Y021975D01*
X021401Y021968D01*
X021408Y021962D01*
X021417Y021956D01*
X021418Y021955D01*
X021421Y021953D01*
X021427Y021951D01*
X021434Y021948D01*
X021443Y021946D01*
X021454Y021943D01*
X021467Y021942D01*
X02148Y021941D01*
X021488D01*
X021495Y021942D01*
X021506Y021943D01*
X021517Y021946D01*
X021529Y021949D01*
X021542Y021953D01*
X021553Y02196D01*
X021555Y021961D01*
X021558Y021963D01*
X021564Y021968D01*
X021571Y021974D01*
X021578Y021982D01*
X021586Y021992D01*
X021593Y022002D01*
X021599Y022014D01*
Y022015D01*
X0216Y022016D01*
X021601Y022017D01*
X021602Y022021D01*
X021603Y022025D01*
X021604Y022029D01*
X021606Y022035D01*
X021608Y022042D01*
X021608Y02205D01*
X02161Y022058D01*
X021612Y022068D01*
X021613Y022079D01*
X021613Y022091D01*
X021614Y022104D01*
X021615Y022118D01*
Y022134D01*
Y022354D01*
Y022355D01*
Y022356D01*
Y02236D01*
Y022366D01*
X021614Y022374D01*
X021612Y022391D01*
X021609Y022398D01*
X021607Y022405D01*
Y022406D01*
X021605Y022407D01*
X021603Y02241D01*
X021602Y022414D01*
X021596Y022421D01*
X021593Y022425D01*
X021588Y022427D01*
X021588Y022428D01*
X021585Y022429D01*
X021581Y022431D01*
X021575Y022432D01*
X021568Y022434D01*
X021559Y022435D01*
X02155Y022436D01*
X021538D01*
Y022451D01*
X021724D01*
Y022436D01*
D02*
G37*
G36*
X019142Y02202D02*
Y022019D01*
X019143Y022017D01*
X019144Y022014D01*
X019147Y02201D01*
X019149Y022005D01*
X019152Y021999D01*
X019158Y021987D01*
X019165Y021972D01*
X019173Y02196D01*
X01918Y021949D01*
X019184Y021944D01*
X019188Y021941D01*
X019189Y02194D01*
X01919Y021939D01*
X019194Y021937D01*
X019198Y021934D01*
X019203Y021932D01*
X019209Y02193D01*
X019217Y021927D01*
X019226Y021927D01*
Y021912D01*
X018965D01*
Y021927D01*
X018981D01*
X018987Y021927D01*
X018994D01*
X019008Y02193D01*
X019014Y021932D01*
X01902Y021935D01*
X019021D01*
X019022Y021937D01*
X019025Y02194D01*
X019028Y021946D01*
X019029Y021949D01*
Y021953D01*
Y021955D01*
Y021958D01*
X019029Y021962D01*
X019027Y021968D01*
Y021969D01*
X019026Y021971D01*
X019025Y021973D01*
X019024Y021977D01*
X019021Y021982D01*
X019019Y021989D01*
X019014Y021998D01*
X018985Y022066D01*
X018797D01*
X018774Y022013D01*
X018773Y022012D01*
X018772Y022009D01*
X01877Y022004D01*
X018769Y021997D01*
X018765Y021983D01*
X018764Y021976D01*
X018763Y021969D01*
Y021968D01*
Y021966D01*
X018764Y021962D01*
X018765Y021957D01*
X018767Y021951D01*
X01877Y021946D01*
X018775Y02194D01*
X018781Y021936D01*
X018782D01*
X018784Y021935D01*
X018787Y021933D01*
X018792Y021932D01*
X018799Y021931D01*
X018808Y021929D01*
X018819Y021927D01*
X018834Y021927D01*
Y021912D01*
X018657D01*
D01*
X018487D01*
X018314Y022157D01*
X018279D01*
Y022006D01*
Y022005D01*
Y022004D01*
Y021999D01*
Y021992D01*
X01828Y021982D01*
Y021973D01*
X018281Y021964D01*
X018282Y021957D01*
X018284Y021951D01*
Y02195D01*
X018285Y021949D01*
X018288Y021945D01*
X018294Y021939D01*
X018302Y021933D01*
X018303D01*
X018305Y021932D01*
X018309Y021932D01*
X018314Y02193D01*
X018321Y021929D01*
X01833Y021927D01*
X018341Y021927D01*
X018354D01*
Y021912D01*
X018078D01*
Y021927D01*
X018091D01*
X018099Y021927D01*
X018116Y021929D01*
X018123Y021931D01*
X018129Y021933D01*
X01813D01*
X018131Y021934D01*
X018136Y021938D01*
X018142Y021943D01*
X018147Y021951D01*
Y021952D01*
X018148Y021953D01*
X018149Y021957D01*
X018151Y021962D01*
X018151Y021969D01*
X018152Y021979D01*
X018153Y021991D01*
Y022006D01*
Y022357D01*
Y022358D01*
Y022359D01*
Y022364D01*
Y022371D01*
X018152Y02238D01*
X018151Y022389D01*
X018151Y022398D01*
X018149Y022406D01*
X018147Y022411D01*
Y022411D01*
X018146Y022412D01*
X018143Y022417D01*
X018137Y022423D01*
X018133Y022426D01*
X018128Y022429D01*
X018127D01*
X018126Y02243D01*
X018122Y022431D01*
X018117Y022433D01*
X01811Y022434D01*
X018101Y022436D01*
X018091Y022436D01*
X018078D01*
Y022451D01*
X018352D01*
X018361Y02245D01*
X018371D01*
X018382Y022449D01*
X018405Y022447D01*
X01843Y022445D01*
X018451Y022441D01*
X018461Y022439D01*
X01847Y022436D01*
X018471D01*
X018472Y022436D01*
X018475Y022435D01*
X018478Y022434D01*
X018486Y022431D01*
X018497Y022426D01*
X018509Y022418D01*
X018521Y02241D01*
X018533Y022399D01*
X018545Y022386D01*
X018546Y022385D01*
X01855Y02238D01*
X018554Y022372D01*
X01856Y022362D01*
X018565Y02235D01*
X01857Y022336D01*
X018573Y022319D01*
X018574Y022302D01*
Y022301D01*
Y022299D01*
Y022296D01*
X018573Y022292D01*
X018572Y022287D01*
X018571Y022281D01*
X018569Y022267D01*
X018563Y022252D01*
X018555Y022235D01*
X01855Y022227D01*
X018545Y022219D01*
X018538Y022211D01*
X01853Y022203D01*
X018529Y022202D01*
X018525Y022199D01*
X018519Y022195D01*
X01851Y022189D01*
X0185Y022183D01*
X018486Y022177D01*
X018471Y022171D01*
X018454Y022166D01*
X018583Y021984D01*
X018584Y021982D01*
X018587Y021978D01*
X018591Y021972D01*
X018597Y021966D01*
X018603Y021958D01*
X018609Y021951D01*
X018614Y021944D01*
X018619Y02194D01*
X01862Y021939D01*
X018622Y021938D01*
X018625Y021937D01*
X01863Y021934D01*
X018635Y021932D01*
X018642Y02193D01*
X01865Y021928D01*
X018657Y021927D01*
Y021927D01*
X01866Y021927D01*
X018665Y021929D01*
X018671Y021931D01*
X018679Y021934D01*
X018687Y021938D01*
X018695Y021943D01*
X018702Y02195D01*
X018703Y021951D01*
X018705Y021954D01*
X01871Y02196D01*
X018715Y021967D01*
X018722Y021979D01*
X018725Y021986D01*
X01873Y021993D01*
X018735Y022002D01*
X018739Y022011D01*
X018744Y022021D01*
X018749Y022032D01*
X018941Y022461D01*
X018949D01*
X019142Y02202D01*
D02*
G37*
G36*
X02705Y022461D02*
X02706Y022459D01*
X02707Y022456D01*
X027083Y022453D01*
X027096Y022449D01*
X027109Y022442D01*
X02711Y022441D01*
X027115Y022439D01*
X02712Y022435D01*
X027128Y022429D01*
X027137Y022421D01*
X027145Y022412D01*
X027154Y022401D01*
X027162Y02239D01*
X027163Y022388D01*
X027165Y022384D01*
X027168Y022378D01*
X027172Y02237D01*
X027175Y02236D01*
X027178Y02235D01*
X02718Y022339D01*
X027181Y022328D01*
Y022327D01*
Y022326D01*
Y022323D01*
X02718Y022319D01*
Y022314D01*
X027179Y022308D01*
X027178Y022295D01*
X027174Y022278D01*
X027169Y022261D01*
X027161Y022241D01*
X027151Y022221D01*
X02715Y02222D01*
X027149Y022217D01*
X027147Y022213D01*
X027143Y022207D01*
X027138Y0222D01*
X027131Y022191D01*
X027124Y02218D01*
X027115Y022167D01*
X027104Y022154D01*
X027091Y022139D01*
X027077Y022122D01*
X02706Y022104D01*
X027043Y022084D01*
X027023Y022063D01*
X027Y022041D01*
X026976Y022017D01*
X027107D01*
X027115Y022017D01*
X027125D01*
X027134Y022018D01*
X027142Y022019D01*
X027148Y02202D01*
X027149D01*
X02715Y022021D01*
X027155Y022022D01*
X027163Y022027D01*
X027169Y022032D01*
Y022032D01*
X027171Y022033D01*
X027173Y022036D01*
X027175Y02204D01*
X027179Y022045D01*
X027182Y022051D01*
X027186Y022059D01*
X027191Y022068D01*
X027206D01*
X027175Y021913D01*
X02686D01*
Y021921D01*
X02686Y021922D01*
X026861Y021922D01*
X026863Y021925D01*
X026866Y021928D01*
X026873Y021937D01*
X026883Y021949D01*
X026895Y021962D01*
X026907Y021979D01*
X026921Y021997D01*
X026936Y022015D01*
X026967Y022054D01*
X026981Y022073D01*
X026995Y022092D01*
X027009Y02211D01*
X02702Y022127D01*
X02703Y022142D01*
X027036Y022154D01*
Y022155D01*
X027038Y022157D01*
X027039Y02216D01*
X027041Y022164D01*
X027044Y02217D01*
X027046Y022176D01*
X027049Y022183D01*
X027052Y022192D01*
X027057Y022209D01*
X027062Y022228D01*
X027065Y022249D01*
X027067Y022271D01*
Y022272D01*
Y022272D01*
Y022277D01*
X027065Y022286D01*
X027064Y022295D01*
X02706Y022306D01*
X027056Y022317D01*
X02705Y022329D01*
X027041Y02234D01*
X02704Y022341D01*
X027036Y022344D01*
X027031Y022349D01*
X027024Y022354D01*
X027015Y022359D01*
X027004Y022364D01*
X026991Y022367D01*
X026978Y022368D01*
X026972D01*
X026968Y022367D01*
X026963Y022366D01*
X026957Y022365D01*
X026944Y022361D01*
X026936Y022357D01*
X026928Y022353D01*
X02692Y022348D01*
X026913Y022342D01*
X026905Y022335D01*
X026897Y022327D01*
X02689Y022317D01*
X026884Y022307D01*
X026869Y022311D01*
Y022312D01*
X02687Y022315D01*
X026871Y022319D01*
X026873Y022324D01*
X026875Y022331D01*
X026878Y022337D01*
X026885Y022355D01*
X026895Y022373D01*
X026905Y022391D01*
X026919Y02241D01*
X026926Y022417D01*
X026934Y022425D01*
X026935Y022426D01*
X026935Y022426D01*
X026938Y022428D01*
X026941Y022431D01*
X026945Y022433D01*
X02695Y022436D01*
X026963Y022443D01*
X026977Y02245D01*
X026995Y022456D01*
X027014Y02246D01*
X027024Y022461D01*
X027041D01*
X02705Y022461D01*
D02*
G37*
G36*
X026698Y022022D02*
Y022021D01*
Y022019D01*
Y022017D01*
Y022013D01*
Y022005D01*
X026699Y021995D01*
Y021984D01*
X0267Y021973D01*
X0267Y021964D01*
X026701Y021961D01*
X026702Y021957D01*
Y021957D01*
X026703Y021955D01*
X026704Y021952D01*
X026706Y02195D01*
X026711Y021942D01*
X026716Y021938D01*
X02672Y021935D01*
X02672D01*
X026722Y021933D01*
X026725Y021932D01*
X02673Y021931D01*
X026737Y021929D01*
X026745Y021928D01*
X026754Y021927D01*
X026777D01*
Y021913D01*
X026494D01*
Y021927D01*
X026514D01*
X02652Y021927D01*
X026527D01*
X026543Y02193D01*
X026551Y021932D01*
X026556Y021934D01*
X026557D01*
X026559Y021936D01*
X026565Y02194D01*
X026571Y021947D01*
X026574Y021951D01*
X026576Y021956D01*
Y021957D01*
X026577Y021959D01*
X026578Y021963D01*
X02658Y021969D01*
X026581Y021978D01*
X026581Y02199D01*
X026582Y022004D01*
Y022012D01*
Y022022D01*
Y022301D01*
Y022302D01*
Y022302D01*
Y022307D01*
Y022313D01*
X026581Y022321D01*
Y022328D01*
X026581Y022336D01*
X02658Y022342D01*
X026578Y022347D01*
Y022348D01*
X026577Y022349D01*
X026576Y022353D01*
X026571Y022358D01*
X026565Y022363D01*
X026563Y022364D01*
X026559Y022366D01*
X026551Y022369D01*
X026542Y02237D01*
X026539D01*
X026535Y022369D01*
X026529Y022368D01*
X026521Y022366D01*
X026513Y022365D01*
X026504Y022361D01*
X026493Y022357D01*
X026486Y022371D01*
X026685Y022461D01*
X026698D01*
Y022022D01*
D02*
G37*
G36*
X025885Y022022D02*
Y022021D01*
Y022019D01*
Y022017D01*
Y022013D01*
Y022005D01*
X025886Y021995D01*
Y021984D01*
X025887Y021973D01*
X025887Y021964D01*
X025888Y021961D01*
X025889Y021957D01*
Y021957D01*
X02589Y021955D01*
X025891Y021952D01*
X025893Y02195D01*
X025898Y021942D01*
X025902Y021938D01*
X025907Y021935D01*
X025907D01*
X025909Y021933D01*
X025912Y021932D01*
X025917Y021931D01*
X025924Y021929D01*
X025932Y021928D01*
X025941Y021927D01*
X025964D01*
Y021913D01*
X025681D01*
Y021927D01*
X025701D01*
X025707Y021927D01*
X025714D01*
X02573Y02193D01*
X025738Y021932D01*
X025743Y021934D01*
X025744D01*
X025746Y021936D01*
X025752Y02194D01*
X025758Y021947D01*
X025761Y021951D01*
X025763Y021956D01*
Y021957D01*
X025764Y021959D01*
X025765Y021963D01*
X025767Y021969D01*
X025768Y021978D01*
X025768Y02199D01*
X025769Y022004D01*
Y022012D01*
Y022022D01*
Y022301D01*
Y022302D01*
Y022302D01*
Y022307D01*
Y022313D01*
X025768Y022321D01*
Y022328D01*
X025768Y022336D01*
X025767Y022342D01*
X025765Y022347D01*
Y022348D01*
X025764Y022349D01*
X025763Y022353D01*
X025758Y022358D01*
X025752Y022363D01*
X02575Y022364D01*
X025746Y022366D01*
X025738Y022369D01*
X025729Y02237D01*
X025726D01*
X025722Y022369D01*
X025716Y022368D01*
X025708Y022366D01*
X0257Y022365D01*
X025691Y022361D01*
X02568Y022357D01*
X025673Y022371D01*
X025872Y022461D01*
X025885D01*
Y022022D01*
D02*
G37*
G36*
X025017Y022461D02*
X025027Y022459D01*
X025038Y022456D01*
X02505Y022453D01*
X025064Y022449D01*
X025076Y022442D01*
X025078Y022441D01*
X025082Y022439D01*
X025088Y022435D01*
X025095Y022429D01*
X025104Y022421D01*
X025113Y022412D01*
X025122Y022401D01*
X025129Y02239D01*
X02513Y022388D01*
X025133Y022384D01*
X025135Y022378D01*
X025139Y02237D01*
X025143Y02236D01*
X025145Y02235D01*
X025148Y022339D01*
X025149Y022328D01*
Y022327D01*
Y022326D01*
Y022323D01*
X025148Y022319D01*
Y022314D01*
X025147Y022308D01*
X025145Y022295D01*
X025141Y022278D01*
X025136Y022261D01*
X025129Y022241D01*
X025119Y022221D01*
X025118Y02222D01*
X025117Y022217D01*
X025114Y022213D01*
X02511Y022207D01*
X025105Y0222D01*
X025099Y022191D01*
X025091Y02218D01*
X025082Y022167D01*
X025071Y022154D01*
X025059Y022139D01*
X025045Y022122D01*
X025028Y022104D01*
X02501Y022084D01*
X02499Y022063D01*
X024968Y022041D01*
X024944Y022017D01*
X025074D01*
X025083Y022017D01*
X025093D01*
X025101Y022018D01*
X025109Y022019D01*
X025115Y02202D01*
X025116D01*
X025118Y022021D01*
X025123Y022022D01*
X02513Y022027D01*
X025137Y022032D01*
Y022032D01*
X025139Y022033D01*
X02514Y022036D01*
X025143Y02204D01*
X025146Y022045D01*
X025149Y022051D01*
X025154Y022059D01*
X025159Y022068D01*
X025174D01*
X025143Y021913D01*
X024827D01*
Y021921D01*
X024828Y021922D01*
X024829Y021922D01*
X02483Y021925D01*
X024834Y021928D01*
X02484Y021937D01*
X02485Y021949D01*
X024862Y021962D01*
X024875Y021979D01*
X024889Y021997D01*
X024904Y022015D01*
X024935Y022054D01*
X024949Y022073D01*
X024963Y022092D01*
X024976Y02211D01*
X024987Y022127D01*
X024997Y022142D01*
X025004Y022154D01*
Y022155D01*
X025005Y022157D01*
X025006Y02216D01*
X025009Y022164D01*
X025011Y02217D01*
X025014Y022176D01*
X025016Y022183D01*
X02502Y022192D01*
X025025Y022209D01*
X02503Y022228D01*
X025033Y022249D01*
X025034Y022271D01*
Y022272D01*
Y022272D01*
Y022277D01*
X025033Y022286D01*
X025031Y022295D01*
X025028Y022306D01*
X025024Y022317D01*
X025017Y022329D01*
X025009Y02234D01*
X025008Y022341D01*
X025004Y022344D01*
X024999Y022349D01*
X024991Y022354D01*
X024982Y022359D01*
X024971Y022364D01*
X024959Y022367D01*
X024945Y022368D01*
X02494D01*
X024935Y022367D01*
X02493Y022366D01*
X024925Y022365D01*
X024911Y022361D01*
X024904Y022357D01*
X024895Y022353D01*
X024888Y022348D01*
X02488Y022342D01*
X024872Y022335D01*
X024865Y022327D01*
X024858Y022317D01*
X024851Y022307D01*
X024836Y022311D01*
Y022312D01*
X024837Y022315D01*
X024839Y022319D01*
X02484Y022324D01*
X024843Y022331D01*
X024845Y022337D01*
X024853Y022355D01*
X024862Y022373D01*
X024873Y022391D01*
X024886Y02241D01*
X024894Y022417D01*
X024901Y022425D01*
X024902Y022426D01*
X024903Y022426D01*
X024905Y022428D01*
X024909Y022431D01*
X024913Y022433D01*
X024918Y022436D01*
X02493Y022443D01*
X024945Y02245D01*
X024962Y022456D01*
X024981Y02246D01*
X024991Y022461D01*
X025009D01*
X025017Y022461D01*
D02*
G37*
G36*
X023998Y022436D02*
X023976D01*
X023972Y022436D01*
X023967D01*
X023954Y022432D01*
X023948Y022431D01*
X023942Y022427D01*
X023941Y022426D01*
X023937Y022423D01*
X023932Y022417D01*
X023927Y022409D01*
Y022408D01*
X023926Y022406D01*
X023925Y022404D01*
Y022399D01*
X023924Y022392D01*
X023923Y022384D01*
X023922Y022372D01*
Y022359D01*
Y022004D01*
Y022003D01*
Y022002D01*
Y021997D01*
Y021991D01*
X023923Y021982D01*
Y021973D01*
X023924Y021964D01*
X023925Y021957D01*
X023927Y021952D01*
Y021951D01*
X023927Y02195D01*
X023931Y021946D01*
X023936Y02194D01*
X02394Y021937D01*
X023944Y021934D01*
X023945D01*
X023947Y021933D01*
X02395Y021932D01*
X023953Y021931D01*
X023959Y021929D01*
X023965Y021927D01*
X023972Y021927D01*
X023998D01*
Y021913D01*
X023718D01*
Y021927D01*
X023739D01*
X023743Y021927D01*
X023748D01*
X023761Y02193D01*
X023767Y021932D01*
X023773Y021935D01*
X023773D01*
X023774Y021936D01*
X023778Y021939D01*
X023784Y021945D01*
X023788Y021953D01*
Y021954D01*
X023789Y021956D01*
X02379Y021958D01*
X023791Y021963D01*
X023792Y02197D01*
X023793Y021979D01*
X023793Y02199D01*
Y022004D01*
Y022359D01*
Y02236D01*
Y022361D01*
Y022366D01*
Y022372D01*
X023793Y022381D01*
Y022389D01*
X023792Y022397D01*
X02379Y022405D01*
X023788Y02241D01*
Y022411D01*
X023788Y022411D01*
X023785Y022416D01*
X023779Y022422D01*
X023776Y022426D01*
X023771Y022428D01*
X02377D01*
X023768Y02243D01*
X023766Y022431D01*
X023762Y022432D01*
X023757Y022434D01*
X02375Y022435D01*
X023743Y022436D01*
X023718D01*
Y022451D01*
X023998D01*
Y022436D01*
D02*
G37*
G36*
X020865Y02245D02*
X020875D01*
X020886Y022449D01*
X020909Y022447D01*
X020934Y022445D01*
X020955Y022441D01*
X020965Y022439D01*
X020974Y022436D01*
X020975D01*
X020976Y022436D01*
X020979Y022435D01*
X020982Y022434D01*
X02099Y022431D01*
X021001Y022426D01*
X021013Y022418D01*
X021025Y02241D01*
X021037Y022399D01*
X021049Y022386D01*
X02105Y022385D01*
X021054Y02238D01*
X021058Y022372D01*
X021064Y022362D01*
X021069Y02235D01*
X021074Y022336D01*
X021077Y022319D01*
X021078Y022302D01*
Y022301D01*
Y022299D01*
Y022296D01*
X021077Y022292D01*
X021076Y022287D01*
X021075Y022281D01*
X021073Y022267D01*
X021067Y022252D01*
X021059Y022235D01*
X021054Y022227D01*
X021049Y022219D01*
X021042Y022211D01*
X021034Y022203D01*
X021033Y022202D01*
X021029Y022199D01*
X021023Y022195D01*
X021014Y022189D01*
X021004Y022183D01*
X02099Y022177D01*
X020975Y022171D01*
X020958Y022166D01*
X021087Y021984D01*
X021088Y021982D01*
X021091Y021978D01*
X021095Y021972D01*
X021101Y021966D01*
X021107Y021958D01*
X021113Y021951D01*
X021118Y021944D01*
X021123Y02194D01*
X021124Y021939D01*
X021126Y021938D01*
X021129Y021937D01*
X021134Y021934D01*
X021139Y021932D01*
X021146Y02193D01*
X021154Y021928D01*
X021161Y021927D01*
Y021913D01*
X020991D01*
X020818Y022157D01*
X020783D01*
Y022006D01*
Y022005D01*
Y022004D01*
Y021999D01*
Y021992D01*
X020784Y021982D01*
Y021973D01*
X020785Y021964D01*
X020786Y021957D01*
X020788Y021951D01*
Y02195D01*
X020789Y021949D01*
X020792Y021945D01*
X020798Y021939D01*
X020806Y021933D01*
X020807D01*
X020809Y021932D01*
X020813Y021932D01*
X020818Y02193D01*
X020825Y021929D01*
X020834Y021927D01*
X020845Y021927D01*
X020858D01*
Y021913D01*
X020582D01*
Y021927D01*
X020595D01*
X020603Y021927D01*
X02062Y021929D01*
X020627Y021931D01*
X020633Y021933D01*
X020634D01*
X020635Y021934D01*
X02064Y021938D01*
X020646Y021943D01*
X020651Y021951D01*
Y021952D01*
X020652Y021953D01*
X020653Y021957D01*
X020655Y021962D01*
X020655Y021969D01*
X020656Y021979D01*
X020657Y021991D01*
Y022006D01*
Y022357D01*
Y022358D01*
Y022359D01*
Y022364D01*
Y022371D01*
X020656Y02238D01*
X020655Y022389D01*
X020655Y022398D01*
X020653Y022406D01*
X020651Y022411D01*
Y022411D01*
X02065Y022412D01*
X020647Y022417D01*
X020641Y022423D01*
X020637Y022426D01*
X020632Y022429D01*
X020631D01*
X02063Y02243D01*
X020626Y022431D01*
X020621Y022433D01*
X020614Y022434D01*
X020605Y022436D01*
X020595Y022436D01*
X020582D01*
Y022451D01*
X020856D01*
X020865Y02245D01*
D02*
G37*
G36*
X027863Y022461D02*
X027872Y02246D01*
X027883Y022457D01*
X027897Y022454D01*
X027912Y022448D01*
X027927Y02244D01*
X027943Y022429D01*
X027943D01*
X027944Y022427D01*
X027949Y022423D01*
X027957Y022416D01*
X027965Y022406D01*
X027975Y022394D01*
X027985Y02238D01*
X027994Y022362D01*
X028002Y022343D01*
Y022342D01*
X028003Y02234D01*
X028005Y022336D01*
X028007Y02233D01*
X028008Y022323D01*
X028011Y022315D01*
X028013Y022306D01*
X028016Y022295D01*
X028018Y022284D01*
X028021Y022272D01*
X028023Y022258D01*
X028025Y022244D01*
X028028Y022214D01*
X028029Y022182D01*
Y022181D01*
Y022178D01*
Y022174D01*
Y022168D01*
X028028Y022161D01*
Y022152D01*
X028027Y022143D01*
X028027Y022132D01*
X028023Y022109D01*
X028019Y022084D01*
X028013Y022057D01*
X028006Y022031D01*
Y02203D01*
X028005Y022029D01*
X028003Y022024D01*
X028Y022016D01*
X027997Y022006D01*
X027991Y021995D01*
X027985Y021983D01*
X027977Y021972D01*
X027969Y021961D01*
X027968Y02196D01*
X027965Y021957D01*
X027961Y021952D01*
X027954Y021945D01*
X027947Y021938D01*
X027938Y021931D01*
X027928Y021924D01*
X027918Y021917D01*
X027916Y021917D01*
X027913Y021915D01*
X027907Y021913D01*
X027899Y02191D01*
X02789Y021907D01*
X027879Y021904D01*
X027868Y021902D01*
X027855Y021902D01*
X027848D01*
X027841Y021902D01*
X027832Y021904D01*
X027821Y021907D01*
X027808Y02191D01*
X027797Y021914D01*
X027784Y021921D01*
X027783Y021922D01*
X027779Y021924D01*
X027773Y021929D01*
X027766Y021936D01*
X027758Y021943D01*
X027748Y021953D01*
X027738Y021964D01*
X027729Y021977D01*
X027728Y021979D01*
X027727Y021982D01*
X027723Y021988D01*
X027719Y021997D01*
X027714Y022007D01*
X027709Y02202D01*
X027703Y022034D01*
X027698Y02205D01*
Y022051D01*
X027698Y022052D01*
X027697Y022056D01*
X027696Y022061D01*
X027694Y022066D01*
X027693Y022072D01*
X027692Y02208D01*
X02769Y022088D01*
X027687Y022107D01*
X027684Y022128D01*
X027683Y022151D01*
X027682Y022175D01*
Y022176D01*
Y022179D01*
Y022183D01*
Y02219D01*
X027683Y022197D01*
X027683Y022207D01*
Y022217D01*
X027685Y022228D01*
X027686Y02224D01*
X027688Y022252D01*
X027692Y02228D01*
X027698Y022307D01*
X027706Y022336D01*
Y022336D01*
X027707Y022338D01*
X027708Y022341D01*
X02771Y022346D01*
X027712Y022351D01*
X027714Y022356D01*
X027721Y02237D01*
X027729Y022385D01*
X02774Y022401D01*
X027753Y022416D01*
X027767Y022429D01*
X027768D01*
X027768Y022431D01*
X027771Y022432D01*
X027774Y022434D01*
X027783Y022439D01*
X027793Y022446D01*
X027807Y022451D01*
X027822Y022456D01*
X027838Y02246D01*
X027855Y022461D01*
X02786D01*
X027863Y022461D01*
D02*
G37*
G36*
X027452Y021902D02*
X02739D01*
X027537Y022346D01*
X027414D01*
X027409Y022345D01*
X027403D01*
X027389Y022343D01*
X027372Y022341D01*
X027356Y022338D01*
X02734Y022334D01*
X027326Y022328D01*
X027325Y022327D01*
X027323Y022326D01*
X027319Y022323D01*
X027313Y022318D01*
X027307Y022312D01*
X027301Y022305D01*
X027294Y022296D01*
X027289Y022284D01*
X027274D01*
X027312Y022451D01*
X027633D01*
X027452Y021902D01*
D02*
G37*
G36*
X026408Y022451D02*
X026407D01*
X026405Y02245D01*
X026401Y022449D01*
X026396Y022447D01*
X02639Y022446D01*
X026383Y022443D01*
X026366Y022438D01*
X026348Y022431D01*
X026329Y022423D01*
X02631Y022414D01*
X026292Y022403D01*
X026291D01*
X026291Y022401D01*
X026288Y022401D01*
X026285Y022398D01*
X026277Y022392D01*
X026267Y022384D01*
X026257Y022374D01*
X026245Y022361D01*
X026233Y022348D01*
X026223Y022333D01*
Y022332D01*
X026222Y022332D01*
X026221Y022329D01*
X026219Y022326D01*
X026217Y022322D01*
X026215Y022317D01*
X026209Y022305D01*
X026203Y022291D01*
X026197Y022273D01*
X026191Y022253D01*
X026185Y022232D01*
X026186Y022232D01*
X026188Y022233D01*
X026191Y022236D01*
X026195Y022238D01*
X026205Y022243D01*
X02621Y022246D01*
X026214Y022247D01*
X026215D01*
X026218Y022249D01*
X026223Y02225D01*
X02623Y022252D01*
X026238Y022253D01*
X026247Y022254D01*
X026266Y022256D01*
X026272D01*
X026276Y022255D01*
X026281Y022254D01*
X026287Y022253D01*
X026302Y02225D01*
X026317Y022245D01*
X026334Y022237D01*
X026342Y022232D01*
X026351Y022227D01*
X026359Y022219D01*
X026366Y022212D01*
X026367Y022211D01*
X026368Y02221D01*
X026371Y022207D01*
X026373Y022203D01*
X026376Y022199D01*
X02638Y022193D01*
X026383Y022187D01*
X026387Y02218D01*
X026391Y022172D01*
X026395Y022163D01*
X026398Y022153D01*
X026401Y022142D01*
X026406Y022118D01*
X026406Y022106D01*
X026407Y022092D01*
Y022091D01*
Y022089D01*
Y022087D01*
Y022082D01*
X026406Y022078D01*
Y022072D01*
X026405Y022059D01*
X026401Y022044D01*
X026398Y022028D01*
X026392Y022011D01*
X026385Y021994D01*
Y021993D01*
X026384Y021992D01*
X026382Y02199D01*
X026381Y021987D01*
X026376Y021979D01*
X026369Y021969D01*
X026361Y021958D01*
X02635Y021947D01*
X026337Y021936D01*
X026323Y021926D01*
X026322D01*
X026321Y021925D01*
X026319Y021923D01*
X026316Y021922D01*
X026308Y021918D01*
X026297Y021914D01*
X026285Y021909D01*
X02627Y021906D01*
X026254Y021902D01*
X026237Y021902D01*
X026232D01*
X026229Y021902D01*
X026225D01*
X026219Y021903D01*
X026207Y021905D01*
X026193Y021908D01*
X026177Y021913D01*
X026161Y021919D01*
X026145Y021928D01*
X026144D01*
X026143Y02193D01*
X026138Y021933D01*
X026131Y02194D01*
X026122Y021948D01*
X026111Y02196D01*
X0261Y021973D01*
X026089Y021989D01*
X02608Y022007D01*
Y022008D01*
X026079Y02201D01*
X026077Y022012D01*
X026077Y022017D01*
X026075Y022022D01*
X026072Y022027D01*
X026071Y022034D01*
X026068Y022042D01*
X026064Y022058D01*
X02606Y022077D01*
X026057Y022099D01*
X026057Y022122D01*
Y022122D01*
Y022126D01*
Y022131D01*
X026057Y022137D01*
X026058Y022145D01*
X026059Y022154D01*
X02606Y022165D01*
X026062Y022177D01*
X026064Y022189D01*
X026067Y022202D01*
X026075Y022231D01*
X02608Y022246D01*
X026086Y022261D01*
X026092Y022275D01*
X0261Y02229D01*
X026101Y022291D01*
X026102Y022293D01*
X026104Y022297D01*
X026108Y022303D01*
X026112Y02231D01*
X026118Y022317D01*
X026124Y022326D01*
X026132Y022335D01*
X02614Y022345D01*
X026149Y022355D01*
X026159Y022365D01*
X02617Y022376D01*
X026182Y022386D01*
X026195Y022396D01*
X026209Y022405D01*
X026223Y022414D01*
X026224Y022415D01*
X026227Y022416D01*
X026232Y022418D01*
X026237Y022421D01*
X026245Y022425D01*
X026254Y022429D01*
X026265Y022433D01*
X026277Y022437D01*
X026289Y022441D01*
X026303Y022446D01*
X026319Y02245D01*
X026335Y022454D01*
X026352Y022456D01*
X02637Y022459D01*
X026389Y022461D01*
X026408Y022461D01*
Y022451D01*
D02*
G37*
G36*
X025424Y022461D02*
X025433Y02246D01*
X025444Y022457D01*
X025458Y022454D01*
X025473Y022448D01*
X025488Y02244D01*
X025503Y022429D01*
X025504D01*
X025505Y022427D01*
X02551Y022423D01*
X025518Y022416D01*
X025526Y022406D01*
X025536Y022394D01*
X025546Y02238D01*
X025555Y022362D01*
X025563Y022343D01*
Y022342D01*
X025564Y02234D01*
X025566Y022336D01*
X025568Y02233D01*
X025569Y022323D01*
X025572Y022315D01*
X025574Y022306D01*
X025577Y022295D01*
X025579Y022284D01*
X025582Y022272D01*
X025584Y022258D01*
X025586Y022244D01*
X025589Y022214D01*
X02559Y022182D01*
Y022181D01*
Y022178D01*
Y022174D01*
Y022168D01*
X025589Y022161D01*
Y022152D01*
X025588Y022143D01*
X025588Y022132D01*
X025584Y022109D01*
X02558Y022084D01*
X025574Y022057D01*
X025567Y022031D01*
Y02203D01*
X025566Y022029D01*
X025564Y022024D01*
X025561Y022016D01*
X025558Y022006D01*
X025552Y021995D01*
X025546Y021983D01*
X025538Y021972D01*
X02553Y021961D01*
X025529Y02196D01*
X025526Y021957D01*
X025522Y021952D01*
X025515Y021945D01*
X025508Y021938D01*
X025498Y021931D01*
X025489Y021924D01*
X025478Y021917D01*
X025477Y021917D01*
X025473Y021915D01*
X025468Y021913D01*
X02546Y02191D01*
X025451Y021907D01*
X02544Y021904D01*
X025429Y021902D01*
X025416Y021902D01*
X025409D01*
X025402Y021902D01*
X025393Y021904D01*
X025382Y021907D01*
X025369Y02191D01*
X025358Y021914D01*
X025345Y021921D01*
X025344Y021922D01*
X02534Y021924D01*
X025334Y021929D01*
X025327Y021936D01*
X025319Y021943D01*
X025309Y021953D01*
X025299Y021964D01*
X02529Y021977D01*
X025289Y021979D01*
X025288Y021982D01*
X025284Y021988D01*
X02528Y021997D01*
X025275Y022007D01*
X02527Y02202D01*
X025264Y022034D01*
X025259Y02205D01*
Y022051D01*
X025259Y022052D01*
X025258Y022056D01*
X025257Y022061D01*
X025255Y022066D01*
X025254Y022072D01*
X025253Y02208D01*
X025251Y022088D01*
X025248Y022107D01*
X025245Y022128D01*
X025244Y022151D01*
X025243Y022175D01*
Y022176D01*
Y022179D01*
Y022183D01*
Y02219D01*
X025244Y022197D01*
X025244Y022207D01*
Y022217D01*
X025246Y022228D01*
X025247Y02224D01*
X025249Y022252D01*
X025253Y02228D01*
X025259Y022307D01*
X025267Y022336D01*
Y022336D01*
X025268Y022338D01*
X025269Y022341D01*
X025271Y022346D01*
X025273Y022351D01*
X025275Y022356D01*
X025282Y02237D01*
X02529Y022385D01*
X025301Y022401D01*
X025314Y022416D01*
X025328Y022429D01*
X025329D01*
X025329Y022431D01*
X025332Y022432D01*
X025335Y022434D01*
X025344Y022439D01*
X025354Y022446D01*
X025368Y022451D01*
X025383Y022456D01*
X025399Y02246D01*
X025416Y022461D01*
X025421D01*
X025424Y022461D01*
D02*
G37*
G36*
X039035Y022273D02*
X039021D01*
Y022274D01*
X03902Y022277D01*
X039018Y022281D01*
X039016Y022286D01*
X039013Y022292D01*
X03901Y0223D01*
X039001Y022317D01*
X03899Y022336D01*
X038976Y022356D01*
X03896Y022374D01*
X038951Y022383D01*
X038941Y022391D01*
X03894Y022391D01*
X038939Y022392D01*
X038936Y022395D01*
X038932Y022397D01*
X038927Y0224D01*
X038921Y022404D01*
X038914Y022407D01*
X038907Y022411D01*
X038889Y022419D01*
X038869Y022425D01*
X038849Y02243D01*
X038837Y022431D01*
X038825Y022431D01*
X038819D01*
X038815Y022431D01*
X03881D01*
X038804Y02243D01*
X03879Y022427D01*
X038774Y022423D01*
X038757Y022417D01*
X03874Y022409D01*
X038724Y022397D01*
X038724D01*
X038723Y022396D01*
X038718Y022391D01*
X038711Y022383D01*
X038703Y022372D01*
X038693Y022359D01*
X038684Y022343D01*
X038675Y022324D01*
X038668Y022302D01*
Y022302D01*
X038667Y0223D01*
X038666Y022297D01*
X038665Y022292D01*
X038664Y022287D01*
X038663Y02228D01*
X038661Y022272D01*
X038659Y022264D01*
X038656Y022246D01*
X038654Y022225D01*
X038652Y022202D01*
X038651Y022178D01*
Y022177D01*
Y022175D01*
Y022171D01*
Y022165D01*
X038652Y022158D01*
Y022151D01*
X038653Y022142D01*
X038654Y022132D01*
X038655Y022111D01*
X038659Y022088D01*
X038664Y022065D01*
X038669Y022042D01*
Y022042D01*
X03867Y02204D01*
X038671Y022037D01*
X038673Y022033D01*
X038675Y022028D01*
X038678Y022022D01*
X038684Y02201D01*
X038692Y021996D01*
X038702Y021982D01*
X038714Y021968D01*
X038728Y021957D01*
X038729D01*
X038729Y021956D01*
X038732Y021954D01*
X038735Y021952D01*
X038744Y021948D01*
X038755Y021943D01*
X038769Y021938D01*
X038786Y021934D01*
X038804Y021931D01*
X038824Y02193D01*
X038832D01*
X038837Y021931D01*
X038843D01*
X038849Y021932D01*
X038864Y021934D01*
X038864D01*
X038867Y021935D01*
X038871Y021936D01*
X038877Y021937D01*
X038883Y021939D01*
X03889Y021941D01*
X038906Y021946D01*
Y022058D01*
Y02206D01*
Y022063D01*
Y022069D01*
X038905Y022075D01*
Y022082D01*
X038904Y022089D01*
X038903Y022095D01*
X038901Y022099D01*
Y0221D01*
X0389Y022101D01*
X038897Y022105D01*
X038892Y02211D01*
X038888Y022113D01*
X038883Y022116D01*
X038882D01*
X03888Y022117D01*
X038878Y022118D01*
X038874Y02212D01*
X038869Y022122D01*
X038864Y022122D01*
X03885Y022124D01*
X038837D01*
Y022138D01*
X039098D01*
Y022124D01*
X039097D01*
X039093Y022123D01*
X039088D01*
X039082Y022122D01*
X039068Y022119D01*
X039062Y022117D01*
X039056Y022115D01*
X039055D01*
X039054Y022114D01*
X039049Y02211D01*
X039043Y022104D01*
X039038Y022095D01*
X039038Y022093D01*
Y022091D01*
X039037Y022087D01*
X039036Y022082D01*
Y022077D01*
X039035Y022068D01*
Y022058D01*
Y021946D01*
X039034D01*
X039033Y021945D01*
X03903Y021943D01*
X039026Y021942D01*
X039022Y02194D01*
X039016Y021938D01*
X039003Y021933D01*
X038986Y021927D01*
X038968Y021922D01*
X038949Y021917D01*
X038928Y021912D01*
X038927D01*
X038925Y021911D01*
X038922D01*
X038918Y02191D01*
X038913Y021909D01*
X038907Y021908D01*
X0389Y021907D01*
X038893Y021906D01*
X038875Y021903D01*
X038855Y021902D01*
X038834Y021901D01*
X038812Y0219D01*
X038799D01*
X038793Y021901D01*
X038785D01*
X038777Y021902D01*
X038768Y021902D01*
X038748Y021905D01*
X038727Y021908D01*
X038705Y021913D01*
X038685Y02192D01*
X038684D01*
X038683Y021921D01*
X03868Y021922D01*
X038677Y021924D01*
X038667Y021928D01*
X038655Y021935D01*
X038641Y021942D01*
X038626Y021952D01*
X038611Y021962D01*
X038596Y021975D01*
Y021976D01*
X038594Y021977D01*
X038589Y021981D01*
X038583Y021988D01*
X038575Y021997D01*
X038565Y022009D01*
X038555Y022022D01*
X038545Y022036D01*
X038535Y022052D01*
Y022052D01*
X038535Y022054D01*
X038533Y022057D01*
X038531Y022062D01*
X038529Y022067D01*
X038527Y022072D01*
X038525Y02208D01*
X038522Y022087D01*
X038516Y022106D01*
X038512Y022127D01*
X038509Y022149D01*
X038508Y022174D01*
Y022176D01*
Y02218D01*
X038509Y022186D01*
X03851Y022194D01*
X03851Y022205D01*
X038512Y022217D01*
X038515Y022231D01*
X038519Y022246D01*
X038523Y022261D01*
X038529Y022277D01*
X038535Y022295D01*
X038544Y022311D01*
X038554Y022329D01*
X038565Y022346D01*
X038578Y022363D01*
X038593Y022379D01*
X038594Y02238D01*
X038597Y022382D01*
X038602Y022386D01*
X038609Y022392D01*
X038617Y022398D01*
X038627Y022406D01*
X038639Y022413D01*
X038652Y022421D01*
X038667Y022429D01*
X038683Y022436D01*
X038701Y022444D01*
X038719Y02245D01*
X03874Y022456D01*
X038761Y02246D01*
X038784Y022462D01*
X038808Y022463D01*
X038822D01*
X038832Y022462D01*
X038843Y022461D01*
X038855Y022461D01*
X03888Y022456D01*
X038881D01*
X038884Y022456D01*
X038888Y022455D01*
X038894Y022453D01*
X038902Y022451D01*
X038911Y022447D01*
X038923Y022443D01*
X038936Y022438D01*
X038937D01*
X038938Y022437D01*
X038943Y022436D01*
X038949Y022434D01*
X038957Y022431D01*
X038964Y022428D01*
X038972Y022426D01*
X038979Y022425D01*
X038983Y022424D01*
X038984D01*
X038989Y022425D01*
X038996Y022427D01*
X039003Y022431D01*
X039004Y022432D01*
X039004Y022433D01*
X039006Y022436D01*
X039008Y022439D01*
X039012Y022443D01*
X039014Y022448D01*
X039018Y022455D01*
X039021Y022463D01*
X039035D01*
Y022273D01*
D02*
G37*
G36*
X034659Y022273D02*
X034645D01*
Y022274D01*
X034644Y022277D01*
X034643Y022281D01*
X03464Y022286D01*
X034638Y022292D01*
X034634Y0223D01*
X034625Y022317D01*
X034614Y022336D01*
X0346Y022356D01*
X034584Y022374D01*
X034575Y022383D01*
X034565Y022391D01*
X034564Y022391D01*
X034563Y022392D01*
X03456Y022395D01*
X034556Y022397D01*
X034551Y0224D01*
X034545Y022404D01*
X034539Y022407D01*
X034531Y022411D01*
X034514Y022419D01*
X034494Y022425D01*
X034473Y02243D01*
X034461Y022431D01*
X034449Y022431D01*
X034444D01*
X034439Y022431D01*
X034434D01*
X034428Y02243D01*
X034415Y022427D01*
X034398Y022423D01*
X034381Y022417D01*
X034365Y022409D01*
X034349Y022397D01*
X034348D01*
X034347Y022396D01*
X034342Y022391D01*
X034335Y022383D01*
X034327Y022372D01*
X034317Y022359D01*
X034308Y022343D01*
X0343Y022324D01*
X034292Y022302D01*
Y022302D01*
X034291Y0223D01*
X03429Y022297D01*
X03429Y022292D01*
X034288Y022287D01*
X034287Y02228D01*
X034285Y022272D01*
X034284Y022264D01*
X03428Y022246D01*
X034278Y022225D01*
X034276Y022202D01*
X034275Y022178D01*
Y022177D01*
Y022175D01*
Y022171D01*
Y022165D01*
X034276Y022158D01*
Y022151D01*
X034277Y022142D01*
X034278Y022132D01*
X03428Y022111D01*
X034283Y022088D01*
X034288Y022065D01*
X034294Y022042D01*
Y022042D01*
X034295Y02204D01*
X034295Y022037D01*
X034297Y022033D01*
X0343Y022028D01*
X034302Y022022D01*
X034308Y02201D01*
X034316Y021996D01*
X034326Y021982D01*
X034338Y021968D01*
X034352Y021957D01*
X034353D01*
X034354Y021956D01*
X034356Y021954D01*
X03436Y021952D01*
X034368Y021948D01*
X03438Y021943D01*
X034394Y021938D01*
X03441Y021934D01*
X034429Y021931D01*
X034449Y02193D01*
X034456D01*
X034461Y021931D01*
X034467D01*
X034474Y021932D01*
X034488Y021934D01*
X034489D01*
X034491Y021935D01*
X034495Y021936D01*
X034501Y021937D01*
X034507Y021939D01*
X034514Y021941D01*
X03453Y021946D01*
Y022058D01*
Y02206D01*
Y022063D01*
Y022069D01*
X034529Y022075D01*
Y022082D01*
X034529Y022089D01*
X034527Y022095D01*
X034525Y022099D01*
Y0221D01*
X034524Y022101D01*
X034521Y022105D01*
X034516Y02211D01*
X034512Y022113D01*
X034507Y022116D01*
X034506D01*
X034504Y022117D01*
X034502Y022118D01*
X034498Y02212D01*
X034493Y022122D01*
X034488Y022122D01*
X034474Y022124D01*
X034461D01*
Y022138D01*
X034723D01*
Y022124D01*
X034721D01*
X034718Y022123D01*
X034713D01*
X034706Y022122D01*
X034692Y022119D01*
X034686Y022117D01*
X03468Y022115D01*
X034679D01*
X034679Y022114D01*
X034674Y02211D01*
X034668Y022104D01*
X034663Y022095D01*
X034662Y022093D01*
Y022091D01*
X034661Y022087D01*
X03466Y022082D01*
Y022077D01*
X034659Y022068D01*
Y022058D01*
Y021946D01*
X034659D01*
X034657Y021945D01*
X034654Y021943D01*
X03465Y021942D01*
X034646Y02194D01*
X03464Y021938D01*
X034627Y021933D01*
X03461Y021927D01*
X034592Y021922D01*
X034573Y021917D01*
X034552Y021912D01*
X034551D01*
X034549Y021911D01*
X034546D01*
X034542Y02191D01*
X034537Y021909D01*
X034531Y021908D01*
X034524Y021907D01*
X034517Y021906D01*
X034499Y021903D01*
X034479Y021902D01*
X034459Y021901D01*
X034436Y0219D01*
X034424D01*
X034417Y021901D01*
X034409D01*
X034401Y021902D01*
X034392Y021902D01*
X034372Y021905D01*
X034351Y021908D01*
X03433Y021913D01*
X03431Y02192D01*
X034309D01*
X034307Y021921D01*
X034305Y021922D01*
X034301Y021924D01*
X034291Y021928D01*
X03428Y021935D01*
X034265Y021942D01*
X03425Y021952D01*
X034235Y021962D01*
X03422Y021975D01*
Y021976D01*
X034219Y021977D01*
X034214Y021981D01*
X034207Y021988D01*
X034199Y021997D01*
X034189Y022009D01*
X034179Y022022D01*
X034169Y022036D01*
X03416Y022052D01*
Y022052D01*
X034159Y022054D01*
X034157Y022057D01*
X034155Y022062D01*
X034153Y022067D01*
X034151Y022072D01*
X034149Y02208D01*
X034146Y022087D01*
X03414Y022106D01*
X034136Y022127D01*
X034133Y022149D01*
X034132Y022174D01*
Y022176D01*
Y02218D01*
X034133Y022186D01*
X034134Y022194D01*
X034135Y022205D01*
X034136Y022217D01*
X03414Y022231D01*
X034143Y022246D01*
X034147Y022261D01*
X034153Y022277D01*
X03416Y022295D01*
X034168Y022311D01*
X034178Y022329D01*
X034189Y022346D01*
X034202Y022363D01*
X034217Y022379D01*
X034218Y02238D01*
X034221Y022382D01*
X034226Y022386D01*
X034233Y022392D01*
X034241Y022398D01*
X034251Y022406D01*
X034263Y022413D01*
X034276Y022421D01*
X034291Y022429D01*
X034307Y022436D01*
X034325Y022444D01*
X034344Y02245D01*
X034365Y022456D01*
X034385Y02246D01*
X034409Y022462D01*
X034432Y022463D01*
X034446D01*
X034456Y022462D01*
X034467Y022461D01*
X034479Y022461D01*
X034504Y022456D01*
X034505D01*
X034508Y022456D01*
X034512Y022455D01*
X034518Y022453D01*
X034526Y022451D01*
X034535Y022447D01*
X034547Y022443D01*
X03456Y022438D01*
X034561D01*
X034562Y022437D01*
X034567Y022436D01*
X034573Y022434D01*
X034581Y022431D01*
X034589Y022428D01*
X034596Y022426D01*
X034603Y022425D01*
X034607Y022424D01*
X034609D01*
X034614Y022425D01*
X03462Y022427D01*
X034627Y022431D01*
X034628Y022432D01*
X034629Y022433D01*
X03463Y022436D01*
X034633Y022439D01*
X034636Y022443D01*
X034639Y022448D01*
X034642Y022455D01*
X034645Y022463D01*
X034659D01*
Y022273D01*
D02*
G37*
G36*
X037288Y022436D02*
X037266D01*
X037262Y022436D01*
X037256D01*
X037243Y022432D01*
X037238Y022431D01*
X037232Y022427D01*
X03723Y022426D01*
X037226Y022423D01*
X037221Y022417D01*
X037216Y022409D01*
Y022408D01*
X037215Y022406D01*
X037214Y022404D01*
Y022399D01*
X037213Y022392D01*
X037213Y022384D01*
X037212Y022372D01*
Y022359D01*
Y022004D01*
Y022003D01*
Y022002D01*
Y021997D01*
Y021991D01*
X037213Y021982D01*
Y021973D01*
X037213Y021964D01*
X037214Y021957D01*
X037216Y021952D01*
Y021951D01*
X037217Y02195D01*
X03722Y021946D01*
X037225Y02194D01*
X037229Y021937D01*
X037233Y021934D01*
X037234D01*
X037236Y021933D01*
X037239Y021932D01*
X037243Y021931D01*
X037248Y021929D01*
X037254Y021927D01*
X037262Y021927D01*
X037288D01*
Y021913D01*
X037007D01*
Y021927D01*
X037028D01*
X037032Y021927D01*
X037038D01*
X03705Y02193D01*
X037056Y021932D01*
X037062Y021935D01*
X037063D01*
X037063Y021936D01*
X037068Y021939D01*
X037073Y021945D01*
X037078Y021953D01*
Y021954D01*
X037078Y021956D01*
X037079Y021958D01*
X03708Y021963D01*
X037081Y02197D01*
X037082Y021979D01*
X037083Y02199D01*
Y022004D01*
Y022172D01*
X036893D01*
Y022004D01*
Y022003D01*
Y022002D01*
Y021997D01*
Y021991D01*
X036894Y021982D01*
Y021973D01*
X036894Y021964D01*
X036895Y021957D01*
X036897Y021952D01*
Y021951D01*
X036898Y02195D01*
X036901Y021946D01*
X036906Y02194D01*
X03691Y021937D01*
X036914Y021934D01*
X036915D01*
X036917Y021933D01*
X03692Y021932D01*
X036923Y021931D01*
X036929Y021929D01*
X036935Y021927D01*
X036942Y021927D01*
X036968D01*
Y021913D01*
X036688D01*
Y021927D01*
X036709D01*
X036714Y021927D01*
X036719D01*
X036731Y02193D01*
X036737Y021932D01*
X036743Y021935D01*
X036744D01*
X036744Y021936D01*
X036749Y021939D01*
X036754Y021945D01*
X036759Y021953D01*
Y021954D01*
X036759Y021956D01*
X03676Y021958D01*
X036761Y021963D01*
X036762Y02197D01*
X036763Y021979D01*
X036764Y02199D01*
Y022004D01*
Y022359D01*
Y02236D01*
Y022361D01*
Y022366D01*
Y022372D01*
X036763Y022381D01*
Y022389D01*
X036762Y022397D01*
X03676Y022405D01*
X036759Y02241D01*
Y022411D01*
X036758Y022411D01*
X036755Y022416D01*
X036749Y022422D01*
X036746Y022426D01*
X036741Y022428D01*
X03674D01*
X036739Y02243D01*
X036736Y022431D01*
X036732Y022432D01*
X036727Y022434D01*
X03672Y022435D01*
X036714Y022436D01*
X036688D01*
Y022451D01*
X036968D01*
Y022436D01*
X036946D01*
X036942Y022436D01*
X036937D01*
X036924Y022432D01*
X036918Y022431D01*
X036913Y022427D01*
X036911Y022426D01*
X036907Y022423D01*
X036902Y022417D01*
X036897Y022409D01*
Y022408D01*
X036896Y022406D01*
X036895Y022404D01*
Y022399D01*
X036894Y022392D01*
X036894Y022384D01*
X036893Y022372D01*
Y022359D01*
Y022207D01*
X037083D01*
Y022359D01*
Y02236D01*
Y022361D01*
Y022366D01*
Y022372D01*
X037082Y022381D01*
Y022389D01*
X037081Y022397D01*
X037079Y022405D01*
X037078Y02241D01*
Y022411D01*
X037077Y022411D01*
X037074Y022416D01*
X037068Y022422D01*
X037065Y022426D01*
X03706Y022428D01*
X037059D01*
X037058Y02243D01*
X037054Y022431D01*
X037051Y022432D01*
X037045Y022434D01*
X037039Y022435D01*
X037032Y022436D01*
X037007D01*
Y022451D01*
X037288D01*
Y022436D01*
D02*
G37*
G36*
X03228D02*
X032259D01*
X032255Y022436D01*
X032249D01*
X032236Y022432D01*
X03223Y022431D01*
X032225Y022427D01*
X032223Y022426D01*
X032219Y022423D01*
X032214Y022417D01*
X032209Y022409D01*
Y022408D01*
X032208Y022406D01*
X032207Y022404D01*
Y022399D01*
X032206Y022392D01*
X032205Y022384D01*
X032205Y022372D01*
Y022359D01*
Y022004D01*
Y022003D01*
Y022002D01*
Y021997D01*
Y021991D01*
X032205Y021982D01*
Y021973D01*
X032206Y021964D01*
X032207Y021957D01*
X032209Y021952D01*
Y021951D01*
X03221Y02195D01*
X032213Y021946D01*
X032218Y02194D01*
X032222Y021937D01*
X032226Y021934D01*
X032227D01*
X032229Y021933D01*
X032232Y021932D01*
X032236Y021931D01*
X032241Y021929D01*
X032247Y021927D01*
X032255Y021927D01*
X03228D01*
Y021913D01*
X032D01*
Y021927D01*
X03202D01*
X032025Y021927D01*
X03203D01*
X032043Y02193D01*
X032049Y021932D01*
X032055Y021935D01*
X032055D01*
X032056Y021936D01*
X03206Y021939D01*
X032065Y021945D01*
X03207Y021953D01*
Y021954D01*
X032071Y021956D01*
X032072Y021958D01*
X032073Y021963D01*
X032074Y02197D01*
X032075Y021979D01*
X032075Y02199D01*
Y022004D01*
Y022172D01*
X031886D01*
Y022004D01*
Y022003D01*
Y022002D01*
Y021997D01*
Y021991D01*
X031886Y021982D01*
Y021973D01*
X031887Y021964D01*
X031888Y021957D01*
X03189Y021952D01*
Y021951D01*
X031891Y02195D01*
X031894Y021946D01*
X031899Y02194D01*
X031903Y021937D01*
X031907Y021934D01*
X031908D01*
X03191Y021933D01*
X031913Y021932D01*
X031916Y021931D01*
X031922Y021929D01*
X031928Y021927D01*
X031935Y021927D01*
X031961D01*
Y021913D01*
X031681Y021912D01*
Y021927D01*
X031702D01*
X031706Y021927D01*
X031711D01*
X031724Y02193D01*
X03173Y021932D01*
X031736Y021935D01*
X031736D01*
X031737Y021936D01*
X031741Y021939D01*
X031747Y021945D01*
X031751Y021953D01*
Y021954D01*
X031752Y021956D01*
X031753Y021958D01*
X031754Y021963D01*
X031755Y02197D01*
X031756Y021979D01*
X031756Y02199D01*
Y022004D01*
Y022359D01*
Y02236D01*
Y022361D01*
Y022366D01*
Y022372D01*
X031756Y022381D01*
Y022389D01*
X031755Y022397D01*
X031753Y022405D01*
X031751Y02241D01*
Y022411D01*
X031751Y022411D01*
X031748Y022416D01*
X031742Y022422D01*
X031739Y022426D01*
X031734Y022428D01*
X031733D01*
X031731Y02243D01*
X031729Y022431D01*
X031725Y022432D01*
X03172Y022434D01*
X031713Y022435D01*
X031706Y022436D01*
X031681D01*
Y022451D01*
X031961Y022451D01*
Y022436D01*
X031939D01*
X031935Y022436D01*
X03193D01*
X031917Y022432D01*
X031911Y022431D01*
X031906Y022427D01*
X031904Y022426D01*
X0319Y022423D01*
X031895Y022417D01*
X03189Y022409D01*
Y022408D01*
X031889Y022406D01*
X031888Y022404D01*
Y022399D01*
X031887Y022392D01*
X031886Y022384D01*
X031886Y022372D01*
Y022359D01*
Y022207D01*
X032075D01*
Y022359D01*
Y02236D01*
Y022361D01*
Y022366D01*
Y022372D01*
X032075Y022381D01*
Y022389D01*
X032074Y022397D01*
X032072Y022405D01*
X03207Y02241D01*
Y022411D01*
X03207Y022411D01*
X032067Y022416D01*
X032061Y022422D01*
X032058Y022426D01*
X032053Y022428D01*
X032052D01*
X03205Y02243D01*
X032047Y022431D01*
X032044Y022432D01*
X032038Y022434D01*
X032032Y022435D01*
X032025Y022436D01*
X032D01*
Y022451D01*
X03228D01*
Y022436D01*
D02*
G37*
G36*
X030093Y022436D02*
X030071D01*
X030067Y022436D01*
X030061D01*
X030049Y022432D01*
X030043Y022431D01*
X030037Y022427D01*
X030035Y022426D01*
X030031Y022423D01*
X030026Y022417D01*
X030021Y022409D01*
Y022408D01*
X03002Y022406D01*
X03002Y022404D01*
Y022399D01*
X030019Y022392D01*
X030018Y022384D01*
X030017Y022372D01*
Y022359D01*
Y022004D01*
Y022003D01*
Y022002D01*
Y021997D01*
Y021991D01*
X030018Y021982D01*
Y021973D01*
X030019Y021964D01*
X03002Y021957D01*
X030021Y021952D01*
Y021951D01*
X030022Y02195D01*
X030025Y021946D01*
X03003Y02194D01*
X030035Y021937D01*
X030039Y021934D01*
X03004D01*
X030041Y021933D01*
X030045Y021932D01*
X030049Y021931D01*
X030054Y021929D01*
X03006Y021927D01*
X030067Y021927D01*
X030093D01*
Y021912D01*
X029812D01*
Y021927D01*
X029833D01*
X029837Y021927D01*
X029843D01*
X029855Y02193D01*
X029861Y021932D01*
X029867Y021935D01*
X029868D01*
X029869Y021936D01*
X029873Y021939D01*
X029878Y021945D01*
X029883Y021953D01*
Y021954D01*
X029884Y021956D01*
X029885Y021958D01*
X029885Y021963D01*
X029886Y02197D01*
X029887Y021979D01*
X029888Y02199D01*
Y022004D01*
Y022172D01*
X029698D01*
Y022004D01*
Y022003D01*
Y022002D01*
Y021997D01*
Y021991D01*
X029699Y021982D01*
Y021973D01*
X0297Y021964D01*
X029701Y021957D01*
X029702Y021952D01*
Y021951D01*
X029703Y02195D01*
X029706Y021946D01*
X029711Y02194D01*
X029716Y021937D01*
X02972Y021934D01*
X029721D01*
X029722Y021933D01*
X029726Y021932D01*
X029729Y021931D01*
X029735Y021929D01*
X029741Y021927D01*
X029747Y021927D01*
X029774D01*
Y021912D01*
X029493D01*
Y021927D01*
X029515D01*
X029519Y021927D01*
X029524D01*
X029536Y02193D01*
X029542Y021932D01*
X029548Y021935D01*
X029549D01*
X02955Y021936D01*
X029554Y021939D01*
X02956Y021945D01*
X029564Y021953D01*
Y021954D01*
X029565Y021956D01*
X029566Y021958D01*
X029566Y021963D01*
X029567Y02197D01*
X029568Y021979D01*
X029569Y02199D01*
Y022004D01*
Y022359D01*
Y02236D01*
Y022361D01*
Y022366D01*
Y022372D01*
X029568Y022381D01*
Y022389D01*
X029567Y022397D01*
X029566Y022405D01*
X029564Y02241D01*
Y022411D01*
X029563Y022411D01*
X029561Y022416D01*
X029555Y022422D01*
X029551Y022426D01*
X029546Y022428D01*
X029546D01*
X029544Y02243D01*
X029541Y022431D01*
X029537Y022432D01*
X029532Y022434D01*
X029526Y022435D01*
X029519Y022436D01*
X029493D01*
Y022451D01*
X029774D01*
Y022436D01*
X029751D01*
X029747Y022436D01*
X029742D01*
X02973Y022432D01*
X029724Y022431D01*
X029718Y022427D01*
X029716Y022426D01*
X029712Y022423D01*
X029707Y022417D01*
X029702Y022409D01*
Y022408D01*
X029701Y022406D01*
X029701Y022404D01*
Y022399D01*
X0297Y022392D01*
X029699Y022384D01*
X029698Y022372D01*
Y022359D01*
Y022207D01*
X029888D01*
Y022359D01*
Y02236D01*
Y022361D01*
Y022366D01*
Y022372D01*
X029887Y022381D01*
Y022389D01*
X029886Y022397D01*
X029885Y022405D01*
X029883Y02241D01*
Y022411D01*
X029882Y022411D01*
X02988Y022416D01*
X029874Y022422D01*
X02987Y022426D01*
X029865Y022428D01*
X029865D01*
X029863Y02243D01*
X02986Y022431D01*
X029856Y022432D01*
X02985Y022434D01*
X029845Y022435D01*
X029837Y022436D01*
X029812D01*
Y022451D01*
X030093D01*
Y022436D01*
D02*
G37*
G36*
X036653Y022436D02*
X036652D01*
X036648Y022436D01*
X036643D01*
X036637Y022434D01*
X036622Y022431D01*
X036615Y022428D01*
X036609Y022426D01*
X036608Y022425D01*
X036605Y022424D01*
X0366Y022421D01*
X036594Y022416D01*
X036584Y022409D01*
X036578Y022404D01*
X03657Y022399D01*
X036563Y022393D01*
X036554Y022386D01*
X036545Y022379D01*
X036534Y022371D01*
X036378Y022244D01*
X036566Y022007D01*
X036567Y022006D01*
X036568Y022004D01*
X03657Y022002D01*
X036573Y021998D01*
X03658Y02199D01*
X036589Y021979D01*
X0366Y021968D01*
X036612Y021957D01*
X036624Y021947D01*
X036635Y021939D01*
X036636Y021938D01*
X036639Y021937D01*
X036643Y021935D01*
X036649Y021933D01*
X036655Y021931D01*
X036663Y021928D01*
X036671Y021927D01*
X036679Y021927D01*
Y021913D01*
X0364D01*
Y021927D01*
X036405D01*
X03641Y021927D01*
X036415Y021928D01*
X036426Y021931D01*
X036431Y021932D01*
X036435Y021934D01*
X036435Y021935D01*
X036439Y021938D01*
X036441Y021943D01*
X036442Y021949D01*
Y02195D01*
X036441Y021952D01*
X03644Y021957D01*
X036438Y021963D01*
X036433Y021972D01*
X036426Y021983D01*
X036418Y021997D01*
X036412Y022004D01*
X036405Y022012D01*
X036283Y022167D01*
X036263Y022151D01*
Y022004D01*
Y022003D01*
Y022002D01*
Y021997D01*
Y02199D01*
X036264Y021982D01*
Y021972D01*
X036265Y021964D01*
X036265Y021957D01*
X036267Y021951D01*
Y02195D01*
X036268Y021949D01*
X036271Y021945D01*
X036277Y021939D01*
X036285Y021933D01*
X036286D01*
X036288Y021932D01*
X036291Y021932D01*
X036296Y02193D01*
X036302Y021929D01*
X03631Y021927D01*
X036319Y021927D01*
X03633D01*
Y021913D01*
X036058D01*
Y021927D01*
X03608D01*
X036084Y021927D01*
X036089D01*
X036101Y02193D01*
X036107Y021932D01*
X036113Y021935D01*
X036114D01*
X036115Y021936D01*
X036119Y021939D01*
X036125Y021945D01*
X036129Y021953D01*
Y021954D01*
X03613Y021956D01*
X03613Y021958D01*
X036131Y021963D01*
X036132Y02197D01*
X036133Y021979D01*
X036134Y02199D01*
Y022004D01*
Y022359D01*
Y02236D01*
Y022361D01*
Y022366D01*
Y022372D01*
X036133Y022381D01*
Y022389D01*
X036132Y022397D01*
X03613Y022405D01*
X036129Y02241D01*
Y022411D01*
X036128Y022411D01*
X036125Y022416D01*
X03612Y022422D01*
X036116Y022426D01*
X036111Y022428D01*
X03611D01*
X036109Y02243D01*
X036106Y022431D01*
X036102Y022432D01*
X036097Y022434D01*
X036091Y022435D01*
X036084Y022436D01*
X036058D01*
Y022451D01*
X036325D01*
Y022436D01*
X036316D01*
X03631Y022436D01*
X036296Y022433D01*
X03629Y022431D01*
X036284Y022428D01*
X036283D01*
X036282Y022427D01*
X036278Y022424D01*
X036272Y022418D01*
X036267Y02241D01*
Y022409D01*
X036266Y022407D01*
X036265Y022405D01*
Y0224D01*
X036265Y022393D01*
X036264Y022384D01*
X036263Y022373D01*
Y022359D01*
Y022191D01*
X036462Y022351D01*
X036463D01*
X036464Y022353D01*
X036469Y022357D01*
X036475Y022363D01*
X036483Y022371D01*
X03649Y02238D01*
X036497Y022389D01*
X036502Y022398D01*
X036503Y022402D01*
X036504Y022406D01*
Y022407D01*
Y022409D01*
X036503Y022411D01*
X036502Y022415D01*
X0365Y022419D01*
X036497Y022423D01*
X036493Y022427D01*
X036487Y022431D01*
X036486D01*
X036485Y022431D01*
X036482Y022432D01*
X036478Y022433D01*
X036473Y022434D01*
X036465Y022435D01*
X036455Y022436D01*
X036444Y022436D01*
Y022451D01*
X036653D01*
Y022436D01*
D02*
G37*
G36*
X038455Y022436D02*
X038454D01*
X03845Y022436D01*
X038444Y022435D01*
X038436Y022433D01*
X038421Y022429D01*
X038414Y022426D01*
X038409Y022424D01*
X038408D01*
X038407Y022422D01*
X038402Y022419D01*
X038396Y022411D01*
X038393Y022407D01*
X03839Y022401D01*
Y022401D01*
X03839Y022399D01*
X038389Y022395D01*
X038388Y022389D01*
X038386Y022381D01*
X038385Y022372D01*
X038385Y022361D01*
Y022348D01*
Y0219D01*
X03837D01*
X038009Y022348D01*
Y022006D01*
Y022005D01*
Y022004D01*
Y022002D01*
Y021998D01*
X03801Y02199D01*
X038011Y021981D01*
X038014Y02197D01*
X038018Y021959D01*
X038023Y02195D01*
X03803Y021942D01*
X038031Y021942D01*
X038033Y02194D01*
X038038Y021937D01*
X038044Y021935D01*
X038051Y021932D01*
X038059Y021929D01*
X038068Y021927D01*
X038078Y021927D01*
X038091D01*
Y021913D01*
X037901D01*
Y021927D01*
X037908D01*
X037916Y021927D01*
X037925Y021929D01*
X037935Y021931D01*
X037946Y021934D01*
X037955Y021938D01*
X037962Y021944D01*
X037963Y021945D01*
X037965Y021947D01*
X037968Y021952D01*
X037971Y021959D01*
X037974Y021967D01*
X037977Y021978D01*
X037979Y021991D01*
X03798Y022006D01*
Y022386D01*
X037968Y0224D01*
X037967Y022401D01*
X037966Y022403D01*
X037962Y022407D01*
X037958Y022411D01*
X037948Y022421D01*
X037942Y022425D01*
X037937Y022428D01*
X037936D01*
X037935Y022429D01*
X037932Y022431D01*
X037928Y022432D01*
X037922Y022433D01*
X037916Y022435D01*
X037909Y022436D01*
X0379Y022436D01*
Y022451D01*
X038091D01*
X038355Y022117D01*
Y022348D01*
Y022349D01*
Y022351D01*
Y022353D01*
Y022356D01*
X038355Y022364D01*
X038354Y022375D01*
X038352Y022386D01*
X03835Y022396D01*
X038346Y022406D01*
X038341Y022414D01*
X03834Y022415D01*
X038338Y022417D01*
X038333Y022421D01*
X038326Y022426D01*
X038317Y022429D01*
X038306Y022433D01*
X038294Y022436D01*
X038278Y022436D01*
Y022451D01*
X038455D01*
Y022436D01*
D02*
G37*
G36*
X03408Y022436D02*
X034078D01*
X034074Y022436D01*
X034068Y022435D01*
X03406Y022433D01*
X034045Y022429D01*
X034038Y022426D01*
X034033Y022424D01*
X034032D01*
X034031Y022422D01*
X034026Y022419D01*
X03402Y022411D01*
X034017Y022407D01*
X034015Y022401D01*
Y022401D01*
X034014Y022399D01*
X034013Y022395D01*
X034012Y022389D01*
X034011Y022381D01*
X03401Y022372D01*
X034009Y022361D01*
Y022348D01*
Y0219D01*
X033995D01*
X033633Y022348D01*
Y022006D01*
Y022005D01*
Y022004D01*
Y022002D01*
Y021998D01*
X033634Y02199D01*
X033636Y021981D01*
X033638Y02197D01*
X033642Y021959D01*
X033647Y02195D01*
X033654Y021942D01*
X033655Y021942D01*
X033657Y02194D01*
X033662Y021937D01*
X033668Y021935D01*
X033675Y021932D01*
X033683Y021929D01*
X033692Y021927D01*
X033702Y021927D01*
X033716D01*
Y021913D01*
X033525D01*
Y021927D01*
X033532D01*
X03354Y021927D01*
X033549Y021929D01*
X033559Y021931D01*
X03357Y021934D01*
X033579Y021938D01*
X033586Y021944D01*
X033587Y021945D01*
X033589Y021947D01*
X033592Y021952D01*
X033596Y021959D01*
X033598Y021967D01*
X033601Y021978D01*
X033603Y021991D01*
X033604Y022006D01*
Y022386D01*
X033592Y0224D01*
X033591Y022401D01*
X03359Y022403D01*
X033586Y022407D01*
X033582Y022411D01*
X033572Y022421D01*
X033567Y022425D01*
X033562Y022428D01*
X033561D01*
X033559Y022429D01*
X033557Y022431D01*
X033552Y022432D01*
X033547Y022433D01*
X033541Y022435D01*
X033533Y022436D01*
X033524Y022436D01*
Y022451D01*
X033715D01*
X03398Y022117D01*
Y022348D01*
Y022349D01*
Y022351D01*
Y022353D01*
Y022356D01*
X033979Y022364D01*
X033978Y022375D01*
X033976Y022386D01*
X033974Y022396D01*
X033971Y022406D01*
X033966Y022414D01*
X033965Y022415D01*
X033962Y022417D01*
X033957Y022421D01*
X033951Y022426D01*
X033941Y022429D01*
X033931Y022433D01*
X033918Y022436D01*
X033902Y022436D01*
Y022451D01*
X03408D01*
Y022436D01*
D02*
G37*
G36*
X031446Y022436D02*
X031424D01*
X03142Y022436D01*
X031414D01*
X031402Y022432D01*
X031396Y022431D01*
X03139Y022427D01*
X031388Y022426D01*
X031384Y022423D01*
X031379Y022417D01*
X031374Y022409D01*
Y022408D01*
X031373Y022406D01*
X031372Y022404D01*
Y022399D01*
X031372Y022392D01*
X031371Y022384D01*
X03137Y022372D01*
Y022359D01*
Y022004D01*
Y022003D01*
Y022002D01*
Y021997D01*
Y021991D01*
X031371Y021982D01*
Y021973D01*
X031372Y021964D01*
X031372Y021957D01*
X031374Y021952D01*
Y021951D01*
X031375Y02195D01*
X031378Y021946D01*
X031383Y02194D01*
X031387Y021937D01*
X031392Y021934D01*
X031392D01*
X031394Y021933D01*
X031397Y021932D01*
X031402Y021931D01*
X031407Y021929D01*
X031412Y021927D01*
X03142Y021927D01*
X031446D01*
Y021912D01*
X031165D01*
Y021927D01*
X031186D01*
X03119Y021927D01*
X031196D01*
X031208Y02193D01*
X031214Y021932D01*
X03122Y021935D01*
X031221D01*
X031222Y021936D01*
X031226Y021939D01*
X031231Y021945D01*
X031236Y021953D01*
Y021954D01*
X031237Y021956D01*
X031237Y021958D01*
X031238Y021963D01*
X031239Y02197D01*
X03124Y021979D01*
X031241Y02199D01*
Y022004D01*
Y022402D01*
X031034Y021912D01*
X031025D01*
X030815Y022399D01*
Y022021D01*
Y02202D01*
Y022019D01*
Y022014D01*
Y022007D01*
Y022D01*
X030816Y021992D01*
Y021983D01*
X030817Y021977D01*
X030818Y021972D01*
Y021971D01*
X030818Y021968D01*
X03082Y021965D01*
X030823Y02196D01*
X030825Y021955D01*
X030829Y021949D01*
X030833Y021944D01*
X030839Y021939D01*
X03084Y021938D01*
X030843Y021937D01*
X030847Y021935D01*
X030853Y021933D01*
X03086Y021931D01*
X030869Y021928D01*
X030881Y021927D01*
X030893Y021927D01*
Y021912D01*
X030709D01*
Y021927D01*
X030726D01*
X030737Y021928D01*
X030748Y021932D01*
X030749D01*
X030751Y021932D01*
X030754Y021934D01*
X030758Y021937D01*
X030765Y021942D01*
X030772Y021948D01*
Y021949D01*
X030773Y02195D01*
X030774Y021952D01*
X030777Y021956D01*
X030778Y02196D01*
X030781Y021965D01*
X030784Y021977D01*
Y021979D01*
Y021981D01*
X030785Y021985D01*
Y02199D01*
Y021997D01*
Y022007D01*
Y022019D01*
Y022359D01*
Y02236D01*
Y022361D01*
Y022366D01*
Y022372D01*
X030784Y022381D01*
Y022389D01*
X030783Y022397D01*
X030783Y022405D01*
X030781Y02241D01*
Y022411D01*
X03078Y022411D01*
X030777Y022416D01*
X030772Y022422D01*
X030768Y022426D01*
X030763Y022428D01*
X030762D01*
X03076Y02243D01*
X030758Y022431D01*
X030753Y022432D01*
X030748Y022434D01*
X030742Y022435D01*
X030735Y022436D01*
X030709D01*
Y022451D01*
X030929D01*
X031081Y022096D01*
X031227Y022451D01*
X031446D01*
Y022436D01*
D02*
G37*
G36*
X035512Y022436D02*
X035511D01*
X035507Y022436D01*
X035502Y022433D01*
X035495Y022431D01*
X035487Y022426D01*
X035478Y022421D01*
X035469Y022414D01*
X03546Y022405D01*
X035459Y022404D01*
X035457Y022401D01*
X035453Y022395D01*
X035451Y022391D01*
X035447Y022386D01*
X035444Y02238D01*
X035441Y022373D01*
X035437Y022366D01*
X035432Y022356D01*
X035427Y022347D01*
X035422Y022336D01*
X035417Y022324D01*
X035411Y022311D01*
X035226Y0219D01*
X035212D01*
X035028Y022327D01*
Y022328D01*
X035027Y022331D01*
X035025Y022335D01*
X035023Y02234D01*
X03502Y022346D01*
X035018Y022353D01*
X03501Y022368D01*
X035003Y022384D01*
X034995Y022399D01*
X034992Y022406D01*
X034988Y022411D01*
X034986Y022416D01*
X034983Y022419D01*
X034983Y02242D01*
X034981Y022421D01*
X034978Y022423D01*
X034974Y022426D01*
X034968Y022429D01*
X034961Y022432D01*
X034952Y022435D01*
X034941Y022436D01*
Y022451D01*
X035198D01*
Y022436D01*
X035184D01*
X035178Y022436D01*
X035171D01*
X035155Y022432D01*
X035148Y022431D01*
X035143Y022427D01*
X035141Y022426D01*
X035138Y022423D01*
X035135Y022417D01*
X035134Y022414D01*
X035133Y02241D01*
Y022408D01*
Y022405D01*
X035134Y022399D01*
X035136Y022392D01*
Y022391D01*
X035137Y02239D01*
X035138Y022387D01*
X03514Y022382D01*
X035143Y022376D01*
X035147Y022366D01*
X035152Y022355D01*
X035158Y022341D01*
X035272Y022072D01*
X035378Y022311D01*
Y022311D01*
X035379Y022312D01*
X035382Y022317D01*
X035385Y022325D01*
X035389Y022334D01*
X035393Y022344D01*
X035397Y022354D01*
X0354Y022362D01*
X035402Y022369D01*
Y02237D01*
X035403Y022371D01*
X035404Y022374D01*
X035405Y022378D01*
X035406Y022386D01*
X035407Y022394D01*
Y022395D01*
Y022396D01*
X035406Y022401D01*
X035404Y022408D01*
X0354Y022416D01*
Y022416D01*
X035399Y022417D01*
X035396Y022421D01*
X03539Y022425D01*
X035382Y022429D01*
X035381D01*
X035378Y02243D01*
X035375Y022431D01*
X03537Y022433D01*
X035363Y022434D01*
X035356Y022436D01*
X035347Y022436D01*
X035337D01*
Y022451D01*
X035512D01*
Y022436D01*
D02*
G37*
G36*
X041552Y022461D02*
X041562Y022459D01*
X041573Y022456D01*
X041586Y022453D01*
X041599Y022449D01*
X041612Y022442D01*
X041613Y022441D01*
X041617Y022439D01*
X041623Y022435D01*
X041631Y022429D01*
X04164Y022421D01*
X041648Y022412D01*
X041657Y022401D01*
X041665Y02239D01*
X041666Y022388D01*
X041668Y022384D01*
X041671Y022378D01*
X041675Y02237D01*
X041678Y02236D01*
X041681Y02235D01*
X041683Y022339D01*
X041684Y022328D01*
Y022327D01*
Y022326D01*
Y022323D01*
X041683Y022319D01*
Y022314D01*
X041682Y022308D01*
X041681Y022295D01*
X041677Y022278D01*
X041672Y022261D01*
X041664Y022241D01*
X041654Y022221D01*
X041653Y02222D01*
X041652Y022217D01*
X04165Y022213D01*
X041646Y022207D01*
X041641Y0222D01*
X041634Y022191D01*
X041627Y02218D01*
X041617Y022167D01*
X041607Y022154D01*
X041594Y022139D01*
X04158Y022122D01*
X041563Y022104D01*
X041546Y022084D01*
X041526Y022063D01*
X041503Y022041D01*
X041479Y022017D01*
X04161D01*
X041618Y022017D01*
X041628D01*
X041637Y022018D01*
X041645Y022019D01*
X041651Y02202D01*
X041652D01*
X041653Y022021D01*
X041658Y022022D01*
X041666Y022027D01*
X041672Y022032D01*
Y022032D01*
X041674Y022033D01*
X041676Y022036D01*
X041678Y02204D01*
X041682Y022045D01*
X041685Y022051D01*
X041689Y022059D01*
X041694Y022068D01*
X041709D01*
X041678Y021913D01*
X041363D01*
Y021921D01*
X041363Y021922D01*
X041364Y021922D01*
X041366Y021925D01*
X041369Y021928D01*
X041376Y021937D01*
X041386Y021949D01*
X041398Y021962D01*
X04141Y021979D01*
X041424Y021997D01*
X041439Y022015D01*
X04147Y022054D01*
X041484Y022073D01*
X041498Y022092D01*
X041512Y02211D01*
X041522Y022127D01*
X041532Y022142D01*
X041539Y022154D01*
Y022155D01*
X041541Y022157D01*
X041542Y02216D01*
X041544Y022164D01*
X041547Y02217D01*
X041549Y022176D01*
X041552Y022183D01*
X041555Y022192D01*
X04156Y022209D01*
X041565Y022228D01*
X041568Y022249D01*
X04157Y022271D01*
Y022272D01*
Y022272D01*
Y022277D01*
X041568Y022286D01*
X041567Y022295D01*
X041563Y022306D01*
X041559Y022317D01*
X041552Y022329D01*
X041544Y02234D01*
X041543Y022341D01*
X041539Y022344D01*
X041534Y022349D01*
X041527Y022354D01*
X041517Y022359D01*
X041507Y022364D01*
X041494Y022367D01*
X041481Y022368D01*
X041475D01*
X041471Y022367D01*
X041466Y022366D01*
X04146Y022365D01*
X041447Y022361D01*
X041439Y022357D01*
X041431Y022353D01*
X041423Y022348D01*
X041416Y022342D01*
X041408Y022335D01*
X0414Y022327D01*
X041393Y022317D01*
X041387Y022307D01*
X041372Y022311D01*
Y022312D01*
X041373Y022315D01*
X041374Y022319D01*
X041376Y022324D01*
X041378Y022331D01*
X041381Y022337D01*
X041388Y022355D01*
X041398Y022373D01*
X041408Y022391D01*
X041422Y02241D01*
X041429Y022417D01*
X041437Y022425D01*
X041438Y022426D01*
X041438Y022426D01*
X041441Y022428D01*
X041444Y022431D01*
X041448Y022433D01*
X041453Y022436D01*
X041466Y022443D01*
X04148Y02245D01*
X041498Y022456D01*
X041517Y02246D01*
X041527Y022461D01*
X041544D01*
X041552Y022461D01*
D02*
G37*
G36*
X041201Y022022D02*
Y022021D01*
Y022019D01*
Y022017D01*
Y022013D01*
Y022005D01*
X041202Y021995D01*
Y021984D01*
X041203Y021973D01*
X041203Y021964D01*
X041204Y021961D01*
X041205Y021957D01*
Y021957D01*
X041206Y021955D01*
X041207Y021952D01*
X041209Y02195D01*
X041214Y021942D01*
X041218Y021938D01*
X041223Y021935D01*
X041223D01*
X041225Y021933D01*
X041228Y021932D01*
X041233Y021931D01*
X04124Y021929D01*
X041248Y021928D01*
X041257Y021927D01*
X04128D01*
Y021913D01*
X040997D01*
Y021927D01*
X041017D01*
X041023Y021927D01*
X04103D01*
X041046Y02193D01*
X041054Y021932D01*
X041059Y021934D01*
X04106D01*
X041062Y021936D01*
X041068Y02194D01*
X041074Y021947D01*
X041077Y021951D01*
X041079Y021956D01*
Y021957D01*
X04108Y021959D01*
X041081Y021963D01*
X041083Y021969D01*
X041083Y021978D01*
X041084Y02199D01*
X041085Y022004D01*
Y022012D01*
Y022022D01*
Y022301D01*
Y022302D01*
Y022302D01*
Y022307D01*
Y022313D01*
X041084Y022321D01*
Y022328D01*
X041083Y022336D01*
X041083Y022342D01*
X041081Y022347D01*
Y022348D01*
X04108Y022349D01*
X041079Y022353D01*
X041074Y022358D01*
X041068Y022363D01*
X041066Y022364D01*
X041062Y022366D01*
X041054Y022369D01*
X041045Y02237D01*
X041042D01*
X041038Y022369D01*
X041032Y022368D01*
X041024Y022366D01*
X041016Y022365D01*
X041007Y022361D01*
X040996Y022357D01*
X040989Y022371D01*
X041188Y022461D01*
X041201D01*
Y022022D01*
D02*
G37*
G36*
X040388D02*
Y022021D01*
Y022019D01*
Y022017D01*
Y022013D01*
Y022005D01*
X040389Y021995D01*
Y021984D01*
X04039Y021973D01*
X04039Y021964D01*
X040391Y021961D01*
X040392Y021957D01*
Y021957D01*
X040393Y021955D01*
X040394Y021952D01*
X040396Y02195D01*
X040401Y021942D01*
X040405Y021938D01*
X04041Y021935D01*
X04041D01*
X040412Y021933D01*
X040415Y021932D01*
X04042Y021931D01*
X040427Y021929D01*
X040435Y021928D01*
X040444Y021927D01*
X040467D01*
Y021913D01*
X040184D01*
Y021927D01*
X040204D01*
X04021Y021927D01*
X040217D01*
X040233Y02193D01*
X040241Y021932D01*
X040246Y021934D01*
X040247D01*
X040249Y021936D01*
X040255Y02194D01*
X040261Y021947D01*
X040264Y021951D01*
X040266Y021956D01*
Y021957D01*
X040267Y021959D01*
X040268Y021963D01*
X04027Y021969D01*
X04027Y021978D01*
X040271Y02199D01*
X040272Y022004D01*
Y022012D01*
Y022022D01*
Y022301D01*
Y022302D01*
Y022302D01*
Y022307D01*
Y022313D01*
X040271Y022321D01*
Y022328D01*
X04027Y022336D01*
X04027Y022342D01*
X040268Y022347D01*
Y022348D01*
X040267Y022349D01*
X040265Y022353D01*
X040261Y022358D01*
X040255Y022363D01*
X040253Y022364D01*
X040249Y022366D01*
X040241Y022369D01*
X040232Y02237D01*
X040229D01*
X040225Y022369D01*
X040219Y022368D01*
X040211Y022366D01*
X040203Y022365D01*
X040194Y022361D01*
X040183Y022357D01*
X040176Y022371D01*
X040375Y022461D01*
X040388D01*
Y022022D01*
D02*
G37*
G36*
X03952Y022461D02*
X03953Y022459D01*
X039541Y022456D01*
X039553Y022453D01*
X039567Y022449D01*
X039579Y022442D01*
X039581Y022441D01*
X039585Y022439D01*
X039591Y022435D01*
X039598Y022429D01*
X039607Y022421D01*
X039616Y022412D01*
X039625Y022401D01*
X039632Y02239D01*
X039633Y022388D01*
X039636Y022384D01*
X039638Y022378D01*
X039642Y02237D01*
X039646Y02236D01*
X039648Y02235D01*
X039651Y022339D01*
X039652Y022328D01*
Y022327D01*
Y022326D01*
Y022323D01*
X039651Y022319D01*
Y022314D01*
X03965Y022308D01*
X039648Y022295D01*
X039644Y022278D01*
X039639Y022261D01*
X039632Y022241D01*
X039622Y022221D01*
X039621Y02222D01*
X03962Y022217D01*
X039617Y022213D01*
X039613Y022207D01*
X039608Y0222D01*
X039602Y022191D01*
X039594Y02218D01*
X039585Y022167D01*
X039574Y022154D01*
X039562Y022139D01*
X039547Y022122D01*
X039531Y022104D01*
X039513Y022084D01*
X039493Y022063D01*
X039471Y022041D01*
X039447Y022017D01*
X039577D01*
X039586Y022017D01*
X039596D01*
X039604Y022018D01*
X039612Y022019D01*
X039618Y02202D01*
X039619D01*
X039621Y022021D01*
X039626Y022022D01*
X039633Y022027D01*
X03964Y022032D01*
Y022032D01*
X039642Y022033D01*
X039643Y022036D01*
X039646Y02204D01*
X039649Y022045D01*
X039652Y022051D01*
X039657Y022059D01*
X039662Y022068D01*
X039677D01*
X039646Y021913D01*
X03933D01*
Y021921D01*
X039331Y021922D01*
X039332Y021922D01*
X039333Y021925D01*
X039337Y021928D01*
X039343Y021937D01*
X039353Y021949D01*
X039365Y021962D01*
X039378Y021979D01*
X039392Y021997D01*
X039407Y022015D01*
X039437Y022054D01*
X039452Y022073D01*
X039466Y022092D01*
X039479Y02211D01*
X03949Y022127D01*
X0395Y022142D01*
X039507Y022154D01*
Y022155D01*
X039508Y022157D01*
X039509Y02216D01*
X039512Y022164D01*
X039514Y02217D01*
X039517Y022176D01*
X039519Y022183D01*
X039522Y022192D01*
X039527Y022209D01*
X039532Y022228D01*
X039536Y022249D01*
X039537Y022271D01*
Y022272D01*
Y022272D01*
Y022277D01*
X039536Y022286D01*
X039534Y022295D01*
X039531Y022306D01*
X039527Y022317D01*
X03952Y022329D01*
X039512Y02234D01*
X039511Y022341D01*
X039507Y022344D01*
X039502Y022349D01*
X039494Y022354D01*
X039485Y022359D01*
X039474Y022364D01*
X039462Y022367D01*
X039448Y022368D01*
X039442D01*
X039438Y022367D01*
X039433Y022366D01*
X039427Y022365D01*
X039414Y022361D01*
X039407Y022357D01*
X039398Y022353D01*
X039391Y022348D01*
X039383Y022342D01*
X039375Y022335D01*
X039368Y022327D01*
X039361Y022317D01*
X039354Y022307D01*
X039339Y022311D01*
Y022312D01*
X03934Y022315D01*
X039342Y022319D01*
X039343Y022324D01*
X039346Y022331D01*
X039348Y022337D01*
X039356Y022355D01*
X039365Y022373D01*
X039376Y022391D01*
X039389Y02241D01*
X039397Y022417D01*
X039404Y022425D01*
X039405Y022426D01*
X039406Y022426D01*
X039408Y022428D01*
X039412Y022431D01*
X039416Y022433D01*
X039421Y022436D01*
X039433Y022443D01*
X039447Y02245D01*
X039465Y022456D01*
X039484Y02246D01*
X039494Y022461D01*
X039512D01*
X03952Y022461D01*
D02*
G37*
G36*
X037796Y02202D02*
Y022019D01*
X037796Y022017D01*
X037798Y022014D01*
X037801Y02201D01*
X037802Y022005D01*
X037806Y021999D01*
X037811Y021987D01*
X037819Y021972D01*
X037826Y02196D01*
X037834Y021949D01*
X037838Y021944D01*
X037841Y021941D01*
X037842Y02194D01*
X037844Y021939D01*
X037847Y021937D01*
X037851Y021934D01*
X037856Y021932D01*
X037863Y02193D01*
X037871Y021927D01*
X03788Y021927D01*
Y021913D01*
X037619D01*
Y021927D01*
X037635D01*
X037641Y021927D01*
X037647D01*
X037662Y02193D01*
X037668Y021932D01*
X037674Y021935D01*
X037675D01*
X037676Y021937D01*
X037679Y02194D01*
X037682Y021946D01*
X037683Y021949D01*
Y021953D01*
Y021955D01*
Y021958D01*
X037682Y021962D01*
X037681Y021968D01*
Y021969D01*
X03768Y021971D01*
X037679Y021973D01*
X037677Y021977D01*
X037675Y021982D01*
X037672Y021989D01*
X037668Y021998D01*
X037639Y022066D01*
X037451Y022066D01*
X037427Y022013D01*
X037427Y022012D01*
X037426Y022009D01*
X037424Y022004D01*
X037422Y021997D01*
X037418Y021983D01*
X037417Y021976D01*
X037417Y021969D01*
Y021968D01*
Y021966D01*
X037417Y021962D01*
X037419Y021957D01*
X037421Y021951D01*
X037424Y021946D01*
X037429Y02194D01*
X037435Y021936D01*
X037436D01*
X037437Y021935D01*
X037441Y021933D01*
X037446Y021932D01*
X037452Y021931D01*
X037462Y021929D01*
X037473Y021927D01*
X037487Y021927D01*
Y021913D01*
X037308D01*
Y021927D01*
X03731D01*
X037313Y021927D01*
X037318Y021929D01*
X037325Y021931D01*
X037332Y021934D01*
X037341Y021938D01*
X037348Y021943D01*
X037356Y02195D01*
X037357Y021951D01*
X037359Y021954D01*
X037363Y02196D01*
X037369Y021967D01*
X037376Y021979D01*
X037379Y021986D01*
X037383Y021993D01*
X037388Y022002D01*
X037392Y022011D01*
X037397Y022021D01*
X037402Y022032D01*
X037595Y022461D01*
X037602D01*
X037796Y02202D01*
D02*
G37*
G36*
X035817Y022436D02*
X035795D01*
X035791Y022436D01*
X035786D01*
X035773Y022432D01*
X035767Y022431D01*
X035761Y022427D01*
X03576Y022426D01*
X035756Y022423D01*
X035751Y022417D01*
X035746Y022409D01*
Y022408D01*
X035745Y022406D01*
X035744Y022404D01*
Y022399D01*
X035743Y022392D01*
X035742Y022384D01*
X035741Y022372D01*
Y022359D01*
Y022004D01*
Y022003D01*
Y022002D01*
Y021997D01*
Y021991D01*
X035742Y021982D01*
Y021973D01*
X035743Y021964D01*
X035744Y021957D01*
X035746Y021952D01*
Y021951D01*
X035746Y02195D01*
X03575Y021946D01*
X035755Y02194D01*
X035759Y021937D01*
X035763Y021934D01*
X035764D01*
X035766Y021933D01*
X035769Y021932D01*
X035772Y021931D01*
X035778Y021929D01*
X035784Y021927D01*
X035791Y021927D01*
X035817D01*
Y021913D01*
X035537D01*
Y021927D01*
X035558D01*
X035562Y021927D01*
X035567D01*
X03558Y02193D01*
X035586Y021932D01*
X035592Y021935D01*
X035592D01*
X035593Y021936D01*
X035597Y021939D01*
X035603Y021945D01*
X035607Y021953D01*
Y021954D01*
X035608Y021956D01*
X035609Y021958D01*
X03561Y021963D01*
X035611Y02197D01*
X035612Y021979D01*
X035612Y02199D01*
Y022004D01*
Y022359D01*
Y02236D01*
Y022361D01*
Y022366D01*
Y022372D01*
X035612Y022381D01*
Y022389D01*
X035611Y022397D01*
X035609Y022405D01*
X035607Y02241D01*
Y022411D01*
X035607Y022411D01*
X035604Y022416D01*
X035598Y022422D01*
X035595Y022426D01*
X03559Y022428D01*
X035589D01*
X035587Y02243D01*
X035585Y022431D01*
X035581Y022432D01*
X035576Y022434D01*
X035569Y022435D01*
X035562Y022436D01*
X035537D01*
Y022451D01*
X035817D01*
Y022436D01*
D02*
G37*
G36*
X03342Y02202D02*
Y022019D01*
X033421Y022017D01*
X033422Y022014D01*
X033425Y02201D01*
X033427Y022005D01*
X03343Y021999D01*
X033436Y021987D01*
X033443Y021972D01*
X033451Y02196D01*
X033458Y021949D01*
X033462Y021944D01*
X033466Y021941D01*
X033467Y02194D01*
X033468Y021939D01*
X033472Y021937D01*
X033476Y021934D01*
X033481Y021932D01*
X033487Y02193D01*
X033495Y021927D01*
X033504Y021927D01*
Y021913D01*
X033243D01*
Y021927D01*
X033259D01*
X033265Y021927D01*
X033272D01*
X033286Y02193D01*
X033292Y021932D01*
X033298Y021935D01*
X033299D01*
X0333Y021937D01*
X033303Y02194D01*
X033306Y021946D01*
X033307Y021949D01*
Y021953D01*
Y021955D01*
Y021958D01*
X033307Y021962D01*
X033305Y021968D01*
Y021969D01*
X033304Y021971D01*
X033303Y021973D01*
X033302Y021977D01*
X033299Y021982D01*
X033297Y021989D01*
X033292Y021998D01*
X033263Y022066D01*
X033075D01*
X033052Y022013D01*
X033051Y022012D01*
X03305Y022009D01*
X033048Y022004D01*
X033047Y021997D01*
X033043Y021983D01*
X033042Y021976D01*
X033041Y021969D01*
Y021968D01*
Y021966D01*
X033042Y021962D01*
X033043Y021957D01*
X033045Y021951D01*
X033048Y021946D01*
X033053Y02194D01*
X033059Y021936D01*
X03306D01*
X033062Y021935D01*
X033065Y021933D01*
X03307Y021932D01*
X033077Y021931D01*
X033086Y021929D01*
X033098Y021927D01*
X033112Y021927D01*
Y021913D01*
X032933D01*
Y021927D01*
X032934D01*
X032938Y021927D01*
X032943Y021929D01*
X032949Y021931D01*
X032957Y021934D01*
X032965Y021938D01*
X032973Y021943D01*
X03298Y02195D01*
X032981Y021951D01*
X032983Y021954D01*
X032988Y02196D01*
X032993Y021967D01*
X033Y021979D01*
X033003Y021986D01*
X033008Y021993D01*
X033013Y022002D01*
X033017Y022011D01*
X033022Y022021D01*
X033027Y022032D01*
X033219Y022461D01*
X033227D01*
X03342Y02202D01*
D02*
G37*
G36*
X030601Y02202D02*
Y022019D01*
X030602Y022017D01*
X030604Y022014D01*
X030606Y02201D01*
X030608Y022005D01*
X030611Y021999D01*
X030617Y021987D01*
X030624Y021972D01*
X030632Y02196D01*
X030639Y021949D01*
X030644Y021944D01*
X030647Y021941D01*
X030648Y02194D01*
X030649Y021939D01*
X030653Y021937D01*
X030657Y021934D01*
X030662Y021932D01*
X030668Y02193D01*
X030676Y021927D01*
X030685Y021927D01*
Y021912D01*
X030424D01*
Y021927D01*
X03044D01*
X030446Y021927D01*
X030453D01*
X030467Y02193D01*
X030474Y021932D01*
X030479Y021935D01*
X03048D01*
X030481Y021937D01*
X030484Y02194D01*
X030487Y021946D01*
X030489Y021949D01*
Y021953D01*
Y021955D01*
Y021958D01*
X030488Y021962D01*
X030486Y021968D01*
Y021969D01*
X030485Y021971D01*
X030484Y021973D01*
X030483Y021977D01*
X03048Y021982D01*
X030478Y021989D01*
X030474Y021998D01*
X030444Y022066D01*
X030256D01*
X030233Y022013D01*
X030232Y022012D01*
X030231Y022009D01*
X03023Y022004D01*
X030228Y021997D01*
X030224Y021983D01*
X030223Y021976D01*
X030222Y021969D01*
Y021968D01*
Y021966D01*
X030223Y021962D01*
X030225Y021957D01*
X030226Y021951D01*
X03023Y021946D01*
X030235Y02194D01*
X03024Y021936D01*
X030241D01*
X030243Y021935D01*
X030246Y021933D01*
X030251Y021932D01*
X030258Y021931D01*
X030267Y021929D01*
X030279Y021927D01*
X030293Y021927D01*
Y021912D01*
X030114D01*
Y021927D01*
X030115D01*
X030119Y021927D01*
X030124Y021929D01*
X03013Y021931D01*
X030138Y021934D01*
X030146Y021938D01*
X030154Y021943D01*
X030161Y02195D01*
X030162Y021951D01*
X030165Y021954D01*
X030169Y02196D01*
X030175Y021967D01*
X030181Y021979D01*
X030185Y021986D01*
X030189Y021993D01*
X030194Y022002D01*
X030198Y022011D01*
X030203Y022021D01*
X030208Y022032D01*
X0304Y022461D01*
X030408D01*
X030601Y02202D01*
D02*
G37*
G36*
X029253Y02245D02*
X029262D01*
X029273Y022448D01*
X029286Y022447D01*
X029298Y022446D01*
X029326Y022441D01*
X029353Y022433D01*
X029367Y022428D01*
X029379Y022423D01*
X029391Y022416D01*
X029401Y022409D01*
X029402Y022408D01*
X029403Y022407D01*
X029406Y022405D01*
X029409Y022401D01*
X029412Y022397D01*
X029416Y022393D01*
X029427Y022381D01*
X029436Y022366D01*
X029444Y022348D01*
X029446Y022338D01*
X029449Y022328D01*
X029451Y022317D01*
X029451Y022306D01*
Y022305D01*
Y022303D01*
Y022301D01*
X029451Y022297D01*
X02945Y022287D01*
X029447Y022275D01*
X029443Y022262D01*
X029437Y022247D01*
X029429Y022232D01*
X029418Y022217D01*
X029416Y022215D01*
X029412Y022211D01*
X029405Y022204D01*
X029395Y022197D01*
X029382Y022187D01*
X029367Y022179D01*
X029349Y022172D01*
X029329Y022166D01*
X029327D01*
X029325Y022165D01*
X029322Y022164D01*
X029317Y022163D01*
X029312D01*
X029306Y022162D01*
X029298Y022162D01*
X02929Y022161D01*
X029281Y02216D01*
X02927Y022159D01*
X029258Y022158D01*
X029245Y022157D01*
X029231D01*
X029216Y022157D01*
X029199D01*
Y022007D01*
Y022006D01*
Y022005D01*
Y022D01*
Y021992D01*
X0292Y021983D01*
Y021973D01*
X029202Y021964D01*
X029202Y021957D01*
X029204Y021951D01*
Y02195D01*
X029205Y021949D01*
X029209Y021945D01*
X029215Y021939D01*
X029223Y021933D01*
X029224D01*
X029226Y021932D01*
X02923Y021932D01*
X029235Y02193D01*
X029242Y021929D01*
X029251Y021927D01*
X029262Y021927D01*
X029274D01*
Y021912D01*
X029D01*
Y021927D01*
X029012D01*
X029021Y021927D01*
X029037Y021929D01*
X029045Y021931D01*
X029051Y021933D01*
X029052D01*
X029053Y021934D01*
X029058Y021938D01*
X029064Y021943D01*
X029069Y021951D01*
Y021952D01*
X02907Y021953D01*
X029071Y021957D01*
X029072Y021962D01*
X029073Y02197D01*
X029074Y021979D01*
X029075Y021992D01*
Y022007D01*
Y022356D01*
Y022357D01*
Y022358D01*
Y022363D01*
Y022371D01*
X029074Y02238D01*
X029073Y022389D01*
X029072Y022397D01*
X029071Y022406D01*
X029069Y022411D01*
Y022411D01*
X029068Y022412D01*
X029065Y022417D01*
X029059Y022423D01*
X029055Y022426D01*
X02905Y022429D01*
X029049D01*
X029047Y02243D01*
X029044Y022431D01*
X029039Y022433D01*
X029032Y022434D01*
X029023Y022436D01*
X029012Y022436D01*
X029D01*
Y022451D01*
X029245D01*
X029253Y02245D01*
D02*
G37*
G36*
X042376Y022459D02*
X042383D01*
X04239Y022458D01*
X042408Y022456D01*
X042427Y022451D01*
X042447Y022444D01*
X042466Y022436D01*
X042475Y02243D01*
X042483Y022423D01*
X042484D01*
X042485Y022421D01*
X04249Y022416D01*
X042496Y022409D01*
X042504Y022398D01*
X042511Y022386D01*
X042518Y022371D01*
X042523Y022354D01*
X042524Y022345D01*
X042525Y022336D01*
Y022334D01*
Y022329D01*
X042524Y022322D01*
X042522Y022313D01*
X042519Y022303D01*
X042515Y022292D01*
X04251Y022281D01*
X042502Y022269D01*
X042501Y022267D01*
X042498Y022264D01*
X042492Y022258D01*
X042485Y022252D01*
X042475Y022243D01*
X042463Y022235D01*
X042449Y022226D01*
X042432Y022217D01*
X042433Y022216D01*
X042435Y022215D01*
X042437Y022212D01*
X042441Y02221D01*
X042451Y022202D01*
X042463Y022192D01*
X042476Y022179D01*
X04249Y022166D01*
X042501Y022152D01*
X042511Y022138D01*
X042512Y022137D01*
X042515Y022132D01*
X042519Y022125D01*
X042523Y022115D01*
X042526Y022102D01*
X04253Y022089D01*
X042533Y022073D01*
X042534Y022057D01*
Y022056D01*
Y022054D01*
Y02205D01*
X042533Y022046D01*
X042532Y02204D01*
X042531Y022034D01*
X042528Y022018D01*
X042522Y022002D01*
X042518Y021992D01*
X042513Y021982D01*
X042507Y021973D01*
X042501Y021964D01*
X042493Y021955D01*
X042485Y021947D01*
X042484Y021946D01*
X042482Y021945D01*
X04248Y021942D01*
X042475Y02194D01*
X04247Y021937D01*
X042465Y021932D01*
X042457Y021928D01*
X04245Y021924D01*
X04244Y02192D01*
X04243Y021916D01*
X04242Y021913D01*
X042407Y021908D01*
X042395Y021906D01*
X04238Y021903D01*
X042366Y021902D01*
X04235Y021902D01*
X042343D01*
X042337Y021902D01*
X04233D01*
X042323Y021904D01*
X042315Y021905D01*
X042306Y021907D01*
X042286Y021912D01*
X042266Y021918D01*
X042246Y021928D01*
X042236Y021934D01*
X042227Y021941D01*
X042226Y021942D01*
X042226Y021942D01*
X042223Y021945D01*
X042221Y021947D01*
X042214Y021956D01*
X042206Y021967D01*
X042197Y021982D01*
X042191Y021997D01*
X042186Y022017D01*
X042185Y022027D01*
X042184Y022037D01*
Y022037D01*
Y022038D01*
Y022041D01*
X042185Y022044D01*
X042186Y022052D01*
X042187Y022062D01*
X04219Y022074D01*
X042195Y022087D01*
X042201Y0221D01*
X042209Y022112D01*
X04221Y022114D01*
X042214Y022118D01*
X04222Y022124D01*
X042229Y022132D01*
X042241Y022142D01*
X042255Y022152D01*
X042272Y022162D01*
X042293Y022172D01*
X042292Y022173D01*
X042291Y022175D01*
X042287Y022177D01*
X042283Y022181D01*
X042278Y022185D01*
X042272Y022189D01*
X042259Y022201D01*
X042245Y022213D01*
X042231Y022227D01*
X04222Y022239D01*
X042215Y022246D01*
X042211Y022252D01*
X04221Y022253D01*
X042208Y022257D01*
X042205Y022263D01*
X042202Y022272D01*
X042199Y022282D01*
X042196Y022295D01*
X042194Y022308D01*
X042193Y022323D01*
Y022324D01*
Y022326D01*
Y022328D01*
X042194Y022332D01*
X042195Y022337D01*
X042196Y022342D01*
X042199Y022356D01*
X042204Y02237D01*
X042212Y022386D01*
X042218Y022394D01*
X042224Y022402D01*
X042231Y022411D01*
X042239Y022418D01*
X04224Y022419D01*
X042241Y02242D01*
X042244Y022422D01*
X042247Y022425D01*
X042252Y022428D01*
X042257Y022431D01*
X042264Y022435D01*
X042271Y022439D01*
X042281Y022443D01*
X04229Y022446D01*
X0423Y02245D01*
X042311Y022453D01*
X042323Y022456D01*
X042336Y022458D01*
X04235Y022459D01*
X042364Y02246D01*
X042371D01*
X042376Y022459D01*
D02*
G37*
G36*
X04196Y022461D02*
X041968Y02246D01*
X04198Y022457D01*
X041993Y022454D01*
X042008Y022448D01*
X042023Y02244D01*
X042039Y022429D01*
X04204D01*
X042041Y022427D01*
X042046Y022423D01*
X042053Y022416D01*
X042061Y022406D01*
X042071Y022394D01*
X042081Y02238D01*
X042091Y022362D01*
X042099Y022343D01*
Y022342D01*
X0421Y02234D01*
X042101Y022336D01*
X042103Y02233D01*
X042105Y022323D01*
X042107Y022315D01*
X04211Y022306D01*
X042112Y022295D01*
X042115Y022284D01*
X042117Y022272D01*
X04212Y022258D01*
X042121Y022244D01*
X042125Y022214D01*
X042126Y022182D01*
Y022181D01*
Y022178D01*
Y022174D01*
Y022168D01*
X042125Y022161D01*
Y022152D01*
X042124Y022143D01*
X042123Y022132D01*
X04212Y022109D01*
X042116Y022084D01*
X04211Y022057D01*
X042102Y022031D01*
Y02203D01*
X042101Y022029D01*
X0421Y022024D01*
X042096Y022016D01*
X042093Y022006D01*
X042087Y021995D01*
X042081Y021983D01*
X042074Y021972D01*
X042066Y021961D01*
X042065Y02196D01*
X042061Y021957D01*
X042057Y021952D01*
X042051Y021945D01*
X042043Y021938D01*
X042034Y021931D01*
X042025Y021924D01*
X042014Y021917D01*
X042012Y021917D01*
X042009Y021915D01*
X042003Y021913D01*
X041996Y02191D01*
X041986Y021907D01*
X041976Y021904D01*
X041964Y021902D01*
X041951Y021902D01*
X041945D01*
X041937Y021902D01*
X041928Y021904D01*
X041917Y021907D01*
X041905Y02191D01*
X041893Y021914D01*
X041881Y021921D01*
X041879Y021922D01*
X041876Y021924D01*
X04187Y021929D01*
X041862Y021936D01*
X041854Y021943D01*
X041845Y021953D01*
X041835Y021964D01*
X041826Y021977D01*
X041825Y021979D01*
X041823Y021982D01*
X04182Y021988D01*
X041816Y021997D01*
X041811Y022007D01*
X041806Y02202D01*
X0418Y022034D01*
X041795Y02205D01*
Y022051D01*
X041794Y022052D01*
X041793Y022056D01*
X041792Y022061D01*
X041791Y022066D01*
X04179Y022072D01*
X041788Y02208D01*
X041787Y022088D01*
X041783Y022107D01*
X041781Y022128D01*
X041779Y022151D01*
X041778Y022175D01*
Y022176D01*
Y022179D01*
Y022183D01*
Y02219D01*
X041779Y022197D01*
X04178Y022207D01*
Y022217D01*
X041782Y022228D01*
X041782Y02224D01*
X041784Y022252D01*
X041788Y02228D01*
X041794Y022307D01*
X041802Y022336D01*
Y022336D01*
X041803Y022338D01*
X041805Y022341D01*
X041807Y022346D01*
X041808Y022351D01*
X041811Y022356D01*
X041817Y02237D01*
X041826Y022385D01*
X041837Y022401D01*
X041849Y022416D01*
X041863Y022429D01*
X041864D01*
X041865Y022431D01*
X041867Y022432D01*
X041871Y022434D01*
X041879Y022439D01*
X04189Y022446D01*
X041903Y022451D01*
X041918Y022456D01*
X041934Y02246D01*
X041951Y022461D01*
X041956D01*
X04196Y022461D01*
D02*
G37*
G36*
X040911Y022451D02*
X04091D01*
X040908Y02245D01*
X040904Y022449D01*
X040899Y022447D01*
X040893Y022446D01*
X040886Y022443D01*
X040869Y022438D01*
X040851Y022431D01*
X040832Y022423D01*
X040813Y022414D01*
X040795Y022403D01*
X040794D01*
X040794Y022401D01*
X040791Y022401D01*
X040788Y022398D01*
X04078Y022392D01*
X04077Y022384D01*
X040759Y022374D01*
X040748Y022361D01*
X040736Y022348D01*
X040726Y022333D01*
Y022332D01*
X040725Y022332D01*
X040724Y022329D01*
X040722Y022326D01*
X04072Y022322D01*
X040718Y022317D01*
X040712Y022305D01*
X040706Y022291D01*
X040699Y022273D01*
X040694Y022253D01*
X040688Y022232D01*
X040689Y022232D01*
X040691Y022233D01*
X040694Y022236D01*
X040698Y022238D01*
X040708Y022243D01*
X040713Y022246D01*
X040717Y022247D01*
X040718D01*
X040721Y022249D01*
X040726Y02225D01*
X040733Y022252D01*
X040741Y022253D01*
X040749Y022254D01*
X040769Y022256D01*
X040774D01*
X040779Y022255D01*
X040784Y022254D01*
X04079Y022253D01*
X040804Y02225D01*
X04082Y022245D01*
X040837Y022237D01*
X040845Y022232D01*
X040854Y022227D01*
X040862Y022219D01*
X040869Y022212D01*
X04087Y022211D01*
X040871Y02221D01*
X040874Y022207D01*
X040876Y022203D01*
X040879Y022199D01*
X040883Y022193D01*
X040886Y022187D01*
X04089Y02218D01*
X040894Y022172D01*
X040898Y022163D01*
X040901Y022153D01*
X040904Y022142D01*
X040909Y022118D01*
X040909Y022106D01*
X04091Y022092D01*
Y022091D01*
Y022089D01*
Y022087D01*
Y022082D01*
X040909Y022078D01*
Y022072D01*
X040908Y022059D01*
X040904Y022044D01*
X040901Y022028D01*
X040895Y022011D01*
X040888Y021994D01*
Y021993D01*
X040887Y021992D01*
X040885Y02199D01*
X040884Y021987D01*
X040879Y021979D01*
X040872Y021969D01*
X040864Y021958D01*
X040853Y021947D01*
X04084Y021936D01*
X040826Y021926D01*
X040825D01*
X040824Y021925D01*
X040822Y021923D01*
X040819Y021922D01*
X040811Y021918D01*
X0408Y021914D01*
X040788Y021909D01*
X040773Y021906D01*
X040757Y021902D01*
X04074Y021902D01*
X040735D01*
X040732Y021902D01*
X040728D01*
X040722Y021903D01*
X04071Y021905D01*
X040696Y021908D01*
X04068Y021913D01*
X040664Y021919D01*
X040648Y021928D01*
X040647D01*
X040646Y02193D01*
X040641Y021933D01*
X040634Y02194D01*
X040625Y021948D01*
X040614Y02196D01*
X040603Y021973D01*
X040592Y021989D01*
X040583Y022007D01*
Y022008D01*
X040582Y02201D01*
X04058Y022012D01*
X04058Y022017D01*
X040578Y022022D01*
X040575Y022027D01*
X040574Y022034D01*
X040571Y022042D01*
X040567Y022058D01*
X040563Y022077D01*
X04056Y022099D01*
X04056Y022122D01*
Y022122D01*
Y022126D01*
Y022131D01*
X04056Y022137D01*
X040561Y022145D01*
X040562Y022154D01*
X040563Y022165D01*
X040565Y022177D01*
X040567Y022189D01*
X04057Y022202D01*
X040578Y022231D01*
X040583Y022246D01*
X040589Y022261D01*
X040595Y022275D01*
X040603Y02229D01*
X040604Y022291D01*
X040605Y022293D01*
X040607Y022297D01*
X040611Y022303D01*
X040615Y02231D01*
X040621Y022317D01*
X040627Y022326D01*
X040635Y022335D01*
X040643Y022345D01*
X040652Y022355D01*
X040662Y022365D01*
X040673Y022376D01*
X040685Y022386D01*
X040698Y022396D01*
X040712Y022405D01*
X040726Y022414D01*
X040727Y022415D01*
X040729Y022416D01*
X040734Y022418D01*
X04074Y022421D01*
X040748Y022425D01*
X040757Y022429D01*
X040768Y022433D01*
X040779Y022437D01*
X040792Y022441D01*
X040806Y022446D01*
X040822Y02245D01*
X040838Y022454D01*
X040855Y022456D01*
X040873Y022459D01*
X040892Y022461D01*
X040911Y022461D01*
Y022451D01*
D02*
G37*
G36*
X039927Y022461D02*
X039936Y02246D01*
X039947Y022457D01*
X039961Y022454D01*
X039976Y022448D01*
X039991Y02244D01*
X040006Y022429D01*
X040007D01*
X040008Y022427D01*
X040013Y022423D01*
X040021Y022416D01*
X040029Y022406D01*
X040039Y022394D01*
X040049Y02238D01*
X040058Y022362D01*
X040066Y022343D01*
Y022342D01*
X040067Y02234D01*
X040069Y022336D01*
X040071Y02233D01*
X040072Y022323D01*
X040075Y022315D01*
X040077Y022306D01*
X04008Y022295D01*
X040082Y022284D01*
X040085Y022272D01*
X040087Y022258D01*
X040089Y022244D01*
X040092Y022214D01*
X040093Y022182D01*
Y022181D01*
Y022178D01*
Y022174D01*
Y022168D01*
X040092Y022161D01*
Y022152D01*
X040091Y022143D01*
X040091Y022132D01*
X040087Y022109D01*
X040083Y022084D01*
X040077Y022057D01*
X04007Y022031D01*
Y02203D01*
X040069Y022029D01*
X040067Y022024D01*
X040064Y022016D01*
X040061Y022006D01*
X040055Y021995D01*
X040049Y021983D01*
X040041Y021972D01*
X040033Y021961D01*
X040032Y02196D01*
X040029Y021957D01*
X040025Y021952D01*
X040018Y021945D01*
X040011Y021938D01*
X040001Y021931D01*
X039992Y021924D01*
X039981Y021917D01*
X03998Y021917D01*
X039976Y021915D01*
X039971Y021913D01*
X039963Y02191D01*
X039954Y021907D01*
X039943Y021904D01*
X039931Y021902D01*
X039919Y021902D01*
X039912D01*
X039905Y021902D01*
X039896Y021904D01*
X039885Y021907D01*
X039872Y02191D01*
X039861Y021914D01*
X039848Y021921D01*
X039846Y021922D01*
X039843Y021924D01*
X039837Y021929D01*
X03983Y021936D01*
X039822Y021943D01*
X039812Y021953D01*
X039802Y021964D01*
X039793Y021977D01*
X039792Y021979D01*
X039791Y021982D01*
X039787Y021988D01*
X039783Y021997D01*
X039778Y022007D01*
X039773Y02202D01*
X039767Y022034D01*
X039762Y02205D01*
Y022051D01*
X039762Y022052D01*
X039761Y022056D01*
X03976Y022061D01*
X039758Y022066D01*
X039757Y022072D01*
X039756Y02208D01*
X039754Y022088D01*
X039751Y022107D01*
X039748Y022128D01*
X039747Y022151D01*
X039746Y022175D01*
Y022176D01*
Y022179D01*
Y022183D01*
Y02219D01*
X039747Y022197D01*
X039747Y022207D01*
Y022217D01*
X039749Y022228D01*
X03975Y02224D01*
X039752Y022252D01*
X039756Y02228D01*
X039762Y022307D01*
X03977Y022336D01*
Y022336D01*
X039771Y022338D01*
X039772Y022341D01*
X039774Y022346D01*
X039776Y022351D01*
X039778Y022356D01*
X039785Y02237D01*
X039793Y022385D01*
X039804Y022401D01*
X039817Y022416D01*
X039831Y022429D01*
X039832D01*
X039832Y022431D01*
X039835Y022432D01*
X039838Y022434D01*
X039846Y022439D01*
X039857Y022446D01*
X039871Y022451D01*
X039886Y022456D01*
X039901Y02246D01*
X039919Y022461D01*
X039924D01*
X039927Y022461D01*
D02*
G37*
G36*
X032629Y022457D02*
X03264Y022456D01*
X032653Y022456D01*
X032667Y022453D01*
X032683Y022451D01*
X032699Y022446D01*
X032715Y022441D01*
X032733Y022436D01*
X03275Y022428D01*
X032768Y022419D01*
X032785Y022409D01*
X032801Y022396D01*
X032817Y022382D01*
X032818Y022381D01*
X03282Y022379D01*
X032824Y022374D01*
X032829Y022368D01*
X032836Y022361D01*
X032843Y022351D01*
X032849Y02234D01*
X032858Y022328D01*
X032865Y022314D01*
X032872Y022299D01*
X032879Y022282D01*
X032885Y022265D01*
X03289Y022247D01*
X032894Y022227D01*
X032897Y022205D01*
X032898Y022183D01*
Y022182D01*
Y022179D01*
Y022173D01*
X032897Y022166D01*
X032896Y022157D01*
X032894Y022147D01*
X032893Y022135D01*
X03289Y022122D01*
X032887Y022108D01*
X032883Y022094D01*
X032878Y022079D01*
X032873Y022064D01*
X032865Y022048D01*
X032858Y022032D01*
X032848Y022017D01*
X032838Y022002D01*
X032837Y022002D01*
X032834Y021998D01*
X032829Y021993D01*
X032823Y021987D01*
X032814Y021979D01*
X032804Y02197D01*
X032793Y021961D01*
X032779Y021952D01*
X032764Y021942D01*
X032748Y021932D01*
X032729Y021924D01*
X032709Y021916D01*
X032688Y021909D01*
X032664Y021904D01*
X032639Y021901D01*
X032613Y0219D01*
X032606D01*
X032599Y021901D01*
X032589Y021902D01*
X032577Y021903D01*
X032563Y021905D01*
X032547Y021908D01*
X03253Y021913D01*
X032513Y021917D01*
X032494Y021924D01*
X032476Y021932D01*
X032457Y021942D01*
X032439Y021952D01*
X032421Y021966D01*
X032404Y021981D01*
X032389Y021998D01*
X032388Y021999D01*
X032386Y022002D01*
X032383Y022006D01*
X032379Y022012D01*
X032374Y02202D01*
X032369Y022028D01*
X032364Y022039D01*
X032358Y022051D01*
X032352Y022063D01*
X032346Y022077D01*
X03234Y022092D01*
X032336Y022109D01*
X032332Y022126D01*
X032329Y022144D01*
X032327Y022162D01*
X032326Y022182D01*
Y022184D01*
Y022187D01*
X032327Y022194D01*
X032328Y022202D01*
X032329Y022212D01*
X03233Y022225D01*
X032333Y022238D01*
X032336Y022252D01*
X03234Y022268D01*
X032346Y022284D01*
X032353Y022301D01*
X03236Y022317D01*
X032369Y022334D01*
X03238Y022351D01*
X032393Y022367D01*
X032407Y022382D01*
X032408Y022383D01*
X032411Y022386D01*
X032415Y02239D01*
X032422Y022395D01*
X032429Y022401D01*
X032439Y022407D01*
X03245Y022415D01*
X032463Y022421D01*
X032477Y022429D01*
X032492Y022436D01*
X032509Y022442D01*
X032526Y022448D01*
X032545Y022452D01*
X032565Y022456D01*
X032586Y022458D01*
X03262D01*
X032629Y022457D01*
D02*
G37*
%LPC*%
G36*
X018321Y022421D02*
X018279D01*
Y022186D01*
X018311D01*
X018321Y022187D01*
X018332Y022187D01*
X018346Y022188D01*
X01836Y02219D01*
X018372Y022192D01*
X018384Y022196D01*
X018385Y022197D01*
X018388Y022197D01*
X018393Y0222D01*
X0184Y022204D01*
X018406Y022209D01*
X018414Y022215D01*
X01842Y022222D01*
X018427Y022232D01*
X018428Y022233D01*
X01843Y022237D01*
X018432Y022242D01*
X018435Y02225D01*
X018438Y02226D01*
X01844Y022272D01*
X018442Y022286D01*
X018443Y022301D01*
Y022302D01*
Y022303D01*
Y022306D01*
X018442Y022311D01*
Y022316D01*
X018441Y022322D01*
X01844Y022335D01*
X018435Y022349D01*
X01843Y022364D01*
X018424Y022378D01*
X018414Y022391D01*
X018412Y022392D01*
X018408Y022396D01*
X018401Y0224D01*
X018391Y022406D01*
X018379Y022411D01*
X018362Y022416D01*
X018344Y022419D01*
X018321Y022421D01*
D02*
G37*
G36*
X018893Y022278D02*
X01881Y022095D01*
X018973D01*
X018893Y022278D01*
D02*
G37*
G36*
X020825Y022421D02*
X020783D01*
Y022186D01*
X020815D01*
X020825Y022187D01*
X020836Y022187D01*
X02085Y022188D01*
X020864Y02219D01*
X020876Y022192D01*
X020888Y022196D01*
X020889Y022197D01*
X020892Y022197D01*
X020897Y0222D01*
X020904Y022204D01*
X02091Y022209D01*
X020918Y022215D01*
X020924Y022222D01*
X020931Y022232D01*
X020932Y022233D01*
X020934Y022237D01*
X020936Y022242D01*
X020939Y02225D01*
X020942Y02226D01*
X020944Y022272D01*
X020946Y022286D01*
X020947Y022301D01*
Y022302D01*
Y022303D01*
Y022307D01*
X020946Y022311D01*
Y022316D01*
X020945Y022322D01*
X020944Y022335D01*
X020939Y022349D01*
X020934Y022364D01*
X020928Y022378D01*
X020918Y022391D01*
X020916Y022392D01*
X020912Y022396D01*
X020905Y0224D01*
X020895Y022406D01*
X020883Y022411D01*
X020866Y022416D01*
X020848Y022419D01*
X020825Y022421D01*
D02*
G37*
G36*
X027853Y022434D02*
X027851D01*
X027848Y022433D01*
X027844D01*
X027835Y02243D01*
X027831Y022427D01*
X027827Y022424D01*
X027826Y022423D01*
X027824Y022421D01*
X027822Y022417D01*
X027818Y022412D01*
X027815Y022406D01*
X027812Y022397D01*
X027809Y022387D01*
X027807Y022375D01*
Y022374D01*
Y022373D01*
X027806Y022371D01*
Y022366D01*
Y022361D01*
X027805Y022353D01*
Y022343D01*
X027804Y022332D01*
X027803Y022317D01*
Y0223D01*
X027803Y02228D01*
Y022257D01*
Y022244D01*
Y022231D01*
X027802Y022217D01*
Y022202D01*
Y022185D01*
Y022168D01*
Y02215D01*
Y022131D01*
Y022129D01*
Y022126D01*
Y02212D01*
Y022112D01*
Y022103D01*
X027803Y022092D01*
Y022081D01*
Y022069D01*
X027803Y022043D01*
X027805Y022018D01*
X027806Y022006D01*
X027807Y021995D01*
X027808Y021986D01*
X027809Y021977D01*
Y021977D01*
X02781Y021973D01*
X027812Y021968D01*
X027813Y021962D01*
X027818Y02195D01*
X027822Y021944D01*
X027826Y02194D01*
X027827D01*
X027828Y021938D01*
X027831Y021937D01*
X027834Y021936D01*
X027838Y021934D01*
X027843Y021932D01*
X027849Y021932D01*
X027856Y021931D01*
X027859D01*
X027863Y021932D01*
X027868Y021932D01*
X027872Y021934D01*
X027877Y021936D01*
X027882Y021939D01*
X027886Y021943D01*
X027887Y021944D01*
X027888Y021947D01*
X027892Y021952D01*
X027894Y02196D01*
X027898Y021969D01*
X027901Y021982D01*
X027903Y021995D01*
X027905Y022012D01*
X027907Y022182D01*
Y022184D01*
Y022188D01*
Y022196D01*
Y022205D01*
Y022216D01*
Y022228D01*
Y022242D01*
Y022256D01*
Y022284D01*
X027906Y022298D01*
Y022311D01*
Y022322D01*
Y022333D01*
X027905Y022341D01*
Y022346D01*
Y022347D01*
Y022349D01*
X027904Y022351D01*
Y022356D01*
X027903Y022365D01*
X027901Y022376D01*
X027898Y022389D01*
X027895Y022401D01*
X027891Y022412D01*
X027888Y022416D01*
X027886Y022421D01*
X027885Y022421D01*
X027884Y022423D01*
X027882Y022425D01*
X027878Y022427D01*
X027873Y02243D01*
X027868Y022432D01*
X027861Y022433D01*
X027853Y022434D01*
D02*
G37*
G36*
X026221Y022213D02*
X026218D01*
X026214Y022212D01*
X02621Y022212D01*
X026204Y02221D01*
X026197Y022207D01*
X026189Y022204D01*
X02618Y0222D01*
Y022199D01*
Y022197D01*
Y022195D01*
X026179Y022191D01*
Y022182D01*
X026178Y022169D01*
X026177Y022156D01*
Y022142D01*
X026177Y02213D01*
Y022119D01*
Y022118D01*
Y022117D01*
Y022114D01*
Y02211D01*
Y022105D01*
X026177Y022099D01*
X026178Y022085D01*
X026179Y022069D01*
X026181Y022051D01*
X026183Y022032D01*
X026187Y022012D01*
Y022012D01*
X026187Y02201D01*
Y022007D01*
X026188Y022004D01*
X026191Y021995D01*
X026194Y021984D01*
X026198Y021972D01*
X026203Y021961D01*
X026209Y02195D01*
X026216Y021941D01*
X026217Y02194D01*
X026218Y021938D01*
X026221Y021937D01*
X026225Y021934D01*
X026234Y021929D01*
X02624Y021927D01*
X026247Y021927D01*
X02625D01*
X026253Y021927D01*
X026257Y021929D01*
X026262Y021932D01*
X026268Y021936D01*
X026273Y021941D01*
X026279Y021947D01*
X02628Y021948D01*
X026282Y021952D01*
X026284Y021957D01*
X026286Y021967D01*
X026289Y021978D01*
X026291Y021985D01*
X026291Y021993D01*
X026292Y022002D01*
X026293Y022012D01*
X026294Y022022D01*
Y022034D01*
Y022036D01*
Y022039D01*
Y022045D01*
Y022052D01*
X026293Y022061D01*
X026292Y022071D01*
X026291Y022082D01*
X026291Y022094D01*
X026287Y022119D01*
X026283Y022145D01*
X02628Y022157D01*
X026277Y022167D01*
X026272Y022177D01*
X026267Y022186D01*
X026267Y022187D01*
X026264Y02219D01*
X026261Y022194D01*
X026255Y0222D01*
X026248Y022205D01*
X026241Y022209D01*
X026231Y022212D01*
X026221Y022213D01*
D02*
G37*
G36*
X025414Y022434D02*
X025412D01*
X025409Y022433D01*
X025405D01*
X025396Y02243D01*
X025392Y022427D01*
X025388Y022424D01*
X025387Y022423D01*
X025385Y022421D01*
X025383Y022417D01*
X025379Y022412D01*
X025376Y022406D01*
X025373Y022397D01*
X02537Y022387D01*
X025368Y022375D01*
Y022374D01*
Y022373D01*
X025367Y022371D01*
Y022366D01*
Y022361D01*
X025366Y022353D01*
Y022343D01*
X025365Y022331D01*
X025364Y022317D01*
Y0223D01*
X025364Y02228D01*
Y022257D01*
Y022244D01*
Y022231D01*
X025363Y022217D01*
Y022202D01*
Y022185D01*
Y022168D01*
Y02215D01*
Y022131D01*
Y022129D01*
Y022126D01*
Y02212D01*
Y022112D01*
Y022103D01*
X025364Y022092D01*
Y022081D01*
Y022069D01*
X025364Y022043D01*
X025366Y022018D01*
X025367Y022006D01*
X025368Y021995D01*
X025369Y021986D01*
X02537Y021977D01*
Y021977D01*
X025371Y021973D01*
X025373Y021968D01*
X025374Y021962D01*
X025379Y02195D01*
X025383Y021944D01*
X025387Y02194D01*
X025388D01*
X025389Y021938D01*
X025392Y021937D01*
X025395Y021936D01*
X025399Y021934D01*
X025404Y021932D01*
X02541Y021932D01*
X025417Y021931D01*
X02542D01*
X025424Y021932D01*
X025429Y021932D01*
X025433Y021934D01*
X025438Y021936D01*
X025443Y021939D01*
X025447Y021943D01*
X025448Y021944D01*
X025449Y021947D01*
X025453Y021952D01*
X025455Y02196D01*
X025459Y021969D01*
X025462Y021982D01*
X025464Y021995D01*
X025466Y022012D01*
X025468Y022182D01*
Y022184D01*
Y022188D01*
Y022196D01*
Y022205D01*
Y022216D01*
Y022228D01*
Y022242D01*
Y022256D01*
Y022284D01*
X025467Y022298D01*
Y022311D01*
Y022322D01*
Y022333D01*
X025466Y022341D01*
Y022346D01*
Y022347D01*
Y022349D01*
X025465Y022351D01*
Y022356D01*
X025464Y022365D01*
X025462Y022376D01*
X025459Y022389D01*
X025456Y022401D01*
X025452Y022412D01*
X025449Y022416D01*
X025447Y022421D01*
X025446Y022421D01*
X025445Y022423D01*
X025443Y022425D01*
X025439Y022427D01*
X025434Y02243D01*
X025429Y022432D01*
X025422Y022433D01*
X025414Y022434D01*
D02*
G37*
G36*
X037547Y022278D02*
X037464Y022095D01*
X037627Y022095D01*
X037547Y022278D01*
D02*
G37*
G36*
X033171D02*
X033088Y022095D01*
X033251D01*
X033171Y022278D01*
D02*
G37*
G36*
X030352Y022278D02*
X030269Y022095D01*
X030432D01*
X030352Y022278D01*
D02*
G37*
G36*
X029215Y02242D02*
X029199D01*
Y022187D01*
X029207D01*
X029212Y022187D01*
X029224D01*
X029227Y022187D01*
X029236Y022188D01*
X029247Y02219D01*
X029258Y022193D01*
X029271Y022198D01*
X029282Y022206D01*
X029293Y022215D01*
X029294Y022217D01*
X029297Y022221D01*
X029302Y022227D01*
X029307Y022237D01*
X029312Y02225D01*
X029316Y022265D01*
X029319Y022283D01*
X02932Y022304D01*
Y022305D01*
Y022306D01*
Y02231D01*
Y022314D01*
X029319Y022319D01*
X029318Y022325D01*
X029317Y022337D01*
X029313Y022351D01*
X029309Y022366D01*
X029302Y02238D01*
X029293Y022391D01*
X029292Y022392D01*
X029288Y022396D01*
X029282Y022401D01*
X029274Y022406D01*
X029262Y022411D01*
X029249Y022416D01*
X029233Y022419D01*
X029215Y02242D01*
D02*
G37*
G36*
X042362Y022435D02*
X042358D01*
X042353Y022434D01*
X042346Y022432D01*
X04234Y02243D01*
X042332Y022426D01*
X042325Y022421D01*
X042317Y022415D01*
X042316Y022414D01*
X042315Y022411D01*
X042311Y022407D01*
X042308Y022401D01*
X042305Y022395D01*
X042301Y022386D01*
X0423Y022377D01*
X042299Y022367D01*
Y022366D01*
Y022362D01*
X0423Y022356D01*
X042301Y022349D01*
X042304Y022341D01*
X042308Y02233D01*
X042313Y022319D01*
X04232Y022307D01*
X04232Y022306D01*
X042324Y022302D01*
X04233Y022296D01*
X042338Y022287D01*
X042349Y022277D01*
X042363Y022265D01*
X042371Y022258D01*
X04238Y022251D01*
X04239Y022244D01*
X042401Y022237D01*
X042402Y022237D01*
X042404Y02224D01*
X042406Y022244D01*
X04241Y022249D01*
X042414Y022256D01*
X042417Y022263D01*
X042424Y02228D01*
Y022281D01*
X042425Y022284D01*
X042426Y022289D01*
X042428Y022297D01*
X042429Y022304D01*
X04243Y022314D01*
X042431Y022324D01*
Y022335D01*
Y022336D01*
Y022337D01*
Y02234D01*
Y022343D01*
X04243Y022352D01*
X042429Y022364D01*
X042425Y022376D01*
X042422Y022389D01*
X042416Y022402D01*
X042409Y022413D01*
X042408Y022414D01*
X042405Y022416D01*
X042402Y02242D01*
X042397Y022424D01*
X04239Y022428D01*
X042382Y022431D01*
X042373Y022434D01*
X042362Y022435D01*
D02*
G37*
G36*
X042323Y022153D02*
X042322Y022152D01*
X042321Y022152D01*
X042316Y022147D01*
X04231Y02214D01*
X042305Y022133D01*
Y022132D01*
X042304Y022131D01*
X042302Y022127D01*
X042301Y022123D01*
X042298Y022117D01*
X042296Y02211D01*
X042293Y022102D01*
X042291Y022092D01*
Y022092D01*
X04229Y022087D01*
X042289Y022082D01*
X042288Y022076D01*
X042286Y022067D01*
X042286Y022057D01*
X042285Y022037D01*
Y022035D01*
Y022031D01*
X042286Y022023D01*
Y022015D01*
X042287Y022005D01*
X042289Y021994D01*
X042291Y021983D01*
X042294Y021973D01*
X042295Y021972D01*
X042296Y021969D01*
X042298Y021965D01*
X042301Y021959D01*
X042309Y021947D01*
X042315Y021942D01*
X04232Y021937D01*
X042321Y021937D01*
X042324Y021936D01*
X042327Y021934D01*
X042332Y021932D01*
X042337Y02193D01*
X042344Y021928D01*
X04235Y021927D01*
X042357Y021927D01*
X042362D01*
X042367Y021927D01*
X042375Y021929D01*
X042382Y021932D01*
X04239Y021936D01*
X042399Y021941D01*
X042406Y021947D01*
X042407Y021948D01*
X04241Y021952D01*
X042413Y021957D01*
X042416Y021963D01*
X04242Y021972D01*
X042423Y021982D01*
X042425Y021992D01*
X042426Y022006D01*
Y022007D01*
Y022009D01*
X042425Y022013D01*
X042425Y022019D01*
X042423Y022026D01*
X04242Y022034D01*
X042418Y022043D01*
X042414Y022053D01*
X042408Y022064D01*
X042401Y022076D01*
X042393Y022088D01*
X042383Y022101D01*
X042371Y022114D01*
X042357Y022127D01*
X042341Y02214D01*
X042323Y022153D01*
D02*
G37*
G36*
X04195Y022434D02*
X041947D01*
X041944Y022433D01*
X041941D01*
X041931Y02243D01*
X041927Y022427D01*
X041923Y022424D01*
X041922Y022423D01*
X041921Y022421D01*
X041918Y022417D01*
X041915Y022412D01*
X041912Y022406D01*
X041908Y022397D01*
X041906Y022387D01*
X041903Y022375D01*
Y022374D01*
Y022373D01*
X041902Y022371D01*
Y022366D01*
Y022361D01*
X041901Y022353D01*
Y022343D01*
X041901Y022332D01*
X0419Y022317D01*
Y0223D01*
X041899Y02228D01*
Y022257D01*
Y022244D01*
Y022231D01*
X041898Y022217D01*
Y022202D01*
Y022185D01*
Y022168D01*
Y02215D01*
Y022131D01*
Y022129D01*
Y022126D01*
Y02212D01*
Y022112D01*
Y022103D01*
X041899Y022092D01*
Y022081D01*
Y022069D01*
X0419Y022043D01*
X041901Y022018D01*
X041902Y022006D01*
X041903Y021995D01*
X041904Y021986D01*
X041906Y021977D01*
Y021977D01*
X041906Y021973D01*
X041908Y021968D01*
X04191Y021962D01*
X041915Y02195D01*
X041918Y021944D01*
X041922Y02194D01*
X041923D01*
X041925Y021938D01*
X041927Y021937D01*
X041931Y021936D01*
X041935Y021934D01*
X04194Y021932D01*
X041946Y021932D01*
X041952Y021931D01*
X041956D01*
X041959Y021932D01*
X041964Y021932D01*
X041968Y021934D01*
X041973Y021936D01*
X041978Y021939D01*
X041982Y021943D01*
X041983Y021944D01*
X041985Y021947D01*
X041988Y021952D01*
X041991Y02196D01*
X041994Y021969D01*
X041997Y021982D01*
X042Y021995D01*
X042001Y022012D01*
X042003Y022182D01*
Y022184D01*
Y022188D01*
Y022196D01*
Y022205D01*
Y022216D01*
Y022228D01*
Y022242D01*
Y022256D01*
Y022284D01*
X042002Y022298D01*
Y022311D01*
Y022322D01*
Y022333D01*
X042001Y022341D01*
Y022346D01*
Y022347D01*
Y022349D01*
X042001Y022351D01*
Y022356D01*
X042Y022365D01*
X041997Y022376D01*
X041995Y022389D01*
X041991Y022401D01*
X041987Y022412D01*
X041985Y022416D01*
X041982Y022421D01*
X041981Y022421D01*
X041981Y022423D01*
X041978Y022425D01*
X041975Y022427D01*
X04197Y02243D01*
X041965Y022432D01*
X041957Y022433D01*
X04195Y022434D01*
D02*
G37*
G36*
X040724Y022213D02*
X040721D01*
X040717Y022212D01*
X040713Y022212D01*
X040707Y02221D01*
X040699Y022207D01*
X040692Y022204D01*
X040683Y0222D01*
Y022199D01*
Y022197D01*
Y022195D01*
X040682Y022191D01*
Y022182D01*
X040681Y022169D01*
X04068Y022156D01*
Y022142D01*
X040679Y02213D01*
Y022119D01*
Y022118D01*
Y022117D01*
Y022114D01*
Y02211D01*
Y022105D01*
X04068Y022099D01*
X040681Y022085D01*
X040682Y022069D01*
X040684Y022051D01*
X040686Y022032D01*
X040689Y022012D01*
Y022012D01*
X04069Y02201D01*
Y022007D01*
X040691Y022004D01*
X040694Y021995D01*
X040697Y021984D01*
X040701Y021972D01*
X040706Y021961D01*
X040712Y02195D01*
X040719Y021941D01*
X040719Y02194D01*
X040721Y021938D01*
X040724Y021937D01*
X040728Y021934D01*
X040737Y021929D01*
X040743Y021927D01*
X040749Y021927D01*
X040753D01*
X040756Y021927D01*
X04076Y021929D01*
X040765Y021932D01*
X040771Y021936D01*
X040776Y021941D01*
X040782Y021947D01*
X040783Y021948D01*
X040784Y021952D01*
X040787Y021957D01*
X040789Y021967D01*
X040792Y021978D01*
X040794Y021985D01*
X040794Y021993D01*
X040795Y022002D01*
X040796Y022012D01*
X040797Y022022D01*
Y022034D01*
Y022036D01*
Y022039D01*
Y022045D01*
Y022052D01*
X040796Y022061D01*
X040795Y022071D01*
X040794Y022082D01*
X040794Y022094D01*
X04079Y022119D01*
X040786Y022145D01*
X040783Y022157D01*
X040779Y022167D01*
X040775Y022177D01*
X04077Y022186D01*
X040769Y022187D01*
X040767Y02219D01*
X040764Y022194D01*
X040758Y0222D01*
X040751Y022205D01*
X040744Y022209D01*
X040734Y022212D01*
X040724Y022213D01*
D02*
G37*
G36*
X039917Y022434D02*
X039915D01*
X039911Y022433D01*
X039908D01*
X039899Y02243D01*
X039895Y022427D01*
X039891Y022424D01*
X03989Y022423D01*
X039888Y022421D01*
X039886Y022417D01*
X039882Y022412D01*
X039879Y022406D01*
X039876Y022397D01*
X039873Y022387D01*
X039871Y022375D01*
Y022374D01*
Y022373D01*
X03987Y022371D01*
Y022366D01*
Y022361D01*
X039869Y022353D01*
Y022343D01*
X039868Y022332D01*
X039867Y022317D01*
Y0223D01*
X039866Y02228D01*
Y022257D01*
Y022244D01*
Y022231D01*
X039866Y022217D01*
Y022202D01*
Y022185D01*
Y022168D01*
Y02215D01*
Y022131D01*
Y022129D01*
Y022126D01*
Y02212D01*
Y022112D01*
Y022103D01*
X039866Y022092D01*
Y022081D01*
Y022069D01*
X039867Y022043D01*
X039869Y022018D01*
X03987Y022006D01*
X039871Y021995D01*
X039871Y021986D01*
X039873Y021977D01*
Y021977D01*
X039874Y021973D01*
X039876Y021968D01*
X039877Y021962D01*
X039882Y02195D01*
X039886Y021944D01*
X03989Y02194D01*
X039891D01*
X039892Y021938D01*
X039895Y021937D01*
X039898Y021936D01*
X039902Y021934D01*
X039907Y021932D01*
X039913Y021932D01*
X03992Y021931D01*
X039923D01*
X039926Y021932D01*
X039931Y021932D01*
X039936Y021934D01*
X039941Y021936D01*
X039946Y021939D01*
X03995Y021943D01*
X039951Y021944D01*
X039952Y021947D01*
X039956Y021952D01*
X039958Y02196D01*
X039961Y021969D01*
X039965Y021982D01*
X039967Y021995D01*
X039969Y022012D01*
X039971Y022182D01*
Y022184D01*
Y022188D01*
Y022196D01*
Y022205D01*
Y022216D01*
Y022228D01*
Y022242D01*
Y022256D01*
Y022284D01*
X03997Y022298D01*
Y022311D01*
Y022322D01*
Y022333D01*
X039969Y022341D01*
Y022346D01*
Y022347D01*
Y022349D01*
X039968Y022351D01*
Y022356D01*
X039967Y022365D01*
X039965Y022376D01*
X039962Y022389D01*
X039959Y022401D01*
X039955Y022412D01*
X039952Y022416D01*
X03995Y022421D01*
X039949Y022421D01*
X039948Y022423D01*
X039946Y022425D01*
X039942Y022427D01*
X039937Y02243D01*
X039932Y022432D01*
X039925Y022433D01*
X039917Y022434D01*
D02*
G37*
G36*
X032613Y022433D02*
X032609D01*
X032606Y022432D01*
X0326D01*
X032594Y022431D01*
X032587Y022429D01*
X032579Y022426D01*
X032571Y022424D01*
X032562Y02242D01*
X032553Y022415D01*
X032544Y022408D01*
X032534Y022401D01*
X032525Y022392D01*
X032516Y022382D01*
X032508Y022371D01*
X0325Y022357D01*
Y022356D01*
X032499Y022355D01*
X032498Y022351D01*
X032495Y022346D01*
X032493Y02234D01*
X03249Y022331D01*
X032488Y022322D01*
X032485Y022312D01*
X032482Y0223D01*
X032479Y022287D01*
X032477Y022272D01*
X032474Y022257D01*
X032472Y022239D01*
X032471Y02222D01*
X032469Y022201D01*
Y022179D01*
Y022177D01*
Y022173D01*
Y022166D01*
X03247Y022157D01*
X032471Y022145D01*
X032472Y022132D01*
X032474Y022117D01*
X032475Y022102D01*
X032481Y022069D01*
X032485Y022052D01*
X03249Y022035D01*
X032495Y022019D01*
X032502Y022003D01*
X032509Y021989D01*
X032518Y021976D01*
Y021975D01*
X032519Y021974D01*
X032524Y021968D01*
X032532Y021962D01*
X032542Y021953D01*
X032555Y021944D01*
X032572Y021937D01*
X03259Y021932D01*
X032601Y021931D01*
X032612Y02193D01*
X032619D01*
X032626Y021931D01*
X032636Y021932D01*
X032647Y021935D01*
X032658Y021938D01*
X032669Y021942D01*
X03268Y021949D01*
X032682Y02195D01*
X032686Y021954D01*
X032693Y02196D01*
X0327Y021969D01*
X032709Y021981D01*
X032718Y021994D01*
X032727Y022012D01*
X032734Y022031D01*
Y022032D01*
X032735Y022033D01*
X032736Y022037D01*
X032738Y022041D01*
X032739Y022047D01*
X032741Y022053D01*
X032743Y022061D01*
X032744Y02207D01*
X032746Y02208D01*
X032748Y022091D01*
X032749Y022103D01*
X032751Y022116D01*
X032753Y02213D01*
X032754Y022145D01*
X032754Y02216D01*
Y022177D01*
Y022177D01*
Y022182D01*
Y022187D01*
Y022194D01*
X032754Y022203D01*
Y022213D01*
X032753Y022224D01*
X032752Y022237D01*
X032749Y022262D01*
X032746Y022289D01*
X032741Y022314D01*
X032738Y022326D01*
X032734Y022336D01*
Y022336D01*
X032734Y022338D01*
X032733Y022341D01*
X032731Y022344D01*
X032726Y022354D01*
X03272Y022365D01*
X032714Y022377D01*
X032704Y02239D01*
X032694Y022401D01*
X032684Y022411D01*
X032682Y022411D01*
X032679Y022414D01*
X032672Y022418D01*
X032664Y022422D01*
X032653Y022426D01*
X032641Y02243D01*
X032627Y022432D01*
X032613Y022433D01*
D02*
G37*
%LPD*%
D21*
X0289Y04585D02*
D03*
X02975Y04775D02*
D03*
D29*
X0232Y032706D02*
X023346Y03256D01*
X023259Y040015D02*
X0236Y039674D01*
X0175D02*
X017841Y040015D01*
X023259D01*
X0175Y038029D02*
Y039674D01*
X0236Y03555D02*
Y039674D01*
X042524Y0419D02*
X0427Y042076D01*
X03935Y0419D02*
X042524D01*
Y04775D02*
X0427Y047574D01*
X02975Y04775D02*
X042524D01*
X0427Y042076D02*
Y047574D01*
X02235Y036679D02*
X022924D01*
X0231Y036854D02*
Y038174D01*
X022924Y036679D02*
X0231Y036854D01*
X02075Y03835D02*
X022924D01*
X0231Y038174D01*
X02235Y03555D02*
X0236D01*
Y034577D02*
Y03555D01*
X023776Y034401D02*
X025624D01*
X0236Y034577D02*
X023776Y034401D01*
X0175Y038029D02*
X01885Y036679D01*
X0161Y045674D02*
X016576Y04615D01*
X0161Y024059D02*
X016959Y0232D01*
X0161Y024059D02*
Y045674D01*
X016576Y04615D02*
X024369D01*
X016959Y0232D02*
X035674D01*
X02725Y0328D02*
X0273Y03285D01*
X036026Y028792D02*
X037242D01*
X03585Y028616D02*
X036026Y028792D01*
X035674Y0232D02*
X03585Y023376D01*
Y028616D01*
X026176Y0451D02*
X030074D01*
X03025Y044924D01*
Y042026D02*
Y044924D01*
X030426Y04185D02*
X0373D01*
X03025Y042026D02*
X030426Y04185D01*
X029926Y03885D02*
X0373D01*
X02975Y039026D02*
X029926Y03885D01*
X02975Y039026D02*
Y044424D01*
X029574Y0446D02*
X02975Y044424D01*
X026676Y0446D02*
X029574D01*
X0265Y042526D02*
Y044424D01*
X026676Y0446D01*
X026Y044924D02*
X026176Y0451D01*
X026Y043426D02*
Y044924D01*
X02465Y04325D02*
X025824D01*
X026Y043426D01*
X026324Y04235D02*
X0265Y042526D01*
X02465Y04235D02*
X026324D01*
X024519Y0463D02*
X0246D01*
X024369Y04615D02*
X024519Y0463D01*
X0258Y041674D02*
X025976Y04185D01*
X0273D01*
X0258Y034577D02*
Y041674D01*
X0246Y0423D02*
X02465Y04235D01*
X025624Y034401D02*
X0258Y034577D01*
X0246Y0433D02*
X02465Y04325D01*
X037242Y028792D02*
X0373Y02885D01*
D30*
X041657Y0459D02*
X04195Y045607D01*
X03935Y0429D02*
X041657D01*
X04195Y043193D02*
Y045607D01*
X041657Y0429D02*
X04195Y043193D01*
X02895Y0459D02*
X041657D01*
X017143Y0333D02*
X019828D01*
X017207Y0238D02*
X027007D01*
X01685Y033007D02*
X017143Y0333D01*
X01685Y024157D02*
Y033007D01*
Y024157D02*
X017207Y0238D01*
X03935Y033597D02*
X04365D01*
Y026587D02*
Y033597D01*
Y040607D01*
X03935Y0409D02*
X043357D01*
X03985Y026294D02*
X043357D01*
Y0409D02*
X04365Y040607D01*
X043357Y026294D02*
X04365Y026587D01*
X0289Y04585D02*
X02895Y0459D01*
X0273Y024093D02*
Y02585D01*
X027007Y0238D02*
X0273Y024093D01*
D31*
X03985Y028294D02*
D03*
Y027294D02*
D03*
X03935Y031597D02*
D03*
Y032597D02*
D03*
Y030597D02*
D03*
Y0359D02*
D03*
Y0369D02*
D03*
Y0409D02*
D03*
Y0419D02*
D03*
Y0399D02*
D03*
Y0389D02*
D03*
Y0379D02*
D03*
X02075Y0418D02*
D03*
Y03835D02*
D03*
X022493Y0267D02*
D03*
D32*
X03985Y026294D02*
D03*
X03935Y033597D02*
D03*
Y0429D02*
D03*
X02075Y0428D02*
D03*
Y03935D02*
D03*
X022493Y0277D02*
D03*
D33*
X0373Y04385D02*
D03*
Y04285D02*
D03*
Y04185D02*
D03*
Y04085D02*
D03*
Y03985D02*
D03*
Y03885D02*
D03*
Y03785D02*
D03*
Y03685D02*
D03*
Y03585D02*
D03*
Y03485D02*
D03*
Y03385D02*
D03*
Y03285D02*
D03*
Y03185D02*
D03*
Y03085D02*
D03*
Y02985D02*
D03*
Y02885D02*
D03*
Y02785D02*
D03*
Y02685D02*
D03*
Y02585D02*
D03*
X0273D02*
D03*
Y02685D02*
D03*
Y02785D02*
D03*
Y02885D02*
D03*
Y02985D02*
D03*
Y03085D02*
D03*
Y03185D02*
D03*
Y03285D02*
D03*
Y03385D02*
D03*
Y03485D02*
D03*
Y03585D02*
D03*
Y03685D02*
D03*
Y03785D02*
D03*
Y03885D02*
D03*
Y03985D02*
D03*
Y04085D02*
D03*
Y04185D02*
D03*
Y04285D02*
D03*
D34*
Y04385D02*
D03*
D35*
X01885Y03555D02*
D03*
X02235D02*
D03*
X01885Y036679D02*
D03*
X02235D02*
D03*
X02465Y02455D02*
D03*
Y02805D02*
D03*
X024664Y0335D02*
D03*
Y03D02*
D03*
D36*
X019828Y030308D02*
D03*
Y0333D02*
D03*
D37*
X0232Y032706D02*
D03*
D38*
Y0318D02*
D03*
Y030894D02*
D03*
D39*
X0162Y0484D02*
D03*
X04365D02*
D03*
Y02235D02*
D03*
X0162D02*
D03*
D40*
X0246Y0353D02*
D03*
Y0363D02*
D03*
Y0373D02*
D03*
Y0383D02*
D03*
Y0393D02*
D03*
Y0403D02*
D03*
Y0413D02*
D03*
Y0423D02*
D03*
Y0433D02*
D03*
Y0443D02*
D03*
Y0453D02*
D03*
Y0463D02*
D03*
Y0473D02*
D03*
D41*
Y0483D02*
D03*
M02*
