M48
;Layer_Color=9474304
;FILE_FORMAT=2:4
INCH,LZ
;TYPE=PLATED
T1F00S00C0.0310
T2F00S00C0.0315
T3F00S00C0.0394
T4F00S00C0.0402
T5F00S00C0.0433
T6F00S00C0.1378
%
T01
X02465Y02455
Y02805
X024664Y03
Y0335
X02235Y03555
Y036679
X01885
Y03555
X0289Y04585
X02975Y04775
T02
X03985Y026294
Y027294
Y028294
X03935Y030597
X022493Y0277
Y0267
X02075Y03835
Y03935
Y0418
Y0428
X03935Y0429
Y0419
Y0409
Y0399
Y0389
Y0379
Y0369
Y0359
Y033597
Y032597
Y031597
T03
X019828Y030308
Y0333
T04
X0373Y02585
Y02685
Y02785
Y02885
Y02985
Y03085
X0273
Y02985
Y02885
Y02785
Y02685
Y02585
Y03185
Y03285
Y03385
Y03485
Y03585
Y03685
Y03785
Y03885
Y03985
Y04085
Y04185
Y04285
Y04385
X0246Y0443
Y0433
Y0423
Y0413
Y0403
Y0393
Y0383
Y0373
Y0363
Y0353
Y0453
Y0463
X0373Y04385
Y04285
Y04185
Y04085
Y03985
Y03885
Y03785
Y03685
Y03585
Y03485
Y03385
Y03285
Y03185
X0246Y0473
Y0483
T05
X0232Y030894
Y0318
Y032706
T06
X04365Y02235
X0162
X04365Y0484
X0162
M30
