G04*
G04 #@! TF.GenerationSoftware,Altium Limited,Altium Designer,21.2.1 (34)*
G04*
G04 Layer_Color=128*
%FSTAX24Y24*%
%MOIN*%
G70*
G04*
G04 #@! TF.SameCoordinates,A0B086A8-5AB1-40D3-A59C-F662E0C94A6C*
G04*
G04*
G04 #@! TF.FilePolarity,Positive*
G04*
G01*
G75*
%ADD42C,0.0020*%
D42*
X039693Y028294D02*
X040007D01*
X03985Y028137D02*
Y028452D01*
X039693Y026294D02*
X040007D01*
X03985Y026137D02*
Y026452D01*
X039693Y027294D02*
X040007D01*
X03985Y027137D02*
Y027452D01*
X039193Y031597D02*
X039507D01*
X03935Y03144D02*
Y031755D01*
X039193Y033597D02*
X039507D01*
X03935Y03344D02*
Y033755D01*
X039193Y032597D02*
X039507D01*
X03935Y03244D02*
Y032755D01*
X039193Y030597D02*
X039507D01*
X03935Y03044D02*
Y030755D01*
X039193Y0359D02*
X039507D01*
X03935Y035743D02*
Y036057D01*
X039193Y0369D02*
X039507D01*
X03935Y036743D02*
Y037057D01*
X039193Y0409D02*
X039507D01*
X03935Y040743D02*
Y041057D01*
X039193Y0429D02*
X039507D01*
X03935Y042743D02*
Y043057D01*
X039193Y0419D02*
X039507D01*
X03935Y041743D02*
Y042057D01*
X039193Y0399D02*
X039507D01*
X03935Y039743D02*
Y040057D01*
X039193Y0389D02*
X039507D01*
X03935Y038743D02*
Y039057D01*
X039193Y0379D02*
X039507D01*
X03935Y037743D02*
Y038057D01*
X037099Y04385D02*
X037501D01*
X0373Y043649D02*
Y044051D01*
X037099Y04285D02*
X037501D01*
X0373Y042649D02*
Y043051D01*
X037099Y04185D02*
X037501D01*
X0373Y041649D02*
Y042051D01*
X037099Y04085D02*
X037501D01*
X0373Y040649D02*
Y041051D01*
X037099Y03985D02*
X037501D01*
X0373Y039649D02*
Y040051D01*
X037099Y03885D02*
X037501D01*
X0373Y038649D02*
Y039051D01*
X037099Y03785D02*
X037501D01*
X0373Y037649D02*
Y038051D01*
X037099Y03685D02*
X037501D01*
X0373Y036649D02*
Y037051D01*
X037099Y03585D02*
X037501D01*
X0373Y035649D02*
Y036051D01*
X037099Y03485D02*
X037501D01*
X0373Y034649D02*
Y035051D01*
X037099Y03385D02*
X037501D01*
X0373Y033649D02*
Y034051D01*
X037099Y03285D02*
X037501D01*
X0373Y032649D02*
Y033051D01*
X037099Y03185D02*
X037501D01*
X0373Y031649D02*
Y032051D01*
X037099Y03085D02*
X037501D01*
X0373Y030649D02*
Y031051D01*
X037099Y02985D02*
X037501D01*
X0373Y029649D02*
Y030051D01*
X037099Y02885D02*
X037501D01*
X0373Y028649D02*
Y029051D01*
X037099Y02785D02*
X037501D01*
X0373Y027649D02*
Y028051D01*
X037099Y02685D02*
X037501D01*
X0373Y026649D02*
Y027051D01*
X037099Y02585D02*
X037501D01*
X0373Y025649D02*
Y026051D01*
X027099Y02585D02*
X027501D01*
X0273Y025649D02*
Y026051D01*
X027099Y02685D02*
X027501D01*
X0273Y026649D02*
Y027051D01*
X027099Y02785D02*
X027501D01*
X0273Y027649D02*
Y028051D01*
X027099Y02885D02*
X027501D01*
X0273Y028649D02*
Y029051D01*
X027099Y02985D02*
X027501D01*
X0273Y029649D02*
Y030051D01*
X027099Y03085D02*
X027501D01*
X0273Y030649D02*
Y031051D01*
X027099Y03185D02*
X027501D01*
X0273Y031649D02*
Y032051D01*
X027099Y03285D02*
X027501D01*
X0273Y032649D02*
Y033051D01*
X027099Y03385D02*
X027501D01*
X0273Y033649D02*
Y034051D01*
X027099Y03485D02*
X027501D01*
X0273Y034649D02*
Y035051D01*
X027099Y03585D02*
X027501D01*
X0273Y035649D02*
Y036051D01*
X027099Y03685D02*
X027501D01*
X0273Y036649D02*
Y037051D01*
X027099Y03785D02*
X027501D01*
X0273Y037649D02*
Y038051D01*
X027099Y03885D02*
X027501D01*
X0273Y038649D02*
Y039051D01*
X027099Y03985D02*
X027501D01*
X0273Y039649D02*
Y040051D01*
X027099Y04085D02*
X027501D01*
X0273Y040649D02*
Y041051D01*
X027099Y04185D02*
X027501D01*
X0273Y041649D02*
Y042051D01*
X027099Y04285D02*
X027501D01*
X0273Y042649D02*
Y043051D01*
X027099Y04385D02*
X027501D01*
X0273Y043649D02*
Y044051D01*
X020593Y0418D02*
X020907D01*
X02075Y041643D02*
Y041957D01*
X020593Y0428D02*
X020907D01*
X02075Y042643D02*
Y042957D01*
X020593Y03835D02*
X020907D01*
X02075Y038193D02*
Y038507D01*
X020593Y03935D02*
X020907D01*
X02075Y039193D02*
Y039507D01*
X018695Y03555D02*
X019005D01*
X01885Y035395D02*
Y035705D01*
X022195Y03555D02*
X022505D01*
X02235Y035395D02*
Y035705D01*
X018695Y036679D02*
X019005D01*
X01885Y036524D02*
Y036834D01*
X022195Y036679D02*
X022505D01*
X02235Y036524D02*
Y036834D01*
X019631Y030308D02*
X020025D01*
X019828Y030111D02*
Y030505D01*
X019631Y0333D02*
X020025D01*
X019828Y033103D02*
Y033497D01*
X022335Y0267D02*
X02265D01*
X022493Y026543D02*
Y026857D01*
X022335Y0277D02*
X02265D01*
X022493Y027543D02*
Y027857D01*
X024495Y02455D02*
X024805D01*
X02465Y024395D02*
Y024705D01*
X024495Y02805D02*
X024805D01*
X02465Y027895D02*
Y028205D01*
X024509Y0335D02*
X024819D01*
X024664Y033345D02*
Y033655D01*
X024509Y03D02*
X024819D01*
X024664Y029845D02*
Y030155D01*
X022983Y032706D02*
X023417D01*
X0232Y032489D02*
Y032922D01*
X022983Y0318D02*
X023417D01*
X0232Y031583D02*
Y032017D01*
X022983Y030894D02*
X023417D01*
X0232Y030678D02*
Y031111D01*
X015511Y0484D02*
X016889D01*
X0162Y047711D02*
Y049089D01*
X024399Y0353D02*
X024801D01*
X0246Y035099D02*
Y035501D01*
X024399Y0363D02*
X024801D01*
X0246Y036099D02*
Y036501D01*
X024399Y0373D02*
X024801D01*
X0246Y037099D02*
Y037501D01*
X024399Y0383D02*
X024801D01*
X0246Y038099D02*
Y038501D01*
X024399Y0393D02*
X024801D01*
X0246Y039099D02*
Y039501D01*
X024399Y0403D02*
X024801D01*
X0246Y040099D02*
Y040501D01*
X024399Y0413D02*
X024801D01*
X0246Y041099D02*
Y041501D01*
X024399Y0423D02*
X024801D01*
X0246Y042099D02*
Y042501D01*
X024399Y0433D02*
X024801D01*
X0246Y043099D02*
Y043501D01*
X024399Y0443D02*
X024801D01*
X0246Y044099D02*
Y044501D01*
X024399Y0453D02*
X024801D01*
X0246Y045099D02*
Y045501D01*
X024399Y0463D02*
X024801D01*
X0246Y046099D02*
Y046501D01*
X024399Y0473D02*
X024801D01*
X0246Y047099D02*
Y047501D01*
X024399Y0483D02*
X024801D01*
X0246Y048099D02*
Y048501D01*
X042961Y0484D02*
X044339D01*
X04365Y047711D02*
Y049089D01*
X042961Y02235D02*
X044339D01*
X04365Y021661D02*
Y023039D01*
X015511Y02235D02*
X016889D01*
X0162Y021661D02*
Y023039D01*
X028745Y04585D02*
X029055D01*
X0289Y045695D02*
Y046005D01*
X029595Y04775D02*
X029905D01*
X02975Y047595D02*
Y047905D01*
M02*
