G04*
G04 #@! TF.GenerationSoftware,Altium Limited,Altium Designer,21.2.1 (34)*
G04*
G04 Layer_Color=255*
%FSTAX24Y24*%
%MOIN*%
G70*
G04*
G04 #@! TF.SameCoordinates,A0B086A8-5AB1-40D3-A59C-F662E0C94A6C*
G04*
G04*
G04 #@! TF.FilePolarity,Positive*
G04*
G01*
G75*
%ADD31C,0.0630*%
%ADD32R,0.0630X0.0630*%
%ADD33C,0.0602*%
%ADD34R,0.0602X0.0602*%
%ADD35C,0.0700*%
%ADD36C,0.0669*%
%ADD37R,0.1100X0.0600*%
%ADD38O,0.1100X0.0600*%
%ADD39C,0.1575*%
%ADD40C,0.0598*%
%ADD41R,0.0598X0.0598*%
D31*
X03985Y028294D02*
D03*
Y027294D02*
D03*
X03935Y031597D02*
D03*
Y032597D02*
D03*
Y030597D02*
D03*
Y0359D02*
D03*
Y0369D02*
D03*
Y0409D02*
D03*
Y0419D02*
D03*
Y0399D02*
D03*
Y0389D02*
D03*
Y0379D02*
D03*
X02075Y0418D02*
D03*
Y03835D02*
D03*
X022493Y0267D02*
D03*
D32*
X03985Y026294D02*
D03*
X03935Y033597D02*
D03*
Y0429D02*
D03*
X02075Y0428D02*
D03*
Y03935D02*
D03*
X022493Y0277D02*
D03*
D33*
X0373Y04385D02*
D03*
Y04285D02*
D03*
Y04185D02*
D03*
Y04085D02*
D03*
Y03985D02*
D03*
Y03885D02*
D03*
Y03785D02*
D03*
Y03685D02*
D03*
Y03585D02*
D03*
Y03485D02*
D03*
Y03385D02*
D03*
Y03285D02*
D03*
Y03185D02*
D03*
Y03085D02*
D03*
Y02985D02*
D03*
Y02885D02*
D03*
Y02785D02*
D03*
Y02685D02*
D03*
Y02585D02*
D03*
X0273D02*
D03*
Y02685D02*
D03*
Y02785D02*
D03*
Y02885D02*
D03*
Y02985D02*
D03*
Y03085D02*
D03*
Y03185D02*
D03*
Y03285D02*
D03*
Y03385D02*
D03*
Y03485D02*
D03*
Y03585D02*
D03*
Y03685D02*
D03*
Y03785D02*
D03*
Y03885D02*
D03*
Y03985D02*
D03*
Y04085D02*
D03*
Y04185D02*
D03*
Y04285D02*
D03*
D34*
Y04385D02*
D03*
D35*
X01885Y03555D02*
D03*
X02235D02*
D03*
X01885Y036679D02*
D03*
X02235D02*
D03*
X02465Y02455D02*
D03*
Y02805D02*
D03*
X024664Y0335D02*
D03*
Y03D02*
D03*
D36*
X019828Y030308D02*
D03*
Y0333D02*
D03*
D37*
X0232Y032706D02*
D03*
D38*
Y0318D02*
D03*
Y030894D02*
D03*
D39*
X0162Y0484D02*
D03*
X04365D02*
D03*
Y02235D02*
D03*
X0162D02*
D03*
D40*
X0246Y0353D02*
D03*
Y0363D02*
D03*
Y0373D02*
D03*
Y0383D02*
D03*
Y0393D02*
D03*
Y0403D02*
D03*
Y0413D02*
D03*
Y0423D02*
D03*
Y0433D02*
D03*
Y0443D02*
D03*
Y0453D02*
D03*
Y0463D02*
D03*
Y0473D02*
D03*
D41*
Y0483D02*
D03*
M02*
