G04*
G04 #@! TF.GenerationSoftware,Altium Limited,Altium Designer,21.2.1 (34)*
G04*
G04 Layer_Color=2752767*
%FSTAX24Y24*%
%MOIN*%
G70*
G04*
G04 #@! TF.SameCoordinates,A0B086A8-5AB1-40D3-A59C-F662E0C94A6C*
G04*
G04*
G04 #@! TF.FilePolarity,Positive*
G04*
G01*
G75*
%ADD42C,0.0020*%
%ADD43C,0.0027*%
D42*
X03977Y028214D02*
Y028374D01*
X03993D01*
Y028214D01*
X03977D01*
Y026214D02*
Y026374D01*
X03993D01*
Y026214D01*
X03977D01*
Y027214D02*
Y027374D01*
X03993D01*
Y027214D01*
X03977D01*
X03927Y031517D02*
Y031677D01*
X03943D01*
Y031517D01*
X03927D01*
Y033517D02*
Y033677D01*
X03943D01*
Y033517D01*
X03927D01*
Y032517D02*
Y032677D01*
X03943D01*
Y032517D01*
X03927D01*
Y030517D02*
Y030677D01*
X03943D01*
Y030517D01*
X03927D01*
Y03582D02*
Y03598D01*
X03943D01*
Y03582D01*
X03927D01*
Y03682D02*
Y03698D01*
X03943D01*
Y03682D01*
X03927D01*
Y04082D02*
Y04098D01*
X03943D01*
Y04082D01*
X03927D01*
Y04282D02*
Y04298D01*
X03943D01*
Y04282D01*
X03927D01*
Y04182D02*
Y04198D01*
X03943D01*
Y04182D01*
X03927D01*
Y03982D02*
Y03998D01*
X03943D01*
Y03982D01*
X03927D01*
Y03882D02*
Y03898D01*
X03943D01*
Y03882D01*
X03927D01*
Y03782D02*
Y03798D01*
X03943D01*
Y03782D01*
X03927D01*
X02067Y04172D02*
Y04188D01*
X02083D01*
Y04172D01*
X02067D01*
Y04272D02*
Y04288D01*
X02083D01*
Y04272D01*
X02067D01*
Y03827D02*
Y03843D01*
X02083D01*
Y03827D01*
X02067D01*
Y03927D02*
Y03943D01*
X02083D01*
Y03927D01*
X02067D01*
X01885Y03547D02*
X01877Y03563D01*
X01893D01*
X01885Y03547D01*
X02235D02*
X02227Y03563D01*
X02243D01*
X02235Y03547D01*
X01885Y036599D02*
X01877Y036759D01*
X01893D01*
X01885Y036599D01*
X02235D02*
X02227Y036759D01*
X02243D01*
X02235Y036599D01*
X019828Y030228D02*
X019868Y030268D01*
X019908D01*
X019868Y030308D01*
X019908Y030348D01*
X019868D01*
X019828Y030388D01*
X019788Y030348D01*
X019748D01*
X019788Y030308D01*
X019748Y030268D01*
X019788D01*
X019828Y030228D01*
Y03322D02*
X019868Y03326D01*
X019908D01*
X019868Y0333D01*
X019908Y03334D01*
X019868D01*
X019828Y03338D01*
X019788Y03334D01*
X019748D01*
X019788Y0333D01*
X019748Y03326D01*
X019788D01*
X019828Y03322D01*
X022413Y02662D02*
Y02678D01*
X022573D01*
Y02662D01*
X022413D01*
Y02762D02*
Y02778D01*
X022573D01*
Y02762D01*
X022413D01*
X02465Y02447D02*
X02457Y02463D01*
X02473D01*
X02465Y02447D01*
Y02797D02*
X02457Y02813D01*
X02473D01*
X02465Y02797D01*
X024664Y03342D02*
X024584Y03358D01*
X024744D01*
X024664Y03342D01*
Y02992D02*
X024584Y03008D01*
X024744D01*
X024664Y02992D01*
X02312Y032626D02*
X02316Y032706D01*
X02312Y032786D01*
X0232Y032746D01*
X02328Y032786D01*
X02324Y032706D01*
X02328Y032626D01*
X0232Y032666D01*
X02312Y032626D01*
Y03172D02*
X02316Y0318D01*
X02312Y03188D01*
X0232Y03184D01*
X02328Y03188D01*
X02324Y0318D01*
X02328Y03172D01*
X0232Y03176D01*
X02312Y03172D01*
Y030814D02*
X02316Y030894D01*
X02312Y030974D01*
X0232Y030934D01*
X02328Y030974D01*
X02324Y030894D01*
X02328Y030814D01*
X0232Y030854D01*
X02312Y030814D01*
X01616Y04836D02*
Y04832D01*
X01624D01*
Y04836D01*
X01628D01*
Y04844D01*
X01624D01*
Y04848D01*
X01616D01*
Y04844D01*
X01612D01*
Y04836D01*
X01616D01*
X04361D02*
Y04832D01*
X04369D01*
Y04836D01*
X04373D01*
Y04844D01*
X04369D01*
Y04848D01*
X04361D01*
Y04844D01*
X04357D01*
Y04836D01*
X04361D01*
Y02231D02*
Y02227D01*
X04369D01*
Y02231D01*
X04373D01*
Y02239D01*
X04369D01*
Y02243D01*
X04361D01*
Y02239D01*
X04357D01*
Y02231D01*
X04361D01*
X01616D02*
Y02227D01*
X01624D01*
Y02231D01*
X01628D01*
Y02239D01*
X01624D01*
Y02243D01*
X01616D01*
Y02239D01*
X01612D01*
Y02231D01*
X01616D01*
X0289Y04577D02*
X02882Y04593D01*
X02898D01*
X0289Y04577D01*
X02975Y04767D02*
X02967Y04783D01*
X02983D01*
X02975Y04767D01*
D43*
X03738Y04385D02*
G03*
X03738Y04385I-00008J0D01*
G01*
Y04285D02*
G03*
X03738Y04285I-00008J0D01*
G01*
Y04185D02*
G03*
X03738Y04185I-00008J0D01*
G01*
Y04085D02*
G03*
X03738Y04085I-00008J0D01*
G01*
Y03985D02*
G03*
X03738Y03985I-00008J0D01*
G01*
Y03885D02*
G03*
X03738Y03885I-00008J0D01*
G01*
Y03785D02*
G03*
X03738Y03785I-00008J0D01*
G01*
Y03685D02*
G03*
X03738Y03685I-00008J0D01*
G01*
Y03585D02*
G03*
X03738Y03585I-00008J0D01*
G01*
Y03485D02*
G03*
X03738Y03485I-00008J0D01*
G01*
Y03385D02*
G03*
X03738Y03385I-00008J0D01*
G01*
Y03285D02*
G03*
X03738Y03285I-00008J0D01*
G01*
Y03185D02*
G03*
X03738Y03185I-00008J0D01*
G01*
Y03085D02*
G03*
X03738Y03085I-00008J0D01*
G01*
Y02985D02*
G03*
X03738Y02985I-00008J0D01*
G01*
Y02885D02*
G03*
X03738Y02885I-00008J0D01*
G01*
Y02785D02*
G03*
X03738Y02785I-00008J0D01*
G01*
Y02685D02*
G03*
X03738Y02685I-00008J0D01*
G01*
Y02585D02*
G03*
X03738Y02585I-00008J0D01*
G01*
X02738D02*
G03*
X02738Y02585I-00008J0D01*
G01*
Y02685D02*
G03*
X02738Y02685I-00008J0D01*
G01*
Y02785D02*
G03*
X02738Y02785I-00008J0D01*
G01*
Y02885D02*
G03*
X02738Y02885I-00008J0D01*
G01*
Y02985D02*
G03*
X02738Y02985I-00008J0D01*
G01*
Y03085D02*
G03*
X02738Y03085I-00008J0D01*
G01*
Y03185D02*
G03*
X02738Y03185I-00008J0D01*
G01*
Y03285D02*
G03*
X02738Y03285I-00008J0D01*
G01*
Y03385D02*
G03*
X02738Y03385I-00008J0D01*
G01*
Y03485D02*
G03*
X02738Y03485I-00008J0D01*
G01*
Y03585D02*
G03*
X02738Y03585I-00008J0D01*
G01*
Y03685D02*
G03*
X02738Y03685I-00008J0D01*
G01*
Y03785D02*
G03*
X02738Y03785I-00008J0D01*
G01*
Y03885D02*
G03*
X02738Y03885I-00008J0D01*
G01*
Y03985D02*
G03*
X02738Y03985I-00008J0D01*
G01*
Y04085D02*
G03*
X02738Y04085I-00008J0D01*
G01*
Y04185D02*
G03*
X02738Y04185I-00008J0D01*
G01*
Y04285D02*
G03*
X02738Y04285I-00008J0D01*
G01*
Y04385D02*
G03*
X02738Y04385I-00008J0D01*
G01*
X02468Y0353D02*
G03*
X02468Y0353I-00008J0D01*
G01*
Y0363D02*
G03*
X02468Y0363I-00008J0D01*
G01*
Y0373D02*
G03*
X02468Y0373I-00008J0D01*
G01*
Y0383D02*
G03*
X02468Y0383I-00008J0D01*
G01*
Y0393D02*
G03*
X02468Y0393I-00008J0D01*
G01*
Y0403D02*
G03*
X02468Y0403I-00008J0D01*
G01*
Y0413D02*
G03*
X02468Y0413I-00008J0D01*
G01*
Y0423D02*
G03*
X02468Y0423I-00008J0D01*
G01*
Y0433D02*
G03*
X02468Y0433I-00008J0D01*
G01*
Y0443D02*
G03*
X02468Y0443I-00008J0D01*
G01*
Y0453D02*
G03*
X02468Y0453I-00008J0D01*
G01*
Y0463D02*
G03*
X02468Y0463I-00008J0D01*
G01*
Y0473D02*
G03*
X02468Y0473I-00008J0D01*
G01*
Y0483D02*
G03*
X02468Y0483I-00008J0D01*
G01*
M02*
