G04*
G04 #@! TF.GenerationSoftware,Altium Limited,Altium Designer,21.2.1 (34)*
G04*
G04 Layer_Physical_Order=2*
G04 Layer_Color=16711680*
%FSTAX24Y24*%
%MOIN*%
G70*
G04*
G04 #@! TF.SameCoordinates,A0B086A8-5AB1-40D3-A59C-F662E0C94A6C*
G04*
G04*
G04 #@! TF.FilePolarity,Positive*
G04*
G01*
G75*
%ADD21C,0.0780*%
%ADD29C,0.0300*%
%ADD30C,0.0500*%
%ADD31C,0.0630*%
%ADD32R,0.0630X0.0630*%
%ADD33C,0.0602*%
%ADD34R,0.0602X0.0602*%
%ADD35C,0.0700*%
%ADD36C,0.0669*%
%ADD37R,0.1100X0.0600*%
%ADD38O,0.1100X0.0600*%
%ADD39C,0.1575*%
%ADD40C,0.0598*%
%ADD41R,0.0598X0.0598*%
D21*
X0289Y04585D02*
D03*
X02975Y04775D02*
D03*
D29*
X025076Y0318D02*
X02725D01*
X024664Y032212D02*
Y0335D01*
Y03D02*
Y031505D01*
Y032212D02*
X025076Y0318D01*
X023719Y03245D02*
X024664Y031505D01*
X02345Y032706D02*
X023706Y03245D01*
X023719D01*
X0232Y032706D02*
X02345D01*
X038712Y034262D02*
X041262D01*
X041374Y028294D02*
X04155Y02847D01*
X041262Y034262D02*
X04155Y033974D01*
X041874Y027294D02*
X04205Y02747D01*
X03985Y028294D02*
X041374D01*
X04155Y02847D02*
Y033974D01*
X03985Y027294D02*
X041874D01*
X04205Y02747D02*
Y034474D01*
X041762Y034762D02*
X04205Y034474D01*
X038212Y034762D02*
X041762D01*
X01805Y039174D02*
X018226Y03935D01*
X02075D01*
X018226Y035627D02*
X018773D01*
X01805Y035802D02*
Y039174D01*
Y035802D02*
X018226Y035627D01*
X03935Y0379D02*
X041324D01*
X038676Y0467D02*
X041324D01*
Y0379D02*
X0415Y038076D01*
Y046524D01*
X041324Y0467D02*
X0415Y046524D01*
X038712Y035262D02*
X03935Y0359D01*
X0373Y03285D02*
X038712Y034262D01*
X03985Y027294D02*
X03985Y027294D01*
X0373Y03385D02*
X038212Y034762D01*
X037774Y035262D02*
X038712D01*
X037362Y03485D02*
X037774Y035262D01*
X0373Y03485D02*
X037362D01*
X0373Y03285D02*
Y03285D01*
X037242Y028792D02*
X0373Y02885D01*
Y03185D02*
X038047Y032597D01*
X03935D01*
X037382Y02985D02*
X037533Y030001D01*
X037551D02*
X039084Y031534D01*
X039287D01*
X0373Y02985D02*
X037382D01*
X039287Y031534D02*
X03935Y031597D01*
X037533Y030001D02*
X037551D01*
X026726Y02985D02*
X0273D01*
X02655Y028176D02*
Y029674D01*
X026726Y02985D01*
X0247Y028D02*
X026374D01*
X02655Y028176D01*
X02465Y02805D02*
X0247Y028D01*
X02465Y026884D02*
Y02805D01*
X022493Y0267D02*
X024466D01*
X02465Y026884D01*
X02545Y033084D02*
X025626Y032908D01*
X02545Y033084D02*
Y044124D01*
X025626Y032908D02*
X027242D01*
X02725Y0318D02*
X0273Y03185D01*
X027242Y032908D02*
X0273Y03285D01*
X029725Y034051D02*
Y047725D01*
X02975Y04775D01*
X029549Y033875D02*
X029725Y034051D01*
X018773Y035627D02*
X01885Y03555D01*
X0246Y0443D02*
X025274D01*
X02545Y044124D01*
X027325Y033875D02*
X029549D01*
X0273Y03385D02*
X027325Y033875D01*
X02235Y03555D02*
X022357Y035557D01*
X026276Y034838D02*
X027288D01*
X0261Y035014D02*
X026276Y034838D01*
X02465Y0453D02*
X025924D01*
X0261Y045124D01*
Y035014D02*
Y045124D01*
X0385Y046524D02*
X038676Y0467D01*
X0385Y043026D02*
Y046524D01*
X038324Y04285D02*
X0385Y043026D01*
X0373Y04285D02*
X038324D01*
X022493Y0267D02*
X022556Y026763D01*
X0232Y0318D02*
X02325Y03175D01*
X020004Y0318D02*
X0232D01*
X019828Y031624D02*
X020004Y0318D01*
X019828Y030308D02*
Y031624D01*
X027288Y034838D02*
X0273Y03485D01*
X038861Y0389D02*
X03935D01*
X038685Y037003D02*
Y038724D01*
X038861Y0389D01*
X038474Y036792D02*
X038685Y037003D01*
X0383Y03585D02*
X03935Y0369D01*
X0373Y03585D02*
X0383D01*
X037358Y036792D02*
X038474D01*
X0373Y03685D02*
X037358Y036792D01*
D30*
X04265Y026587D02*
Y047007D01*
X042357Y026294D02*
X04265Y026587D01*
X042357Y0473D02*
X04265Y047007D01*
X01745Y024843D02*
Y0418D01*
Y024843D02*
X017743Y02455D01*
X0273Y03085D02*
X02732Y03083D01*
X03275Y031093D02*
Y037557D01*
X033043Y03785D01*
X02732Y03083D02*
X027392D01*
X027422Y0308D02*
X032457D01*
X027392Y03083D02*
X027422Y0308D01*
X032457D02*
X03275Y031093D01*
X033043Y03785D02*
X0373D01*
X01745Y0418D02*
X02075D01*
X01745D02*
Y0468D01*
X01895Y0483D02*
X0246D01*
X01745Y0468D02*
X01895Y0483D01*
X018599Y049049D02*
X027007D01*
X0167Y0236D02*
Y04715D01*
X018599Y049049D01*
X037957Y02325D02*
X03825Y023543D01*
Y029532D02*
X039315Y030597D01*
X01705Y02325D02*
X037957D01*
X03825Y023543D02*
Y029532D01*
X039315Y030597D02*
X03935D01*
X023357Y03355D02*
X02365Y033843D01*
X020124Y03355D02*
X023357D01*
X02365Y033843D02*
Y041007D01*
X019874Y0333D02*
X020124Y03355D01*
X019828Y0333D02*
X019874D01*
X025001Y02915D02*
X026682Y03083D01*
X0232Y02915D02*
X025001D01*
X026682Y03083D02*
X02728D01*
X0273Y03085D01*
X018593Y0277D02*
X022493D01*
X0183Y027993D02*
X018593Y0277D01*
X0183Y034292D02*
X018593Y034585D01*
X0183Y027993D02*
Y034292D01*
X018593Y034585D02*
X021257D01*
X022558Y027765D02*
X022907D01*
X0232Y028058D02*
Y02915D01*
X022493Y0277D02*
X022558Y027765D01*
X022907D02*
X0232Y028058D01*
Y02915D02*
Y030894D01*
X02885Y0459D02*
X0289Y04585D01*
X0273Y0459D02*
X02885D01*
X0273D02*
Y048756D01*
Y04385D02*
Y0459D01*
X017743Y02455D02*
X02465D01*
X0167Y0236D02*
X01705Y02325D01*
X023943Y0413D02*
X0246D01*
X02365Y041007D02*
X023943Y0413D01*
X021843Y0473D02*
X0246D01*
X02155Y047007D02*
X021843Y0473D01*
X0208Y04275D02*
X02155D01*
Y047007D01*
Y034878D02*
Y04275D01*
X02075Y0428D02*
X0208Y04275D01*
X021257Y034585D02*
X02155Y034878D01*
X0379Y047007D02*
X038193Y0473D01*
X042357D01*
X0379Y044194D02*
Y047007D01*
X03985Y026294D02*
X042357D01*
X038085Y038143D02*
Y040592D01*
X0373Y03785D02*
X03732Y03787D01*
Y04387D02*
X037576D01*
X0373Y04385D02*
X03732Y04387D01*
X037576D02*
X0379Y044194D01*
X024688Y025907D02*
X024981Y0262D01*
X026922D01*
X027272Y02585D01*
X024688Y024588D02*
Y025907D01*
X02465Y02455D02*
X024688Y024588D01*
X027272Y02585D02*
X0273D01*
X027007Y049049D02*
X0273Y048756D01*
X038393Y0409D02*
X03935D01*
X03732Y03787D02*
X037812D01*
X038085Y038143D01*
Y040592D02*
X038393Y0409D01*
X03935Y033597D02*
X039351Y033599D01*
D31*
X03985Y028294D02*
D03*
Y027294D02*
D03*
X03935Y031597D02*
D03*
Y032597D02*
D03*
Y030597D02*
D03*
Y0359D02*
D03*
Y0369D02*
D03*
Y0409D02*
D03*
Y0419D02*
D03*
Y0399D02*
D03*
Y0389D02*
D03*
Y0379D02*
D03*
X02075Y0418D02*
D03*
Y03835D02*
D03*
X022493Y0267D02*
D03*
D32*
X03985Y026294D02*
D03*
X03935Y033597D02*
D03*
Y0429D02*
D03*
X02075Y0428D02*
D03*
Y03935D02*
D03*
X022493Y0277D02*
D03*
D33*
X0373Y04385D02*
D03*
Y04285D02*
D03*
Y04185D02*
D03*
Y04085D02*
D03*
Y03985D02*
D03*
Y03885D02*
D03*
Y03785D02*
D03*
Y03685D02*
D03*
Y03585D02*
D03*
Y03485D02*
D03*
Y03385D02*
D03*
Y03285D02*
D03*
Y03185D02*
D03*
Y03085D02*
D03*
Y02985D02*
D03*
Y02885D02*
D03*
Y02785D02*
D03*
Y02685D02*
D03*
Y02585D02*
D03*
X0273D02*
D03*
Y02685D02*
D03*
Y02785D02*
D03*
Y02885D02*
D03*
Y02985D02*
D03*
Y03085D02*
D03*
Y03185D02*
D03*
Y03285D02*
D03*
Y03385D02*
D03*
Y03485D02*
D03*
Y03585D02*
D03*
Y03685D02*
D03*
Y03785D02*
D03*
Y03885D02*
D03*
Y03985D02*
D03*
Y04085D02*
D03*
Y04185D02*
D03*
Y04285D02*
D03*
D34*
Y04385D02*
D03*
D35*
X01885Y03555D02*
D03*
X02235D02*
D03*
X01885Y036679D02*
D03*
X02235D02*
D03*
X02465Y02455D02*
D03*
Y02805D02*
D03*
X024664Y0335D02*
D03*
Y03D02*
D03*
D36*
X019828Y030308D02*
D03*
Y0333D02*
D03*
D37*
X0232Y032706D02*
D03*
D38*
Y0318D02*
D03*
Y030894D02*
D03*
D39*
X0162Y0484D02*
D03*
X04365D02*
D03*
Y02235D02*
D03*
X0162D02*
D03*
D40*
X0246Y0353D02*
D03*
Y0363D02*
D03*
Y0373D02*
D03*
Y0383D02*
D03*
Y0393D02*
D03*
Y0403D02*
D03*
Y0413D02*
D03*
Y0423D02*
D03*
Y0433D02*
D03*
Y0443D02*
D03*
Y0453D02*
D03*
Y0463D02*
D03*
Y0473D02*
D03*
D41*
Y0483D02*
D03*
M02*
